M48
;GenerationSoftware,Autodesk,EAGLE,9.6.2*%
;CreationDate,2023-12-16T09:04:37Z*%
FMAT,2
ICI,OFF
METRIC,TZ,000.000
T9C0.305
T8C0.889
T7C0.920
T6C1.000
T5C1.400
T4C2.300
T3C2.500
T2C3.000
T1C3.175
%
G90
M71
T1
X3810Y3810
X3810Y77470
X102870Y3810
X102870Y77470
T2
X8890Y73025
X8890Y15875
X85090Y73025
X85090Y15875
T3
X18400Y5160
X18400Y15160
X71740Y5160
X71740Y15160
T4
X68750Y40730
X68750Y53870
T5
X102770Y7660
X102770Y12660
X40740Y12660
X40740Y7660
X53240Y7660
X53240Y12660
X90270Y12660
X90270Y7660
T6
X8890Y60960
X8890Y63500
X8890Y66040
X8890Y68580
X85090Y20320
X85090Y22860
X85090Y25400
X85090Y27940
X85090Y30480
X85090Y33020
X85090Y35560
X85090Y38100
X85090Y40640
X85090Y43180
X8890Y40640
X85090Y48260
X85090Y50800
X85090Y53340
X85090Y55880
X85090Y58420
X85090Y60960
X85090Y63500
X85090Y66040
X85090Y68580
X8890Y38100
X8890Y35560
X8890Y33020
X8890Y30480
X85090Y45720
X8890Y43180
X8890Y45720
X8890Y48260
X8890Y27940
X8890Y25400
X8890Y22860
X8890Y20320
X8890Y58420
X8890Y55880
X25400Y7660
X25400Y10160
X25400Y12660
X78740Y7660
X78740Y10160
X78740Y12660
X8890Y53340
X8890Y50800
T7
X66040Y43800
X66040Y46300
X66040Y48300
X66040Y50800
T8
X51790Y69410
X26390Y69410
X23850Y26230
X26390Y26230
X23850Y28770
X26390Y28770
X23850Y31310
X26390Y31310
X23850Y33850
X26390Y33850
X23850Y36390
X26390Y36390
X23850Y38930
X26390Y38930
X23850Y41470
X26390Y41470
X23850Y44010
X26390Y44010
X23850Y46550
X26390Y46550
X23850Y49090
X26390Y49090
X23850Y51630
X26390Y51630
X23850Y54170
X26390Y54170
X23850Y56710
X26390Y56710
X23850Y59250
X26390Y59250
X23850Y61790
X26390Y61790
X23850Y64330
X26390Y64330
X23850Y66870
X26390Y66870
X23850Y69410
X49250Y69410
X49250Y26230
X51790Y26230
X49250Y28770
X51790Y28770
X49250Y31310
X51790Y31310
X49250Y33850
X51790Y33850
X49250Y36390
X51790Y36390
X49250Y38930
X51790Y38930
X49250Y41470
X51790Y41470
X49250Y44010
X51790Y44010
X49250Y46550
X51790Y46550
X49250Y49090
X51790Y49090
X49250Y51630
X51790Y51630
X49250Y54170
X51790Y54170
X49250Y56710
X51790Y56710
X49250Y59250
X51790Y59250
X49250Y61790
X51790Y61790
X49250Y64330
X51790Y64330
X49250Y66870
X51790Y66870
T9
X65024Y57912
X85598Y12954
M30