G04 EAGLE Gerber RS-274X export*
G75*
%MOMM*%
%FSLAX34Y34*%
%LPD*%
%INCopper Layer 2*%
%IPPOS*%
%AMOC8*
5,1,8,0,0,1.08239X$1,22.5*%
G01*
%ADD10C,1.400000*%
%ADD11C,4.016000*%
%ADD12C,1.288000*%
%ADD13C,3.220000*%
%ADD14C,4.191000*%
%ADD15C,1.960000*%
%ADD16C,1.244600*%
%ADD17C,0.609600*%


D10*
X88900Y203200D03*
X88900Y228600D03*
X88900Y254000D03*
X88900Y279400D03*
X88900Y304800D03*
X88900Y330200D03*
X88900Y355600D03*
X88900Y381000D03*
X88900Y406400D03*
X88900Y431800D03*
X88900Y457200D03*
X88900Y482600D03*
X88900Y508000D03*
X88900Y533400D03*
X88900Y558800D03*
X88900Y584200D03*
X88900Y609600D03*
X88900Y635000D03*
X88900Y660400D03*
X88900Y685800D03*
X850900Y203200D03*
X850900Y228600D03*
X850900Y254000D03*
X850900Y279400D03*
X850900Y304800D03*
X850900Y330200D03*
X850900Y355600D03*
X850900Y381000D03*
X850900Y406400D03*
X850900Y431800D03*
X850900Y457200D03*
X850900Y482600D03*
X850900Y508000D03*
X850900Y533400D03*
X850900Y558800D03*
X850900Y584200D03*
X850900Y609600D03*
X850900Y635000D03*
X850900Y660400D03*
X850900Y685800D03*
D11*
X850900Y158750D03*
X850900Y730250D03*
X88900Y158750D03*
X88900Y730250D03*
D12*
X660400Y508000D03*
X660400Y483000D03*
X660400Y463000D03*
X660400Y438000D03*
D13*
X687500Y538700D03*
X687500Y407300D03*
D14*
X1028700Y774700D03*
X1028700Y38100D03*
X38100Y774700D03*
X38100Y38100D03*
D10*
X254000Y76600D03*
X254000Y101600D03*
X254000Y126600D03*
X787400Y76600D03*
X787400Y101600D03*
X787400Y126600D03*
D15*
X532400Y126600D03*
X532400Y76600D03*
X407400Y76600D03*
X407400Y126600D03*
X1027700Y126600D03*
X1027700Y76600D03*
X902700Y76600D03*
X902700Y126600D03*
D16*
X238500Y262300D03*
X263900Y262300D03*
X238500Y287700D03*
X263900Y287700D03*
X238500Y313100D03*
X263900Y313100D03*
X238500Y338500D03*
X263900Y338500D03*
X238500Y363900D03*
X263900Y363900D03*
X238500Y389300D03*
X263900Y389300D03*
X238500Y414700D03*
X263900Y414700D03*
X238500Y440100D03*
X263900Y440100D03*
X238500Y465500D03*
X263900Y465500D03*
X238500Y490900D03*
X263900Y490900D03*
X238500Y516300D03*
X263900Y516300D03*
X238500Y541700D03*
X263900Y541700D03*
X238500Y567100D03*
X263900Y567100D03*
X238500Y592500D03*
X263900Y592500D03*
X238500Y617900D03*
X263900Y617900D03*
X238500Y643300D03*
X263900Y643300D03*
X238500Y668700D03*
X263900Y668700D03*
X238500Y694100D03*
X263900Y694100D03*
X492500Y262300D03*
X517900Y262300D03*
X492500Y287700D03*
X517900Y287700D03*
X492500Y313100D03*
X517900Y313100D03*
X492500Y338500D03*
X517900Y338500D03*
X492500Y363900D03*
X517900Y363900D03*
X492500Y389300D03*
X517900Y389300D03*
X492500Y414700D03*
X517900Y414700D03*
X492500Y440100D03*
X517900Y440100D03*
X492500Y465500D03*
X517900Y465500D03*
X492500Y490900D03*
X517900Y490900D03*
X492500Y516300D03*
X517900Y516300D03*
X492500Y541700D03*
X517900Y541700D03*
X492500Y567100D03*
X517900Y567100D03*
X492500Y592500D03*
X517900Y592500D03*
X492500Y617900D03*
X517900Y617900D03*
X492500Y643300D03*
X517900Y643300D03*
X492500Y668700D03*
X517900Y668700D03*
X492500Y694100D03*
X517900Y694100D03*
D17*
X855980Y129540D03*
X650240Y579120D03*
M02*
