G04 EAGLE Gerber RS-274X export*
G75*
%MOMM*%
%FSLAX34Y34*%
%LPD*%
%INTop Copper*%
%IPPOS*%
%AMOC8*
5,1,8,0,0,1.08239X$1,22.5*%
G01*
%ADD10C,0.152400*%
%ADD11R,0.800000X0.800000*%
%ADD12C,1.016000*%
%ADD13R,1.676400X1.676400*%
%ADD14C,1.676400*%
%ADD15C,4.016000*%
%ADD16R,1.288000X1.288000*%
%ADD17C,1.288000*%
%ADD18C,3.220000*%
%ADD19C,4.445000*%
%ADD20C,1.400000*%
%ADD21R,0.949959X1.031241*%
%ADD22C,1.960000*%
%ADD23R,1.524000X1.524000*%
%ADD24P,1.649562X8X112.500000*%
%ADD25C,0.254000*%
%ADD26C,0.609600*%


D10*
X617587Y760222D02*
X610362Y760222D01*
X610362Y776478D01*
X617587Y776478D01*
X615781Y769253D02*
X610362Y769253D01*
X621922Y771059D02*
X627341Y771059D01*
X623728Y776478D02*
X623728Y762931D01*
X623729Y762931D02*
X623731Y762830D01*
X623737Y762729D01*
X623746Y762628D01*
X623759Y762527D01*
X623776Y762427D01*
X623797Y762328D01*
X623821Y762230D01*
X623849Y762133D01*
X623881Y762036D01*
X623916Y761941D01*
X623955Y761848D01*
X623997Y761756D01*
X624043Y761665D01*
X624092Y761577D01*
X624144Y761490D01*
X624200Y761405D01*
X624258Y761322D01*
X624320Y761242D01*
X624385Y761164D01*
X624452Y761088D01*
X624522Y761015D01*
X624595Y760945D01*
X624671Y760878D01*
X624749Y760813D01*
X624829Y760751D01*
X624912Y760693D01*
X624997Y760637D01*
X625084Y760585D01*
X625172Y760536D01*
X625263Y760490D01*
X625355Y760448D01*
X625448Y760409D01*
X625543Y760374D01*
X625640Y760342D01*
X625737Y760314D01*
X625835Y760290D01*
X625934Y760269D01*
X626034Y760252D01*
X626135Y760239D01*
X626236Y760230D01*
X626337Y760224D01*
X626438Y760222D01*
X627341Y760222D01*
X635846Y760222D02*
X639458Y760222D01*
X635846Y760222D02*
X635745Y760224D01*
X635644Y760230D01*
X635543Y760239D01*
X635442Y760252D01*
X635342Y760269D01*
X635243Y760290D01*
X635145Y760314D01*
X635048Y760342D01*
X634951Y760374D01*
X634856Y760409D01*
X634763Y760448D01*
X634671Y760490D01*
X634580Y760536D01*
X634492Y760585D01*
X634405Y760637D01*
X634320Y760693D01*
X634237Y760751D01*
X634157Y760813D01*
X634079Y760878D01*
X634003Y760945D01*
X633930Y761015D01*
X633860Y761088D01*
X633793Y761164D01*
X633728Y761242D01*
X633666Y761322D01*
X633608Y761405D01*
X633552Y761490D01*
X633500Y761577D01*
X633451Y761665D01*
X633405Y761756D01*
X633363Y761848D01*
X633324Y761941D01*
X633289Y762036D01*
X633257Y762133D01*
X633229Y762230D01*
X633205Y762328D01*
X633184Y762427D01*
X633167Y762527D01*
X633154Y762628D01*
X633145Y762729D01*
X633139Y762830D01*
X633137Y762931D01*
X633137Y768350D01*
X633139Y768451D01*
X633145Y768552D01*
X633154Y768653D01*
X633167Y768754D01*
X633184Y768854D01*
X633205Y768953D01*
X633229Y769051D01*
X633257Y769148D01*
X633289Y769245D01*
X633324Y769340D01*
X633363Y769433D01*
X633405Y769525D01*
X633451Y769616D01*
X633500Y769705D01*
X633552Y769791D01*
X633608Y769876D01*
X633666Y769959D01*
X633728Y770039D01*
X633793Y770117D01*
X633860Y770193D01*
X633930Y770266D01*
X634003Y770336D01*
X634079Y770403D01*
X634157Y770468D01*
X634237Y770530D01*
X634320Y770588D01*
X634405Y770644D01*
X634492Y770696D01*
X634580Y770745D01*
X634671Y770791D01*
X634763Y770833D01*
X634856Y770872D01*
X634951Y770907D01*
X635048Y770939D01*
X635145Y770967D01*
X635243Y770991D01*
X635342Y771012D01*
X635442Y771029D01*
X635543Y771042D01*
X635644Y771051D01*
X635745Y771057D01*
X635846Y771059D01*
X639458Y771059D01*
X645624Y776478D02*
X645624Y760222D01*
X645624Y771059D02*
X650140Y771059D01*
X650244Y771057D01*
X650347Y771051D01*
X650451Y771041D01*
X650554Y771027D01*
X650656Y771009D01*
X650757Y770988D01*
X650858Y770962D01*
X650957Y770933D01*
X651056Y770900D01*
X651153Y770863D01*
X651248Y770822D01*
X651342Y770778D01*
X651434Y770730D01*
X651524Y770679D01*
X651613Y770624D01*
X651699Y770566D01*
X651782Y770504D01*
X651864Y770440D01*
X651942Y770372D01*
X652018Y770302D01*
X652092Y770229D01*
X652162Y770152D01*
X652230Y770074D01*
X652294Y769992D01*
X652356Y769909D01*
X652414Y769823D01*
X652469Y769734D01*
X652520Y769644D01*
X652568Y769552D01*
X652612Y769458D01*
X652653Y769363D01*
X652690Y769266D01*
X652723Y769167D01*
X652752Y769068D01*
X652778Y768967D01*
X652799Y768866D01*
X652817Y768764D01*
X652831Y768661D01*
X652841Y768557D01*
X652847Y768454D01*
X652849Y768350D01*
X652849Y760222D01*
X659970Y766544D02*
X670807Y766544D01*
X676643Y760222D02*
X682062Y776478D01*
X687481Y760222D01*
X686126Y764286D02*
X677998Y764286D01*
X693317Y766544D02*
X704154Y766544D01*
X715791Y760222D02*
X715909Y760224D01*
X716027Y760230D01*
X716145Y760239D01*
X716262Y760253D01*
X716379Y760270D01*
X716496Y760291D01*
X716611Y760316D01*
X716726Y760345D01*
X716840Y760378D01*
X716952Y760414D01*
X717063Y760454D01*
X717173Y760497D01*
X717282Y760544D01*
X717389Y760594D01*
X717494Y760649D01*
X717597Y760706D01*
X717698Y760767D01*
X717798Y760831D01*
X717895Y760898D01*
X717990Y760968D01*
X718082Y761042D01*
X718173Y761118D01*
X718260Y761198D01*
X718345Y761280D01*
X718427Y761365D01*
X718507Y761452D01*
X718583Y761543D01*
X718657Y761635D01*
X718727Y761730D01*
X718794Y761827D01*
X718858Y761927D01*
X718919Y762028D01*
X718976Y762131D01*
X719031Y762236D01*
X719081Y762343D01*
X719128Y762452D01*
X719171Y762562D01*
X719211Y762673D01*
X719247Y762785D01*
X719280Y762899D01*
X719309Y763014D01*
X719334Y763129D01*
X719355Y763246D01*
X719372Y763363D01*
X719386Y763480D01*
X719395Y763598D01*
X719401Y763716D01*
X719403Y763834D01*
X715791Y760222D02*
X715608Y760224D01*
X715426Y760231D01*
X715244Y760242D01*
X715062Y760257D01*
X714880Y760277D01*
X714699Y760300D01*
X714519Y760329D01*
X714339Y760361D01*
X714160Y760398D01*
X713983Y760439D01*
X713806Y760485D01*
X713630Y760534D01*
X713456Y760588D01*
X713282Y760646D01*
X713111Y760708D01*
X712941Y760774D01*
X712772Y760845D01*
X712605Y760919D01*
X712440Y760997D01*
X712277Y761079D01*
X712116Y761165D01*
X711957Y761255D01*
X711800Y761349D01*
X711646Y761446D01*
X711494Y761547D01*
X711344Y761652D01*
X711197Y761760D01*
X711053Y761871D01*
X710911Y761986D01*
X710772Y762105D01*
X710636Y762227D01*
X710503Y762352D01*
X710373Y762480D01*
X710824Y772866D02*
X710826Y772984D01*
X710832Y773102D01*
X710841Y773220D01*
X710855Y773337D01*
X710872Y773454D01*
X710893Y773571D01*
X710918Y773686D01*
X710947Y773801D01*
X710980Y773915D01*
X711016Y774027D01*
X711056Y774138D01*
X711099Y774248D01*
X711146Y774357D01*
X711196Y774464D01*
X711251Y774569D01*
X711308Y774672D01*
X711369Y774773D01*
X711433Y774873D01*
X711500Y774970D01*
X711570Y775065D01*
X711644Y775157D01*
X711720Y775248D01*
X711800Y775335D01*
X711882Y775420D01*
X711967Y775502D01*
X712054Y775582D01*
X712145Y775658D01*
X712237Y775732D01*
X712332Y775802D01*
X712429Y775869D01*
X712529Y775933D01*
X712630Y775994D01*
X712733Y776052D01*
X712838Y776106D01*
X712945Y776156D01*
X713054Y776203D01*
X713164Y776247D01*
X713275Y776286D01*
X713388Y776322D01*
X713501Y776355D01*
X713616Y776384D01*
X713731Y776409D01*
X713848Y776430D01*
X713965Y776447D01*
X714082Y776461D01*
X714200Y776470D01*
X714318Y776476D01*
X714436Y776478D01*
X714597Y776476D01*
X714759Y776470D01*
X714920Y776461D01*
X715081Y776447D01*
X715241Y776430D01*
X715401Y776409D01*
X715561Y776384D01*
X715720Y776355D01*
X715878Y776323D01*
X716035Y776287D01*
X716191Y776247D01*
X716347Y776203D01*
X716501Y776155D01*
X716654Y776104D01*
X716806Y776050D01*
X716957Y775991D01*
X717106Y775930D01*
X717253Y775864D01*
X717399Y775795D01*
X717544Y775723D01*
X717686Y775647D01*
X717827Y775568D01*
X717966Y775486D01*
X718102Y775400D01*
X718237Y775311D01*
X718370Y775219D01*
X718500Y775123D01*
X712629Y769705D02*
X712528Y769767D01*
X712428Y769832D01*
X712331Y769901D01*
X712236Y769973D01*
X712143Y770047D01*
X712053Y770125D01*
X711965Y770206D01*
X711880Y770289D01*
X711798Y770375D01*
X711719Y770464D01*
X711642Y770555D01*
X711569Y770649D01*
X711498Y770745D01*
X711431Y770843D01*
X711367Y770943D01*
X711306Y771046D01*
X711249Y771150D01*
X711195Y771256D01*
X711145Y771364D01*
X711098Y771473D01*
X711054Y771584D01*
X711014Y771696D01*
X710978Y771810D01*
X710946Y771924D01*
X710917Y772040D01*
X710892Y772156D01*
X710871Y772273D01*
X710854Y772391D01*
X710840Y772509D01*
X710831Y772628D01*
X710825Y772747D01*
X710823Y772866D01*
X717597Y766995D02*
X717698Y766933D01*
X717798Y766868D01*
X717895Y766799D01*
X717990Y766727D01*
X718083Y766653D01*
X718173Y766575D01*
X718261Y766494D01*
X718346Y766411D01*
X718428Y766325D01*
X718507Y766236D01*
X718584Y766145D01*
X718657Y766051D01*
X718728Y765955D01*
X718795Y765857D01*
X718859Y765757D01*
X718920Y765654D01*
X718977Y765550D01*
X719031Y765444D01*
X719081Y765336D01*
X719128Y765227D01*
X719172Y765116D01*
X719212Y765004D01*
X719248Y764890D01*
X719280Y764776D01*
X719309Y764660D01*
X719334Y764544D01*
X719355Y764427D01*
X719372Y764309D01*
X719386Y764191D01*
X719395Y764072D01*
X719401Y763953D01*
X719403Y763834D01*
X717597Y766995D02*
X712630Y769705D01*
X726033Y776478D02*
X726033Y760222D01*
X726033Y765641D02*
X733258Y771059D01*
X729194Y767898D02*
X733258Y760222D01*
X741600Y760222D02*
X746115Y760222D01*
X741600Y760222D02*
X741499Y760224D01*
X741398Y760230D01*
X741297Y760239D01*
X741196Y760252D01*
X741096Y760269D01*
X740997Y760290D01*
X740899Y760314D01*
X740802Y760342D01*
X740705Y760374D01*
X740610Y760409D01*
X740517Y760448D01*
X740425Y760490D01*
X740334Y760536D01*
X740246Y760585D01*
X740159Y760637D01*
X740074Y760693D01*
X739991Y760751D01*
X739911Y760813D01*
X739833Y760878D01*
X739757Y760945D01*
X739684Y761015D01*
X739614Y761088D01*
X739547Y761164D01*
X739482Y761242D01*
X739420Y761322D01*
X739362Y761405D01*
X739306Y761490D01*
X739254Y761577D01*
X739205Y761665D01*
X739159Y761756D01*
X739117Y761848D01*
X739078Y761941D01*
X739043Y762036D01*
X739011Y762133D01*
X738983Y762230D01*
X738959Y762328D01*
X738938Y762427D01*
X738921Y762527D01*
X738908Y762628D01*
X738899Y762729D01*
X738893Y762830D01*
X738891Y762931D01*
X738890Y762931D02*
X738890Y767447D01*
X738891Y767447D02*
X738893Y767566D01*
X738899Y767686D01*
X738909Y767805D01*
X738923Y767923D01*
X738940Y768042D01*
X738962Y768159D01*
X738987Y768276D01*
X739017Y768391D01*
X739050Y768506D01*
X739087Y768620D01*
X739127Y768732D01*
X739172Y768843D01*
X739220Y768952D01*
X739271Y769060D01*
X739326Y769166D01*
X739385Y769270D01*
X739447Y769372D01*
X739512Y769472D01*
X739581Y769570D01*
X739653Y769666D01*
X739728Y769759D01*
X739805Y769849D01*
X739886Y769937D01*
X739970Y770022D01*
X740057Y770104D01*
X740146Y770184D01*
X740238Y770260D01*
X740332Y770334D01*
X740429Y770404D01*
X740527Y770471D01*
X740628Y770535D01*
X740732Y770595D01*
X740837Y770652D01*
X740944Y770705D01*
X741052Y770755D01*
X741162Y770801D01*
X741274Y770843D01*
X741387Y770882D01*
X741501Y770917D01*
X741616Y770948D01*
X741733Y770976D01*
X741850Y770999D01*
X741967Y771019D01*
X742086Y771035D01*
X742205Y771047D01*
X742324Y771055D01*
X742443Y771059D01*
X742563Y771059D01*
X742682Y771055D01*
X742801Y771047D01*
X742920Y771035D01*
X743039Y771019D01*
X743156Y770999D01*
X743273Y770976D01*
X743390Y770948D01*
X743505Y770917D01*
X743619Y770882D01*
X743732Y770843D01*
X743844Y770801D01*
X743954Y770755D01*
X744062Y770705D01*
X744169Y770652D01*
X744274Y770595D01*
X744378Y770535D01*
X744479Y770471D01*
X744577Y770404D01*
X744674Y770334D01*
X744768Y770260D01*
X744860Y770184D01*
X744949Y770104D01*
X745036Y770022D01*
X745120Y769937D01*
X745201Y769849D01*
X745278Y769759D01*
X745353Y769666D01*
X745425Y769570D01*
X745494Y769472D01*
X745559Y769372D01*
X745621Y769270D01*
X745680Y769166D01*
X745735Y769060D01*
X745786Y768952D01*
X745834Y768843D01*
X745879Y768732D01*
X745919Y768620D01*
X745956Y768506D01*
X745989Y768391D01*
X746019Y768276D01*
X746044Y768159D01*
X746066Y768042D01*
X746083Y767923D01*
X746097Y767805D01*
X746107Y767686D01*
X746113Y767566D01*
X746115Y767447D01*
X746115Y765641D01*
X738890Y765641D01*
X751140Y771059D02*
X756559Y771059D01*
X752946Y776478D02*
X752946Y762931D01*
X752947Y762931D02*
X752949Y762830D01*
X752955Y762729D01*
X752964Y762628D01*
X752977Y762527D01*
X752994Y762427D01*
X753015Y762328D01*
X753039Y762230D01*
X753067Y762133D01*
X753099Y762036D01*
X753134Y761941D01*
X753173Y761848D01*
X753215Y761756D01*
X753261Y761665D01*
X753310Y761577D01*
X753362Y761490D01*
X753418Y761405D01*
X753476Y761322D01*
X753538Y761242D01*
X753603Y761164D01*
X753670Y761088D01*
X753740Y761015D01*
X753813Y760945D01*
X753889Y760878D01*
X753967Y760813D01*
X754047Y760751D01*
X754130Y760693D01*
X754215Y760637D01*
X754302Y760585D01*
X754390Y760536D01*
X754481Y760490D01*
X754573Y760448D01*
X754666Y760409D01*
X754761Y760374D01*
X754858Y760342D01*
X754955Y760314D01*
X755053Y760290D01*
X755152Y760269D01*
X755252Y760252D01*
X755353Y760239D01*
X755454Y760230D01*
X755555Y760224D01*
X755656Y760222D01*
X756559Y760222D01*
X765064Y760222D02*
X768676Y760222D01*
X765064Y760222D02*
X764963Y760224D01*
X764862Y760230D01*
X764761Y760239D01*
X764660Y760252D01*
X764560Y760269D01*
X764461Y760290D01*
X764363Y760314D01*
X764266Y760342D01*
X764169Y760374D01*
X764074Y760409D01*
X763981Y760448D01*
X763889Y760490D01*
X763798Y760536D01*
X763710Y760585D01*
X763623Y760637D01*
X763538Y760693D01*
X763455Y760751D01*
X763375Y760813D01*
X763297Y760878D01*
X763221Y760945D01*
X763148Y761015D01*
X763078Y761088D01*
X763011Y761164D01*
X762946Y761242D01*
X762884Y761322D01*
X762826Y761405D01*
X762770Y761490D01*
X762718Y761577D01*
X762669Y761665D01*
X762623Y761756D01*
X762581Y761848D01*
X762542Y761941D01*
X762507Y762036D01*
X762475Y762133D01*
X762447Y762230D01*
X762423Y762328D01*
X762402Y762427D01*
X762385Y762527D01*
X762372Y762628D01*
X762363Y762729D01*
X762357Y762830D01*
X762355Y762931D01*
X762355Y768350D01*
X762357Y768451D01*
X762363Y768552D01*
X762372Y768653D01*
X762385Y768754D01*
X762402Y768854D01*
X762423Y768953D01*
X762447Y769051D01*
X762475Y769148D01*
X762507Y769245D01*
X762542Y769340D01*
X762581Y769433D01*
X762623Y769525D01*
X762669Y769616D01*
X762718Y769705D01*
X762770Y769791D01*
X762826Y769876D01*
X762884Y769959D01*
X762946Y770039D01*
X763011Y770117D01*
X763078Y770193D01*
X763148Y770266D01*
X763221Y770336D01*
X763297Y770403D01*
X763375Y770468D01*
X763455Y770530D01*
X763538Y770588D01*
X763623Y770644D01*
X763710Y770696D01*
X763798Y770745D01*
X763889Y770791D01*
X763981Y770833D01*
X764074Y770872D01*
X764169Y770907D01*
X764266Y770939D01*
X764363Y770967D01*
X764461Y770991D01*
X764560Y771012D01*
X764660Y771029D01*
X764761Y771042D01*
X764862Y771051D01*
X764963Y771057D01*
X765064Y771059D01*
X768676Y771059D01*
X774842Y776478D02*
X774842Y760222D01*
X774842Y771059D02*
X779358Y771059D01*
X779462Y771057D01*
X779565Y771051D01*
X779669Y771041D01*
X779772Y771027D01*
X779874Y771009D01*
X779975Y770988D01*
X780076Y770962D01*
X780175Y770933D01*
X780274Y770900D01*
X780371Y770863D01*
X780466Y770822D01*
X780560Y770778D01*
X780652Y770730D01*
X780742Y770679D01*
X780831Y770624D01*
X780917Y770566D01*
X781000Y770504D01*
X781082Y770440D01*
X781160Y770372D01*
X781236Y770302D01*
X781310Y770229D01*
X781380Y770152D01*
X781448Y770074D01*
X781512Y769992D01*
X781574Y769909D01*
X781632Y769823D01*
X781687Y769734D01*
X781738Y769644D01*
X781786Y769552D01*
X781830Y769458D01*
X781871Y769363D01*
X781908Y769266D01*
X781941Y769167D01*
X781970Y769068D01*
X781996Y768967D01*
X782017Y768866D01*
X782035Y768764D01*
X782049Y768661D01*
X782059Y768557D01*
X782065Y768454D01*
X782067Y768350D01*
X782067Y760222D01*
X576947Y719582D02*
X569722Y719582D01*
X569722Y735838D01*
X576947Y735838D01*
X575141Y728613D02*
X569722Y728613D01*
X583239Y735838D02*
X583239Y719582D01*
X592270Y719582D02*
X583239Y735838D01*
X592270Y735838D02*
X592270Y719582D01*
X606234Y728613D02*
X608944Y728613D01*
X608944Y719582D01*
X603525Y719582D01*
X603407Y719584D01*
X603289Y719590D01*
X603171Y719599D01*
X603054Y719613D01*
X602937Y719630D01*
X602820Y719651D01*
X602705Y719676D01*
X602590Y719705D01*
X602476Y719738D01*
X602364Y719774D01*
X602253Y719814D01*
X602143Y719857D01*
X602034Y719904D01*
X601927Y719954D01*
X601822Y720009D01*
X601719Y720066D01*
X601618Y720127D01*
X601518Y720191D01*
X601421Y720258D01*
X601326Y720328D01*
X601234Y720402D01*
X601143Y720478D01*
X601056Y720558D01*
X600971Y720640D01*
X600889Y720725D01*
X600809Y720812D01*
X600733Y720903D01*
X600659Y720995D01*
X600589Y721090D01*
X600522Y721187D01*
X600458Y721287D01*
X600397Y721388D01*
X600340Y721491D01*
X600285Y721596D01*
X600235Y721703D01*
X600188Y721812D01*
X600145Y721922D01*
X600105Y722033D01*
X600069Y722145D01*
X600036Y722259D01*
X600007Y722374D01*
X599982Y722489D01*
X599961Y722606D01*
X599944Y722723D01*
X599930Y722840D01*
X599921Y722958D01*
X599915Y723076D01*
X599913Y723194D01*
X599913Y732226D01*
X599915Y732344D01*
X599921Y732462D01*
X599930Y732580D01*
X599944Y732697D01*
X599961Y732814D01*
X599982Y732931D01*
X600007Y733046D01*
X600036Y733161D01*
X600069Y733275D01*
X600105Y733387D01*
X600145Y733498D01*
X600188Y733608D01*
X600235Y733717D01*
X600285Y733824D01*
X600339Y733929D01*
X600397Y734032D01*
X600458Y734133D01*
X600522Y734233D01*
X600589Y734330D01*
X600659Y734425D01*
X600733Y734517D01*
X600809Y734608D01*
X600889Y734695D01*
X600971Y734780D01*
X601056Y734862D01*
X601143Y734942D01*
X601234Y735018D01*
X601326Y735092D01*
X601421Y735162D01*
X601518Y735229D01*
X601618Y735293D01*
X601719Y735354D01*
X601822Y735411D01*
X601927Y735465D01*
X602034Y735516D01*
X602143Y735563D01*
X602253Y735606D01*
X602364Y735646D01*
X602476Y735682D01*
X602590Y735715D01*
X602705Y735744D01*
X602820Y735769D01*
X602937Y735790D01*
X603054Y735807D01*
X603171Y735821D01*
X603289Y735830D01*
X603407Y735836D01*
X603525Y735838D01*
X608944Y735838D01*
X617454Y735838D02*
X617454Y719582D01*
X615648Y719582D02*
X619260Y719582D01*
X619260Y735838D02*
X615648Y735838D01*
X633780Y719582D02*
X638296Y719582D01*
X638429Y719584D01*
X638561Y719590D01*
X638693Y719600D01*
X638825Y719613D01*
X638957Y719631D01*
X639087Y719652D01*
X639218Y719677D01*
X639347Y719706D01*
X639475Y719739D01*
X639603Y719775D01*
X639729Y719815D01*
X639854Y719859D01*
X639978Y719907D01*
X640100Y719958D01*
X640221Y720013D01*
X640340Y720071D01*
X640458Y720133D01*
X640573Y720198D01*
X640687Y720267D01*
X640798Y720338D01*
X640907Y720414D01*
X641014Y720492D01*
X641119Y720573D01*
X641221Y720658D01*
X641321Y720745D01*
X641418Y720835D01*
X641513Y720928D01*
X641604Y721024D01*
X641693Y721122D01*
X641779Y721223D01*
X641862Y721327D01*
X641942Y721433D01*
X642018Y721541D01*
X642092Y721651D01*
X642162Y721764D01*
X642229Y721878D01*
X642292Y721995D01*
X642352Y722113D01*
X642409Y722233D01*
X642462Y722355D01*
X642511Y722478D01*
X642557Y722602D01*
X642599Y722728D01*
X642637Y722855D01*
X642672Y722983D01*
X642703Y723112D01*
X642730Y723241D01*
X642753Y723372D01*
X642773Y723503D01*
X642788Y723635D01*
X642800Y723767D01*
X642808Y723899D01*
X642812Y724032D01*
X642812Y724164D01*
X642808Y724297D01*
X642800Y724429D01*
X642788Y724561D01*
X642773Y724693D01*
X642753Y724824D01*
X642730Y724955D01*
X642703Y725084D01*
X642672Y725213D01*
X642637Y725341D01*
X642599Y725468D01*
X642557Y725594D01*
X642511Y725718D01*
X642462Y725841D01*
X642409Y725963D01*
X642352Y726083D01*
X642292Y726201D01*
X642229Y726318D01*
X642162Y726432D01*
X642092Y726545D01*
X642018Y726655D01*
X641942Y726763D01*
X641862Y726869D01*
X641779Y726973D01*
X641693Y727074D01*
X641604Y727172D01*
X641513Y727268D01*
X641418Y727361D01*
X641321Y727451D01*
X641221Y727538D01*
X641119Y727623D01*
X641014Y727704D01*
X640907Y727782D01*
X640798Y727858D01*
X640687Y727929D01*
X640573Y727998D01*
X640458Y728063D01*
X640340Y728125D01*
X640221Y728183D01*
X640100Y728238D01*
X639978Y728289D01*
X639854Y728337D01*
X639729Y728381D01*
X639603Y728421D01*
X639475Y728457D01*
X639347Y728490D01*
X639218Y728519D01*
X639087Y728544D01*
X638957Y728565D01*
X638825Y728583D01*
X638693Y728596D01*
X638561Y728606D01*
X638429Y728612D01*
X638296Y728614D01*
X639199Y735838D02*
X633780Y735838D01*
X639199Y735838D02*
X639318Y735836D01*
X639438Y735830D01*
X639557Y735820D01*
X639675Y735806D01*
X639794Y735789D01*
X639911Y735767D01*
X640028Y735742D01*
X640143Y735712D01*
X640258Y735679D01*
X640372Y735642D01*
X640484Y735602D01*
X640595Y735557D01*
X640704Y735509D01*
X640812Y735458D01*
X640918Y735403D01*
X641022Y735344D01*
X641124Y735282D01*
X641224Y735217D01*
X641322Y735148D01*
X641418Y735076D01*
X641511Y735001D01*
X641601Y734924D01*
X641689Y734843D01*
X641774Y734759D01*
X641856Y734672D01*
X641936Y734583D01*
X642012Y734491D01*
X642086Y734397D01*
X642156Y734300D01*
X642223Y734202D01*
X642287Y734101D01*
X642347Y733997D01*
X642404Y733892D01*
X642457Y733785D01*
X642507Y733677D01*
X642553Y733567D01*
X642595Y733455D01*
X642634Y733342D01*
X642669Y733228D01*
X642700Y733113D01*
X642728Y732996D01*
X642751Y732879D01*
X642771Y732762D01*
X642787Y732643D01*
X642799Y732524D01*
X642807Y732405D01*
X642811Y732286D01*
X642811Y732166D01*
X642807Y732047D01*
X642799Y731928D01*
X642787Y731809D01*
X642771Y731690D01*
X642751Y731573D01*
X642728Y731456D01*
X642700Y731339D01*
X642669Y731224D01*
X642634Y731110D01*
X642595Y730997D01*
X642553Y730885D01*
X642507Y730775D01*
X642457Y730667D01*
X642404Y730560D01*
X642347Y730455D01*
X642287Y730351D01*
X642223Y730250D01*
X642156Y730152D01*
X642086Y730055D01*
X642012Y729961D01*
X641936Y729869D01*
X641856Y729780D01*
X641774Y729693D01*
X641689Y729609D01*
X641601Y729528D01*
X641511Y729451D01*
X641418Y729376D01*
X641322Y729304D01*
X641224Y729235D01*
X641124Y729170D01*
X641022Y729108D01*
X640918Y729049D01*
X640812Y728994D01*
X640704Y728943D01*
X640595Y728895D01*
X640484Y728850D01*
X640372Y728810D01*
X640258Y728773D01*
X640143Y728740D01*
X640028Y728710D01*
X639911Y728685D01*
X639794Y728663D01*
X639675Y728646D01*
X639557Y728632D01*
X639438Y728622D01*
X639318Y728616D01*
X639199Y728614D01*
X639199Y728613D02*
X635586Y728613D01*
X649412Y727710D02*
X649416Y728030D01*
X649427Y728349D01*
X649446Y728669D01*
X649473Y728987D01*
X649507Y729305D01*
X649549Y729622D01*
X649599Y729938D01*
X649656Y730253D01*
X649720Y730566D01*
X649792Y730878D01*
X649871Y731188D01*
X649958Y731495D01*
X650052Y731801D01*
X650153Y732104D01*
X650262Y732405D01*
X650377Y732703D01*
X650500Y732999D01*
X650630Y733291D01*
X650767Y733580D01*
X650766Y733581D02*
X650805Y733689D01*
X650848Y733796D01*
X650894Y733901D01*
X650945Y734005D01*
X650998Y734107D01*
X651055Y734207D01*
X651116Y734305D01*
X651180Y734400D01*
X651247Y734494D01*
X651318Y734585D01*
X651391Y734674D01*
X651468Y734760D01*
X651547Y734843D01*
X651629Y734924D01*
X651714Y735002D01*
X651802Y735076D01*
X651892Y735148D01*
X651984Y735216D01*
X652079Y735282D01*
X652176Y735344D01*
X652275Y735402D01*
X652377Y735458D01*
X652479Y735509D01*
X652584Y735557D01*
X652690Y735602D01*
X652798Y735643D01*
X652907Y735680D01*
X653017Y735713D01*
X653129Y735742D01*
X653241Y735768D01*
X653354Y735790D01*
X653468Y735807D01*
X653582Y735821D01*
X653697Y735831D01*
X653812Y735837D01*
X653927Y735839D01*
X653927Y735838D02*
X654042Y735836D01*
X654157Y735830D01*
X654272Y735820D01*
X654386Y735806D01*
X654500Y735789D01*
X654613Y735767D01*
X654725Y735741D01*
X654837Y735712D01*
X654947Y735679D01*
X655056Y735642D01*
X655164Y735601D01*
X655270Y735556D01*
X655375Y735508D01*
X655477Y735457D01*
X655578Y735401D01*
X655678Y735343D01*
X655775Y735281D01*
X655869Y735216D01*
X655962Y735147D01*
X656052Y735075D01*
X656140Y735001D01*
X656225Y734923D01*
X656307Y734842D01*
X656386Y734759D01*
X656463Y734673D01*
X656536Y734584D01*
X656607Y734493D01*
X656674Y734399D01*
X656738Y734304D01*
X656799Y734206D01*
X656856Y734106D01*
X656909Y734004D01*
X656960Y733900D01*
X657006Y733795D01*
X657049Y733688D01*
X657088Y733580D01*
X657087Y733580D02*
X657224Y733291D01*
X657354Y732999D01*
X657477Y732703D01*
X657592Y732405D01*
X657701Y732104D01*
X657802Y731801D01*
X657896Y731495D01*
X657983Y731188D01*
X658062Y730878D01*
X658134Y730566D01*
X658198Y730253D01*
X658255Y729938D01*
X658305Y729622D01*
X658347Y729305D01*
X658381Y728987D01*
X658408Y728669D01*
X658427Y728349D01*
X658438Y728030D01*
X658442Y727710D01*
X649412Y727710D02*
X649416Y727390D01*
X649427Y727071D01*
X649446Y726751D01*
X649473Y726433D01*
X649507Y726115D01*
X649549Y725798D01*
X649599Y725482D01*
X649656Y725167D01*
X649720Y724854D01*
X649792Y724542D01*
X649871Y724232D01*
X649958Y723925D01*
X650052Y723619D01*
X650153Y723316D01*
X650262Y723015D01*
X650377Y722717D01*
X650500Y722421D01*
X650630Y722129D01*
X650767Y721840D01*
X650766Y721840D02*
X650805Y721732D01*
X650848Y721625D01*
X650894Y721520D01*
X650945Y721416D01*
X650998Y721314D01*
X651055Y721214D01*
X651116Y721116D01*
X651180Y721021D01*
X651247Y720927D01*
X651318Y720836D01*
X651391Y720747D01*
X651468Y720661D01*
X651547Y720578D01*
X651629Y720497D01*
X651714Y720419D01*
X651802Y720345D01*
X651892Y720273D01*
X651985Y720204D01*
X652079Y720139D01*
X652176Y720077D01*
X652276Y720019D01*
X652377Y719963D01*
X652479Y719912D01*
X652584Y719864D01*
X652690Y719819D01*
X652798Y719778D01*
X652907Y719741D01*
X653017Y719708D01*
X653129Y719679D01*
X653241Y719653D01*
X653354Y719631D01*
X653468Y719614D01*
X653582Y719600D01*
X653697Y719590D01*
X653812Y719584D01*
X653927Y719582D01*
X657087Y721840D02*
X657224Y722129D01*
X657354Y722421D01*
X657477Y722717D01*
X657592Y723015D01*
X657701Y723316D01*
X657802Y723619D01*
X657896Y723925D01*
X657983Y724232D01*
X658062Y724542D01*
X658134Y724854D01*
X658198Y725167D01*
X658255Y725482D01*
X658305Y725798D01*
X658347Y726115D01*
X658381Y726433D01*
X658408Y726751D01*
X658427Y727071D01*
X658438Y727390D01*
X658442Y727710D01*
X657088Y721840D02*
X657049Y721732D01*
X657006Y721625D01*
X656960Y721520D01*
X656909Y721416D01*
X656856Y721314D01*
X656799Y721214D01*
X656738Y721116D01*
X656674Y721021D01*
X656607Y720927D01*
X656536Y720836D01*
X656463Y720747D01*
X656386Y720661D01*
X656307Y720578D01*
X656225Y720497D01*
X656140Y720419D01*
X656052Y720345D01*
X655962Y720273D01*
X655869Y720204D01*
X655775Y720139D01*
X655678Y720077D01*
X655578Y720019D01*
X655477Y719963D01*
X655374Y719912D01*
X655270Y719864D01*
X655164Y719819D01*
X655056Y719778D01*
X654947Y719741D01*
X654837Y719708D01*
X654725Y719679D01*
X654613Y719653D01*
X654500Y719631D01*
X654386Y719614D01*
X654272Y719600D01*
X654157Y719590D01*
X654042Y719584D01*
X653927Y719582D01*
X650315Y723194D02*
X657539Y732226D01*
X665043Y732226D02*
X669558Y735838D01*
X669558Y719582D01*
X665043Y719582D02*
X674074Y719582D01*
X689743Y719582D02*
X689743Y735838D01*
X694258Y735838D01*
X694391Y735836D01*
X694523Y735830D01*
X694655Y735820D01*
X694787Y735807D01*
X694919Y735789D01*
X695049Y735768D01*
X695180Y735743D01*
X695309Y735714D01*
X695437Y735681D01*
X695565Y735645D01*
X695691Y735605D01*
X695816Y735561D01*
X695940Y735513D01*
X696062Y735462D01*
X696183Y735407D01*
X696302Y735349D01*
X696420Y735287D01*
X696535Y735222D01*
X696649Y735153D01*
X696760Y735082D01*
X696869Y735006D01*
X696976Y734928D01*
X697081Y734847D01*
X697183Y734762D01*
X697283Y734675D01*
X697380Y734585D01*
X697475Y734492D01*
X697566Y734396D01*
X697655Y734298D01*
X697741Y734197D01*
X697824Y734093D01*
X697904Y733987D01*
X697980Y733879D01*
X698054Y733769D01*
X698124Y733656D01*
X698191Y733542D01*
X698254Y733425D01*
X698314Y733307D01*
X698371Y733187D01*
X698424Y733065D01*
X698473Y732942D01*
X698519Y732818D01*
X698561Y732692D01*
X698599Y732565D01*
X698634Y732437D01*
X698665Y732308D01*
X698692Y732179D01*
X698715Y732048D01*
X698735Y731917D01*
X698750Y731785D01*
X698762Y731653D01*
X698770Y731521D01*
X698774Y731388D01*
X698774Y731256D01*
X698770Y731123D01*
X698762Y730991D01*
X698750Y730859D01*
X698735Y730727D01*
X698715Y730596D01*
X698692Y730465D01*
X698665Y730336D01*
X698634Y730207D01*
X698599Y730079D01*
X698561Y729952D01*
X698519Y729826D01*
X698473Y729702D01*
X698424Y729579D01*
X698371Y729457D01*
X698314Y729337D01*
X698254Y729219D01*
X698191Y729102D01*
X698124Y728988D01*
X698054Y728875D01*
X697980Y728765D01*
X697904Y728657D01*
X697824Y728551D01*
X697741Y728447D01*
X697655Y728346D01*
X697566Y728248D01*
X697475Y728152D01*
X697380Y728059D01*
X697283Y727969D01*
X697183Y727882D01*
X697081Y727797D01*
X696976Y727716D01*
X696869Y727638D01*
X696760Y727562D01*
X696649Y727491D01*
X696535Y727422D01*
X696420Y727357D01*
X696302Y727295D01*
X696183Y727237D01*
X696062Y727182D01*
X695940Y727131D01*
X695816Y727083D01*
X695691Y727039D01*
X695565Y726999D01*
X695437Y726963D01*
X695309Y726930D01*
X695180Y726901D01*
X695049Y726876D01*
X694919Y726855D01*
X694787Y726837D01*
X694655Y726824D01*
X694523Y726814D01*
X694391Y726808D01*
X694258Y726806D01*
X694258Y726807D02*
X689743Y726807D01*
X705109Y730419D02*
X705109Y719582D01*
X705109Y730419D02*
X710527Y730419D01*
X710527Y728613D01*
X715445Y726807D02*
X715445Y723194D01*
X715445Y726807D02*
X715447Y726926D01*
X715453Y727046D01*
X715463Y727165D01*
X715477Y727283D01*
X715494Y727402D01*
X715516Y727519D01*
X715541Y727636D01*
X715571Y727751D01*
X715604Y727866D01*
X715641Y727980D01*
X715681Y728092D01*
X715726Y728203D01*
X715774Y728312D01*
X715825Y728420D01*
X715880Y728526D01*
X715939Y728630D01*
X716001Y728732D01*
X716066Y728832D01*
X716135Y728930D01*
X716207Y729026D01*
X716282Y729119D01*
X716359Y729209D01*
X716440Y729297D01*
X716524Y729382D01*
X716611Y729464D01*
X716700Y729544D01*
X716792Y729620D01*
X716886Y729694D01*
X716983Y729764D01*
X717081Y729831D01*
X717182Y729895D01*
X717286Y729955D01*
X717391Y730012D01*
X717498Y730065D01*
X717606Y730115D01*
X717716Y730161D01*
X717828Y730203D01*
X717941Y730242D01*
X718055Y730277D01*
X718170Y730308D01*
X718287Y730336D01*
X718404Y730359D01*
X718521Y730379D01*
X718640Y730395D01*
X718759Y730407D01*
X718878Y730415D01*
X718997Y730419D01*
X719117Y730419D01*
X719236Y730415D01*
X719355Y730407D01*
X719474Y730395D01*
X719593Y730379D01*
X719710Y730359D01*
X719827Y730336D01*
X719944Y730308D01*
X720059Y730277D01*
X720173Y730242D01*
X720286Y730203D01*
X720398Y730161D01*
X720508Y730115D01*
X720616Y730065D01*
X720723Y730012D01*
X720828Y729955D01*
X720932Y729895D01*
X721033Y729831D01*
X721131Y729764D01*
X721228Y729694D01*
X721322Y729620D01*
X721414Y729544D01*
X721503Y729464D01*
X721590Y729382D01*
X721674Y729297D01*
X721755Y729209D01*
X721832Y729119D01*
X721907Y729026D01*
X721979Y728930D01*
X722048Y728832D01*
X722113Y728732D01*
X722175Y728630D01*
X722234Y728526D01*
X722289Y728420D01*
X722340Y728312D01*
X722388Y728203D01*
X722433Y728092D01*
X722473Y727980D01*
X722510Y727866D01*
X722543Y727751D01*
X722573Y727636D01*
X722598Y727519D01*
X722620Y727402D01*
X722637Y727283D01*
X722651Y727165D01*
X722661Y727046D01*
X722667Y726926D01*
X722669Y726807D01*
X722670Y726807D02*
X722670Y723194D01*
X722669Y723194D02*
X722667Y723075D01*
X722661Y722955D01*
X722651Y722836D01*
X722637Y722718D01*
X722620Y722599D01*
X722598Y722482D01*
X722573Y722365D01*
X722543Y722250D01*
X722510Y722135D01*
X722473Y722021D01*
X722433Y721909D01*
X722388Y721798D01*
X722340Y721689D01*
X722289Y721581D01*
X722234Y721475D01*
X722175Y721371D01*
X722113Y721269D01*
X722048Y721169D01*
X721979Y721071D01*
X721907Y720975D01*
X721832Y720882D01*
X721755Y720792D01*
X721674Y720704D01*
X721590Y720619D01*
X721503Y720537D01*
X721414Y720457D01*
X721322Y720381D01*
X721228Y720307D01*
X721131Y720237D01*
X721033Y720170D01*
X720932Y720106D01*
X720828Y720046D01*
X720723Y719989D01*
X720616Y719936D01*
X720508Y719886D01*
X720398Y719840D01*
X720286Y719798D01*
X720173Y719759D01*
X720059Y719724D01*
X719944Y719693D01*
X719827Y719665D01*
X719710Y719642D01*
X719593Y719622D01*
X719474Y719606D01*
X719355Y719594D01*
X719236Y719586D01*
X719117Y719582D01*
X718997Y719582D01*
X718878Y719586D01*
X718759Y719594D01*
X718640Y719606D01*
X718521Y719622D01*
X718404Y719642D01*
X718287Y719665D01*
X718170Y719693D01*
X718055Y719724D01*
X717941Y719759D01*
X717828Y719798D01*
X717716Y719840D01*
X717606Y719886D01*
X717498Y719936D01*
X717391Y719989D01*
X717286Y720046D01*
X717182Y720106D01*
X717081Y720170D01*
X716983Y720237D01*
X716886Y720307D01*
X716792Y720381D01*
X716700Y720457D01*
X716611Y720537D01*
X716524Y720619D01*
X716440Y720704D01*
X716359Y720792D01*
X716282Y720882D01*
X716207Y720975D01*
X716135Y721071D01*
X716066Y721169D01*
X716001Y721269D01*
X715939Y721371D01*
X715880Y721475D01*
X715825Y721581D01*
X715774Y721689D01*
X715726Y721798D01*
X715681Y721909D01*
X715641Y722021D01*
X715604Y722135D01*
X715571Y722250D01*
X715541Y722365D01*
X715516Y722482D01*
X715494Y722599D01*
X715477Y722718D01*
X715463Y722836D01*
X715453Y722955D01*
X715447Y723075D01*
X715445Y723194D01*
X728714Y716873D02*
X728714Y730419D01*
X728713Y716873D02*
X728711Y716769D01*
X728705Y716666D01*
X728695Y716562D01*
X728681Y716459D01*
X728663Y716357D01*
X728642Y716256D01*
X728616Y716155D01*
X728587Y716056D01*
X728554Y715957D01*
X728517Y715860D01*
X728476Y715765D01*
X728432Y715671D01*
X728384Y715579D01*
X728333Y715489D01*
X728278Y715400D01*
X728220Y715314D01*
X728158Y715231D01*
X728094Y715149D01*
X728026Y715071D01*
X727956Y714995D01*
X727883Y714921D01*
X727806Y714851D01*
X727728Y714783D01*
X727646Y714719D01*
X727563Y714657D01*
X727477Y714599D01*
X727388Y714544D01*
X727298Y714493D01*
X727206Y714445D01*
X727112Y714401D01*
X727017Y714360D01*
X726920Y714323D01*
X726821Y714290D01*
X726722Y714261D01*
X726621Y714235D01*
X726520Y714214D01*
X726418Y714196D01*
X726315Y714182D01*
X726211Y714172D01*
X726108Y714166D01*
X726004Y714164D01*
X726004Y714163D02*
X725101Y714163D01*
X728262Y734935D02*
X728262Y735838D01*
X729165Y735838D01*
X729165Y734935D01*
X728262Y734935D01*
X737954Y719582D02*
X742469Y719582D01*
X737954Y719582D02*
X737853Y719584D01*
X737752Y719590D01*
X737651Y719599D01*
X737550Y719612D01*
X737450Y719629D01*
X737351Y719650D01*
X737253Y719674D01*
X737156Y719702D01*
X737059Y719734D01*
X736964Y719769D01*
X736871Y719808D01*
X736779Y719850D01*
X736688Y719896D01*
X736600Y719945D01*
X736513Y719997D01*
X736428Y720053D01*
X736345Y720111D01*
X736265Y720173D01*
X736187Y720238D01*
X736111Y720305D01*
X736038Y720375D01*
X735968Y720448D01*
X735901Y720524D01*
X735836Y720602D01*
X735774Y720682D01*
X735716Y720765D01*
X735660Y720850D01*
X735608Y720937D01*
X735559Y721025D01*
X735513Y721116D01*
X735471Y721208D01*
X735432Y721301D01*
X735397Y721396D01*
X735365Y721493D01*
X735337Y721590D01*
X735313Y721688D01*
X735292Y721787D01*
X735275Y721887D01*
X735262Y721988D01*
X735253Y722089D01*
X735247Y722190D01*
X735245Y722291D01*
X735244Y722291D02*
X735244Y726807D01*
X735245Y726807D02*
X735247Y726926D01*
X735253Y727046D01*
X735263Y727165D01*
X735277Y727283D01*
X735294Y727402D01*
X735316Y727519D01*
X735341Y727636D01*
X735371Y727751D01*
X735404Y727866D01*
X735441Y727980D01*
X735481Y728092D01*
X735526Y728203D01*
X735574Y728312D01*
X735625Y728420D01*
X735680Y728526D01*
X735739Y728630D01*
X735801Y728732D01*
X735866Y728832D01*
X735935Y728930D01*
X736007Y729026D01*
X736082Y729119D01*
X736159Y729209D01*
X736240Y729297D01*
X736324Y729382D01*
X736411Y729464D01*
X736500Y729544D01*
X736592Y729620D01*
X736686Y729694D01*
X736783Y729764D01*
X736881Y729831D01*
X736982Y729895D01*
X737086Y729955D01*
X737191Y730012D01*
X737298Y730065D01*
X737406Y730115D01*
X737516Y730161D01*
X737628Y730203D01*
X737741Y730242D01*
X737855Y730277D01*
X737970Y730308D01*
X738087Y730336D01*
X738204Y730359D01*
X738321Y730379D01*
X738440Y730395D01*
X738559Y730407D01*
X738678Y730415D01*
X738797Y730419D01*
X738917Y730419D01*
X739036Y730415D01*
X739155Y730407D01*
X739274Y730395D01*
X739393Y730379D01*
X739510Y730359D01*
X739627Y730336D01*
X739744Y730308D01*
X739859Y730277D01*
X739973Y730242D01*
X740086Y730203D01*
X740198Y730161D01*
X740308Y730115D01*
X740416Y730065D01*
X740523Y730012D01*
X740628Y729955D01*
X740732Y729895D01*
X740833Y729831D01*
X740931Y729764D01*
X741028Y729694D01*
X741122Y729620D01*
X741214Y729544D01*
X741303Y729464D01*
X741390Y729382D01*
X741474Y729297D01*
X741555Y729209D01*
X741632Y729119D01*
X741707Y729026D01*
X741779Y728930D01*
X741848Y728832D01*
X741913Y728732D01*
X741975Y728630D01*
X742034Y728526D01*
X742089Y728420D01*
X742140Y728312D01*
X742188Y728203D01*
X742233Y728092D01*
X742273Y727980D01*
X742310Y727866D01*
X742343Y727751D01*
X742373Y727636D01*
X742398Y727519D01*
X742420Y727402D01*
X742437Y727283D01*
X742451Y727165D01*
X742461Y727046D01*
X742467Y726926D01*
X742469Y726807D01*
X742469Y725001D01*
X735244Y725001D01*
X751518Y719582D02*
X755131Y719582D01*
X751518Y719582D02*
X751417Y719584D01*
X751316Y719590D01*
X751215Y719599D01*
X751114Y719612D01*
X751014Y719629D01*
X750915Y719650D01*
X750817Y719674D01*
X750720Y719702D01*
X750623Y719734D01*
X750528Y719769D01*
X750435Y719808D01*
X750343Y719850D01*
X750252Y719896D01*
X750164Y719945D01*
X750077Y719997D01*
X749992Y720053D01*
X749909Y720111D01*
X749829Y720173D01*
X749751Y720238D01*
X749675Y720305D01*
X749602Y720375D01*
X749532Y720448D01*
X749465Y720524D01*
X749400Y720602D01*
X749338Y720682D01*
X749280Y720765D01*
X749224Y720850D01*
X749172Y720937D01*
X749123Y721025D01*
X749077Y721116D01*
X749035Y721208D01*
X748996Y721301D01*
X748961Y721396D01*
X748929Y721493D01*
X748901Y721590D01*
X748877Y721688D01*
X748856Y721787D01*
X748839Y721887D01*
X748826Y721988D01*
X748817Y722089D01*
X748811Y722190D01*
X748809Y722291D01*
X748809Y727710D01*
X748811Y727811D01*
X748817Y727912D01*
X748826Y728013D01*
X748839Y728114D01*
X748856Y728214D01*
X748877Y728313D01*
X748901Y728411D01*
X748929Y728508D01*
X748961Y728605D01*
X748996Y728700D01*
X749035Y728793D01*
X749077Y728885D01*
X749123Y728976D01*
X749172Y729065D01*
X749224Y729151D01*
X749280Y729236D01*
X749338Y729319D01*
X749400Y729399D01*
X749465Y729477D01*
X749532Y729553D01*
X749602Y729626D01*
X749675Y729696D01*
X749751Y729763D01*
X749829Y729828D01*
X749909Y729890D01*
X749992Y729948D01*
X750077Y730004D01*
X750164Y730056D01*
X750252Y730105D01*
X750343Y730151D01*
X750435Y730193D01*
X750528Y730232D01*
X750623Y730267D01*
X750720Y730299D01*
X750817Y730327D01*
X750915Y730351D01*
X751014Y730372D01*
X751114Y730389D01*
X751215Y730402D01*
X751316Y730411D01*
X751417Y730417D01*
X751518Y730419D01*
X755131Y730419D01*
X759478Y730419D02*
X764897Y730419D01*
X761284Y735838D02*
X761284Y722291D01*
X761286Y722190D01*
X761292Y722089D01*
X761301Y721988D01*
X761314Y721887D01*
X761331Y721787D01*
X761352Y721688D01*
X761376Y721590D01*
X761404Y721493D01*
X761436Y721396D01*
X761471Y721301D01*
X761510Y721208D01*
X761552Y721116D01*
X761598Y721025D01*
X761647Y720937D01*
X761699Y720850D01*
X761755Y720765D01*
X761813Y720682D01*
X761875Y720602D01*
X761940Y720524D01*
X762007Y720448D01*
X762077Y720375D01*
X762150Y720305D01*
X762226Y720238D01*
X762304Y720173D01*
X762384Y720111D01*
X762467Y720053D01*
X762552Y719997D01*
X762639Y719945D01*
X762727Y719896D01*
X762818Y719850D01*
X762910Y719808D01*
X763003Y719769D01*
X763098Y719734D01*
X763195Y719702D01*
X763292Y719674D01*
X763390Y719650D01*
X763489Y719629D01*
X763589Y719612D01*
X763690Y719599D01*
X763791Y719590D01*
X763892Y719584D01*
X763993Y719582D01*
X764897Y719582D01*
X784118Y735838D02*
X784243Y735836D01*
X784368Y735830D01*
X784493Y735821D01*
X784617Y735807D01*
X784741Y735790D01*
X784865Y735769D01*
X784987Y735744D01*
X785109Y735715D01*
X785230Y735683D01*
X785350Y735647D01*
X785469Y735607D01*
X785586Y735564D01*
X785702Y735517D01*
X785817Y735466D01*
X785929Y735412D01*
X786041Y735354D01*
X786150Y735294D01*
X786257Y735229D01*
X786363Y735162D01*
X786466Y735091D01*
X786567Y735017D01*
X786666Y734940D01*
X786762Y734860D01*
X786856Y734777D01*
X786947Y734692D01*
X787036Y734603D01*
X787121Y734512D01*
X787204Y734418D01*
X787284Y734322D01*
X787361Y734223D01*
X787435Y734122D01*
X787506Y734019D01*
X787573Y733913D01*
X787638Y733806D01*
X787698Y733697D01*
X787756Y733585D01*
X787810Y733473D01*
X787861Y733358D01*
X787908Y733242D01*
X787951Y733125D01*
X787991Y733006D01*
X788027Y732886D01*
X788059Y732765D01*
X788088Y732643D01*
X788113Y732521D01*
X788134Y732397D01*
X788151Y732273D01*
X788165Y732149D01*
X788174Y732024D01*
X788180Y731899D01*
X788182Y731774D01*
X784118Y735838D02*
X783975Y735836D01*
X783833Y735830D01*
X783690Y735820D01*
X783548Y735807D01*
X783407Y735789D01*
X783265Y735768D01*
X783125Y735743D01*
X782985Y735714D01*
X782846Y735681D01*
X782708Y735644D01*
X782571Y735604D01*
X782436Y735560D01*
X782301Y735512D01*
X782168Y735460D01*
X782036Y735405D01*
X781906Y735346D01*
X781778Y735284D01*
X781651Y735218D01*
X781526Y735149D01*
X781403Y735077D01*
X781283Y735001D01*
X781164Y734922D01*
X781047Y734839D01*
X780933Y734754D01*
X780821Y734665D01*
X780712Y734574D01*
X780605Y734479D01*
X780500Y734382D01*
X780399Y734281D01*
X780300Y734178D01*
X780204Y734073D01*
X780111Y733964D01*
X780021Y733853D01*
X779934Y733740D01*
X779850Y733625D01*
X779770Y733507D01*
X779692Y733387D01*
X779618Y733265D01*
X779548Y733141D01*
X779480Y733015D01*
X779417Y732887D01*
X779356Y732758D01*
X779299Y732627D01*
X779246Y732495D01*
X779197Y732361D01*
X779151Y732226D01*
X786827Y728613D02*
X786921Y728705D01*
X787011Y728799D01*
X787099Y728896D01*
X787184Y728996D01*
X787266Y729098D01*
X787345Y729203D01*
X787420Y729310D01*
X787492Y729419D01*
X787561Y729530D01*
X787627Y729644D01*
X787689Y729759D01*
X787748Y729876D01*
X787803Y729995D01*
X787854Y730115D01*
X787902Y730237D01*
X787947Y730360D01*
X787987Y730484D01*
X788024Y730610D01*
X788057Y730737D01*
X788086Y730864D01*
X788112Y730993D01*
X788133Y731122D01*
X788151Y731252D01*
X788164Y731382D01*
X788174Y731512D01*
X788180Y731643D01*
X788182Y731774D01*
X786827Y728613D02*
X779151Y719582D01*
X788182Y719582D01*
X633222Y697738D02*
X633222Y681482D01*
X633222Y697738D02*
X637738Y697738D01*
X637871Y697736D01*
X638003Y697730D01*
X638135Y697720D01*
X638267Y697707D01*
X638399Y697689D01*
X638529Y697668D01*
X638660Y697643D01*
X638789Y697614D01*
X638917Y697581D01*
X639045Y697545D01*
X639171Y697505D01*
X639296Y697461D01*
X639420Y697413D01*
X639542Y697362D01*
X639663Y697307D01*
X639782Y697249D01*
X639900Y697187D01*
X640015Y697122D01*
X640129Y697053D01*
X640240Y696982D01*
X640349Y696906D01*
X640456Y696828D01*
X640561Y696747D01*
X640663Y696662D01*
X640763Y696575D01*
X640860Y696485D01*
X640955Y696392D01*
X641046Y696296D01*
X641135Y696198D01*
X641221Y696097D01*
X641304Y695993D01*
X641384Y695887D01*
X641460Y695779D01*
X641534Y695669D01*
X641604Y695556D01*
X641671Y695442D01*
X641734Y695325D01*
X641794Y695207D01*
X641851Y695087D01*
X641904Y694965D01*
X641953Y694842D01*
X641999Y694718D01*
X642041Y694592D01*
X642079Y694465D01*
X642114Y694337D01*
X642145Y694208D01*
X642172Y694079D01*
X642195Y693948D01*
X642215Y693817D01*
X642230Y693685D01*
X642242Y693553D01*
X642250Y693421D01*
X642254Y693288D01*
X642254Y693156D01*
X642250Y693023D01*
X642242Y692891D01*
X642230Y692759D01*
X642215Y692627D01*
X642195Y692496D01*
X642172Y692365D01*
X642145Y692236D01*
X642114Y692107D01*
X642079Y691979D01*
X642041Y691852D01*
X641999Y691726D01*
X641953Y691602D01*
X641904Y691479D01*
X641851Y691357D01*
X641794Y691237D01*
X641734Y691119D01*
X641671Y691002D01*
X641604Y690888D01*
X641534Y690775D01*
X641460Y690665D01*
X641384Y690557D01*
X641304Y690451D01*
X641221Y690347D01*
X641135Y690246D01*
X641046Y690148D01*
X640955Y690052D01*
X640860Y689959D01*
X640763Y689869D01*
X640663Y689782D01*
X640561Y689697D01*
X640456Y689616D01*
X640349Y689538D01*
X640240Y689462D01*
X640129Y689391D01*
X640015Y689322D01*
X639900Y689257D01*
X639782Y689195D01*
X639663Y689137D01*
X639542Y689082D01*
X639420Y689031D01*
X639296Y688983D01*
X639171Y688939D01*
X639045Y688899D01*
X638917Y688863D01*
X638789Y688830D01*
X638660Y688801D01*
X638529Y688776D01*
X638399Y688755D01*
X638267Y688737D01*
X638135Y688724D01*
X638003Y688714D01*
X637871Y688708D01*
X637738Y688706D01*
X637738Y688707D02*
X633222Y688707D01*
X638641Y688707D02*
X642253Y681482D01*
X648623Y685094D02*
X648623Y688707D01*
X648625Y688826D01*
X648631Y688946D01*
X648641Y689065D01*
X648655Y689183D01*
X648672Y689302D01*
X648694Y689419D01*
X648719Y689536D01*
X648749Y689651D01*
X648782Y689766D01*
X648819Y689880D01*
X648859Y689992D01*
X648904Y690103D01*
X648952Y690212D01*
X649003Y690320D01*
X649058Y690426D01*
X649117Y690530D01*
X649179Y690632D01*
X649244Y690732D01*
X649313Y690830D01*
X649385Y690926D01*
X649460Y691019D01*
X649537Y691109D01*
X649618Y691197D01*
X649702Y691282D01*
X649789Y691364D01*
X649878Y691444D01*
X649970Y691520D01*
X650064Y691594D01*
X650161Y691664D01*
X650259Y691731D01*
X650360Y691795D01*
X650464Y691855D01*
X650569Y691912D01*
X650676Y691965D01*
X650784Y692015D01*
X650894Y692061D01*
X651006Y692103D01*
X651119Y692142D01*
X651233Y692177D01*
X651348Y692208D01*
X651465Y692236D01*
X651582Y692259D01*
X651699Y692279D01*
X651818Y692295D01*
X651937Y692307D01*
X652056Y692315D01*
X652175Y692319D01*
X652295Y692319D01*
X652414Y692315D01*
X652533Y692307D01*
X652652Y692295D01*
X652771Y692279D01*
X652888Y692259D01*
X653005Y692236D01*
X653122Y692208D01*
X653237Y692177D01*
X653351Y692142D01*
X653464Y692103D01*
X653576Y692061D01*
X653686Y692015D01*
X653794Y691965D01*
X653901Y691912D01*
X654006Y691855D01*
X654110Y691795D01*
X654211Y691731D01*
X654309Y691664D01*
X654406Y691594D01*
X654500Y691520D01*
X654592Y691444D01*
X654681Y691364D01*
X654768Y691282D01*
X654852Y691197D01*
X654933Y691109D01*
X655010Y691019D01*
X655085Y690926D01*
X655157Y690830D01*
X655226Y690732D01*
X655291Y690632D01*
X655353Y690530D01*
X655412Y690426D01*
X655467Y690320D01*
X655518Y690212D01*
X655566Y690103D01*
X655611Y689992D01*
X655651Y689880D01*
X655688Y689766D01*
X655721Y689651D01*
X655751Y689536D01*
X655776Y689419D01*
X655798Y689302D01*
X655815Y689183D01*
X655829Y689065D01*
X655839Y688946D01*
X655845Y688826D01*
X655847Y688707D01*
X655848Y688707D02*
X655848Y685094D01*
X655847Y685094D02*
X655845Y684975D01*
X655839Y684855D01*
X655829Y684736D01*
X655815Y684618D01*
X655798Y684499D01*
X655776Y684382D01*
X655751Y684265D01*
X655721Y684150D01*
X655688Y684035D01*
X655651Y683921D01*
X655611Y683809D01*
X655566Y683698D01*
X655518Y683589D01*
X655467Y683481D01*
X655412Y683375D01*
X655353Y683271D01*
X655291Y683169D01*
X655226Y683069D01*
X655157Y682971D01*
X655085Y682875D01*
X655010Y682782D01*
X654933Y682692D01*
X654852Y682604D01*
X654768Y682519D01*
X654681Y682437D01*
X654592Y682357D01*
X654500Y682281D01*
X654406Y682207D01*
X654309Y682137D01*
X654211Y682070D01*
X654110Y682006D01*
X654006Y681946D01*
X653901Y681889D01*
X653794Y681836D01*
X653686Y681786D01*
X653576Y681740D01*
X653464Y681698D01*
X653351Y681659D01*
X653237Y681624D01*
X653122Y681593D01*
X653005Y681565D01*
X652888Y681542D01*
X652771Y681522D01*
X652652Y681506D01*
X652533Y681494D01*
X652414Y681486D01*
X652295Y681482D01*
X652175Y681482D01*
X652056Y681486D01*
X651937Y681494D01*
X651818Y681506D01*
X651699Y681522D01*
X651582Y681542D01*
X651465Y681565D01*
X651348Y681593D01*
X651233Y681624D01*
X651119Y681659D01*
X651006Y681698D01*
X650894Y681740D01*
X650784Y681786D01*
X650676Y681836D01*
X650569Y681889D01*
X650464Y681946D01*
X650360Y682006D01*
X650259Y682070D01*
X650161Y682137D01*
X650064Y682207D01*
X649970Y682281D01*
X649878Y682357D01*
X649789Y682437D01*
X649702Y682519D01*
X649618Y682604D01*
X649537Y682692D01*
X649460Y682782D01*
X649385Y682875D01*
X649313Y682971D01*
X649244Y683069D01*
X649179Y683169D01*
X649117Y683271D01*
X649058Y683375D01*
X649003Y683481D01*
X648952Y683589D01*
X648904Y683698D01*
X648859Y683809D01*
X648819Y683921D01*
X648782Y684035D01*
X648749Y684150D01*
X648719Y684265D01*
X648694Y684382D01*
X648672Y684499D01*
X648655Y684618D01*
X648641Y684736D01*
X648631Y684855D01*
X648625Y684975D01*
X648623Y685094D01*
X662764Y681482D02*
X662764Y697738D01*
X662764Y681482D02*
X667280Y681482D01*
X667384Y681484D01*
X667487Y681490D01*
X667591Y681500D01*
X667694Y681514D01*
X667796Y681532D01*
X667897Y681553D01*
X667998Y681579D01*
X668097Y681608D01*
X668196Y681641D01*
X668293Y681678D01*
X668388Y681719D01*
X668482Y681763D01*
X668574Y681811D01*
X668664Y681862D01*
X668753Y681917D01*
X668839Y681975D01*
X668922Y682037D01*
X669004Y682101D01*
X669082Y682169D01*
X669158Y682239D01*
X669232Y682312D01*
X669302Y682389D01*
X669370Y682467D01*
X669434Y682549D01*
X669496Y682632D01*
X669554Y682718D01*
X669609Y682807D01*
X669660Y682897D01*
X669708Y682989D01*
X669752Y683083D01*
X669793Y683178D01*
X669830Y683275D01*
X669863Y683374D01*
X669892Y683473D01*
X669918Y683574D01*
X669939Y683675D01*
X669957Y683777D01*
X669971Y683880D01*
X669981Y683984D01*
X669987Y684087D01*
X669989Y684191D01*
X669989Y689610D01*
X669987Y689711D01*
X669981Y689812D01*
X669972Y689913D01*
X669959Y690014D01*
X669942Y690114D01*
X669921Y690213D01*
X669897Y690311D01*
X669869Y690408D01*
X669837Y690505D01*
X669802Y690600D01*
X669763Y690693D01*
X669721Y690785D01*
X669675Y690876D01*
X669626Y690965D01*
X669574Y691051D01*
X669518Y691136D01*
X669460Y691219D01*
X669398Y691299D01*
X669333Y691377D01*
X669266Y691453D01*
X669196Y691526D01*
X669123Y691596D01*
X669047Y691663D01*
X668969Y691728D01*
X668889Y691790D01*
X668806Y691848D01*
X668721Y691904D01*
X668635Y691956D01*
X668546Y692005D01*
X668455Y692051D01*
X668363Y692093D01*
X668270Y692132D01*
X668175Y692167D01*
X668078Y692199D01*
X667981Y692227D01*
X667883Y692251D01*
X667784Y692272D01*
X667684Y692289D01*
X667583Y692302D01*
X667482Y692311D01*
X667381Y692317D01*
X667280Y692319D01*
X662764Y692319D01*
X678947Y681482D02*
X683463Y681482D01*
X678947Y681482D02*
X678846Y681484D01*
X678745Y681490D01*
X678644Y681499D01*
X678543Y681512D01*
X678443Y681529D01*
X678344Y681550D01*
X678246Y681574D01*
X678149Y681602D01*
X678052Y681634D01*
X677957Y681669D01*
X677864Y681708D01*
X677772Y681750D01*
X677681Y681796D01*
X677593Y681845D01*
X677506Y681897D01*
X677421Y681953D01*
X677338Y682011D01*
X677258Y682073D01*
X677180Y682138D01*
X677104Y682205D01*
X677031Y682275D01*
X676961Y682348D01*
X676894Y682424D01*
X676829Y682502D01*
X676767Y682582D01*
X676709Y682665D01*
X676653Y682750D01*
X676601Y682837D01*
X676552Y682925D01*
X676506Y683016D01*
X676464Y683108D01*
X676425Y683201D01*
X676390Y683296D01*
X676358Y683393D01*
X676330Y683490D01*
X676306Y683588D01*
X676285Y683687D01*
X676268Y683787D01*
X676255Y683888D01*
X676246Y683989D01*
X676240Y684090D01*
X676238Y684191D01*
X676238Y688707D01*
X676240Y688826D01*
X676246Y688946D01*
X676256Y689065D01*
X676270Y689183D01*
X676287Y689302D01*
X676309Y689419D01*
X676334Y689536D01*
X676364Y689651D01*
X676397Y689766D01*
X676434Y689880D01*
X676474Y689992D01*
X676519Y690103D01*
X676567Y690212D01*
X676618Y690320D01*
X676673Y690426D01*
X676732Y690530D01*
X676794Y690632D01*
X676859Y690732D01*
X676928Y690830D01*
X677000Y690926D01*
X677075Y691019D01*
X677152Y691109D01*
X677233Y691197D01*
X677317Y691282D01*
X677404Y691364D01*
X677493Y691444D01*
X677585Y691520D01*
X677679Y691594D01*
X677776Y691664D01*
X677874Y691731D01*
X677975Y691795D01*
X678079Y691855D01*
X678184Y691912D01*
X678291Y691965D01*
X678399Y692015D01*
X678509Y692061D01*
X678621Y692103D01*
X678734Y692142D01*
X678848Y692177D01*
X678963Y692208D01*
X679080Y692236D01*
X679197Y692259D01*
X679314Y692279D01*
X679433Y692295D01*
X679552Y692307D01*
X679671Y692315D01*
X679790Y692319D01*
X679910Y692319D01*
X680029Y692315D01*
X680148Y692307D01*
X680267Y692295D01*
X680386Y692279D01*
X680503Y692259D01*
X680620Y692236D01*
X680737Y692208D01*
X680852Y692177D01*
X680966Y692142D01*
X681079Y692103D01*
X681191Y692061D01*
X681301Y692015D01*
X681409Y691965D01*
X681516Y691912D01*
X681621Y691855D01*
X681725Y691795D01*
X681826Y691731D01*
X681924Y691664D01*
X682021Y691594D01*
X682115Y691520D01*
X682207Y691444D01*
X682296Y691364D01*
X682383Y691282D01*
X682467Y691197D01*
X682548Y691109D01*
X682625Y691019D01*
X682700Y690926D01*
X682772Y690830D01*
X682841Y690732D01*
X682906Y690632D01*
X682968Y690530D01*
X683027Y690426D01*
X683082Y690320D01*
X683133Y690212D01*
X683181Y690103D01*
X683226Y689992D01*
X683266Y689880D01*
X683303Y689766D01*
X683336Y689651D01*
X683366Y689536D01*
X683391Y689419D01*
X683413Y689302D01*
X683430Y689183D01*
X683444Y689065D01*
X683454Y688946D01*
X683460Y688826D01*
X683462Y688707D01*
X683463Y688707D02*
X683463Y686901D01*
X676238Y686901D01*
X690391Y681482D02*
X690391Y692319D01*
X695809Y692319D01*
X695809Y690513D01*
X699429Y692319D02*
X704848Y692319D01*
X701236Y697738D02*
X701236Y684191D01*
X701238Y684090D01*
X701244Y683989D01*
X701253Y683888D01*
X701266Y683787D01*
X701283Y683687D01*
X701304Y683588D01*
X701328Y683490D01*
X701356Y683393D01*
X701388Y683296D01*
X701423Y683201D01*
X701462Y683108D01*
X701504Y683016D01*
X701550Y682925D01*
X701599Y682837D01*
X701651Y682750D01*
X701707Y682665D01*
X701765Y682582D01*
X701827Y682502D01*
X701892Y682424D01*
X701959Y682348D01*
X702029Y682275D01*
X702102Y682205D01*
X702178Y682138D01*
X702256Y682073D01*
X702336Y682011D01*
X702419Y681953D01*
X702504Y681897D01*
X702591Y681845D01*
X702679Y681796D01*
X702770Y681750D01*
X702862Y681708D01*
X702955Y681669D01*
X703050Y681634D01*
X703147Y681602D01*
X703244Y681574D01*
X703342Y681550D01*
X703441Y681529D01*
X703541Y681512D01*
X703642Y681499D01*
X703743Y681490D01*
X703844Y681484D01*
X703945Y681482D01*
X704848Y681482D01*
X719623Y681482D02*
X719623Y697738D01*
X719623Y690513D02*
X728654Y690513D01*
X728654Y697738D02*
X728654Y681482D01*
X738346Y681482D02*
X742861Y681482D01*
X738346Y681482D02*
X738245Y681484D01*
X738144Y681490D01*
X738043Y681499D01*
X737942Y681512D01*
X737842Y681529D01*
X737743Y681550D01*
X737645Y681574D01*
X737548Y681602D01*
X737451Y681634D01*
X737356Y681669D01*
X737263Y681708D01*
X737171Y681750D01*
X737080Y681796D01*
X736992Y681845D01*
X736905Y681897D01*
X736820Y681953D01*
X736737Y682011D01*
X736657Y682073D01*
X736579Y682138D01*
X736503Y682205D01*
X736430Y682275D01*
X736360Y682348D01*
X736293Y682424D01*
X736228Y682502D01*
X736166Y682582D01*
X736108Y682665D01*
X736052Y682750D01*
X736000Y682837D01*
X735951Y682925D01*
X735905Y683016D01*
X735863Y683108D01*
X735824Y683201D01*
X735789Y683296D01*
X735757Y683393D01*
X735729Y683490D01*
X735705Y683588D01*
X735684Y683687D01*
X735667Y683787D01*
X735654Y683888D01*
X735645Y683989D01*
X735639Y684090D01*
X735637Y684191D01*
X735636Y684191D02*
X735636Y688707D01*
X735637Y688707D02*
X735639Y688826D01*
X735645Y688946D01*
X735655Y689065D01*
X735669Y689183D01*
X735686Y689302D01*
X735708Y689419D01*
X735733Y689536D01*
X735763Y689651D01*
X735796Y689766D01*
X735833Y689880D01*
X735873Y689992D01*
X735918Y690103D01*
X735966Y690212D01*
X736017Y690320D01*
X736072Y690426D01*
X736131Y690530D01*
X736193Y690632D01*
X736258Y690732D01*
X736327Y690830D01*
X736399Y690926D01*
X736474Y691019D01*
X736551Y691109D01*
X736632Y691197D01*
X736716Y691282D01*
X736803Y691364D01*
X736892Y691444D01*
X736984Y691520D01*
X737078Y691594D01*
X737175Y691664D01*
X737273Y691731D01*
X737374Y691795D01*
X737478Y691855D01*
X737583Y691912D01*
X737690Y691965D01*
X737798Y692015D01*
X737908Y692061D01*
X738020Y692103D01*
X738133Y692142D01*
X738247Y692177D01*
X738362Y692208D01*
X738479Y692236D01*
X738596Y692259D01*
X738713Y692279D01*
X738832Y692295D01*
X738951Y692307D01*
X739070Y692315D01*
X739189Y692319D01*
X739309Y692319D01*
X739428Y692315D01*
X739547Y692307D01*
X739666Y692295D01*
X739785Y692279D01*
X739902Y692259D01*
X740019Y692236D01*
X740136Y692208D01*
X740251Y692177D01*
X740365Y692142D01*
X740478Y692103D01*
X740590Y692061D01*
X740700Y692015D01*
X740808Y691965D01*
X740915Y691912D01*
X741020Y691855D01*
X741124Y691795D01*
X741225Y691731D01*
X741323Y691664D01*
X741420Y691594D01*
X741514Y691520D01*
X741606Y691444D01*
X741695Y691364D01*
X741782Y691282D01*
X741866Y691197D01*
X741947Y691109D01*
X742024Y691019D01*
X742099Y690926D01*
X742171Y690830D01*
X742240Y690732D01*
X742305Y690632D01*
X742367Y690530D01*
X742426Y690426D01*
X742481Y690320D01*
X742532Y690212D01*
X742580Y690103D01*
X742625Y689992D01*
X742665Y689880D01*
X742702Y689766D01*
X742735Y689651D01*
X742765Y689536D01*
X742790Y689419D01*
X742812Y689302D01*
X742829Y689183D01*
X742843Y689065D01*
X742853Y688946D01*
X742859Y688826D01*
X742861Y688707D01*
X742861Y686901D01*
X735636Y686901D01*
X751893Y681482D02*
X756408Y681482D01*
X751893Y681482D02*
X751792Y681484D01*
X751691Y681490D01*
X751590Y681499D01*
X751489Y681512D01*
X751389Y681529D01*
X751290Y681550D01*
X751192Y681574D01*
X751095Y681602D01*
X750998Y681634D01*
X750903Y681669D01*
X750810Y681708D01*
X750718Y681750D01*
X750627Y681796D01*
X750539Y681845D01*
X750452Y681897D01*
X750367Y681953D01*
X750284Y682011D01*
X750204Y682073D01*
X750126Y682138D01*
X750050Y682205D01*
X749977Y682275D01*
X749907Y682348D01*
X749840Y682424D01*
X749775Y682502D01*
X749713Y682582D01*
X749655Y682665D01*
X749599Y682750D01*
X749547Y682837D01*
X749498Y682925D01*
X749452Y683016D01*
X749410Y683108D01*
X749371Y683201D01*
X749336Y683296D01*
X749304Y683393D01*
X749276Y683490D01*
X749252Y683588D01*
X749231Y683687D01*
X749214Y683787D01*
X749201Y683888D01*
X749192Y683989D01*
X749186Y684090D01*
X749184Y684191D01*
X749184Y688707D01*
X749186Y688826D01*
X749192Y688946D01*
X749202Y689065D01*
X749216Y689183D01*
X749233Y689302D01*
X749255Y689419D01*
X749280Y689536D01*
X749310Y689651D01*
X749343Y689766D01*
X749380Y689880D01*
X749420Y689992D01*
X749465Y690103D01*
X749513Y690212D01*
X749564Y690320D01*
X749619Y690426D01*
X749678Y690530D01*
X749740Y690632D01*
X749805Y690732D01*
X749874Y690830D01*
X749946Y690926D01*
X750021Y691019D01*
X750098Y691109D01*
X750179Y691197D01*
X750263Y691282D01*
X750350Y691364D01*
X750439Y691444D01*
X750531Y691520D01*
X750625Y691594D01*
X750722Y691664D01*
X750820Y691731D01*
X750921Y691795D01*
X751025Y691855D01*
X751130Y691912D01*
X751237Y691965D01*
X751345Y692015D01*
X751455Y692061D01*
X751567Y692103D01*
X751680Y692142D01*
X751794Y692177D01*
X751909Y692208D01*
X752026Y692236D01*
X752143Y692259D01*
X752260Y692279D01*
X752379Y692295D01*
X752498Y692307D01*
X752617Y692315D01*
X752736Y692319D01*
X752856Y692319D01*
X752975Y692315D01*
X753094Y692307D01*
X753213Y692295D01*
X753332Y692279D01*
X753449Y692259D01*
X753566Y692236D01*
X753683Y692208D01*
X753798Y692177D01*
X753912Y692142D01*
X754025Y692103D01*
X754137Y692061D01*
X754247Y692015D01*
X754355Y691965D01*
X754462Y691912D01*
X754567Y691855D01*
X754671Y691795D01*
X754772Y691731D01*
X754870Y691664D01*
X754967Y691594D01*
X755061Y691520D01*
X755153Y691444D01*
X755242Y691364D01*
X755329Y691282D01*
X755413Y691197D01*
X755494Y691109D01*
X755571Y691019D01*
X755646Y690926D01*
X755718Y690830D01*
X755787Y690732D01*
X755852Y690632D01*
X755914Y690530D01*
X755973Y690426D01*
X756028Y690320D01*
X756079Y690212D01*
X756127Y690103D01*
X756172Y689992D01*
X756212Y689880D01*
X756249Y689766D01*
X756282Y689651D01*
X756312Y689536D01*
X756337Y689419D01*
X756359Y689302D01*
X756376Y689183D01*
X756390Y689065D01*
X756400Y688946D01*
X756406Y688826D01*
X756408Y688707D01*
X756408Y686901D01*
X749184Y686901D01*
X761433Y692319D02*
X766852Y692319D01*
X763240Y697738D02*
X763240Y684191D01*
X763242Y684090D01*
X763248Y683989D01*
X763257Y683888D01*
X763270Y683787D01*
X763287Y683687D01*
X763308Y683588D01*
X763332Y683490D01*
X763360Y683393D01*
X763392Y683296D01*
X763427Y683201D01*
X763466Y683108D01*
X763508Y683016D01*
X763554Y682925D01*
X763603Y682837D01*
X763655Y682750D01*
X763711Y682665D01*
X763769Y682582D01*
X763831Y682502D01*
X763896Y682424D01*
X763963Y682348D01*
X764033Y682275D01*
X764106Y682205D01*
X764182Y682138D01*
X764260Y682073D01*
X764340Y682011D01*
X764423Y681953D01*
X764508Y681897D01*
X764595Y681845D01*
X764683Y681796D01*
X764774Y681750D01*
X764866Y681708D01*
X764959Y681669D01*
X765054Y681634D01*
X765151Y681602D01*
X765248Y681574D01*
X765346Y681550D01*
X765445Y681529D01*
X765545Y681512D01*
X765646Y681499D01*
X765747Y681490D01*
X765848Y681484D01*
X765949Y681482D01*
X766852Y681482D01*
X775340Y681482D02*
X779855Y681482D01*
X775340Y681482D02*
X775239Y681484D01*
X775138Y681490D01*
X775037Y681499D01*
X774936Y681512D01*
X774836Y681529D01*
X774737Y681550D01*
X774639Y681574D01*
X774542Y681602D01*
X774445Y681634D01*
X774350Y681669D01*
X774257Y681708D01*
X774165Y681750D01*
X774074Y681796D01*
X773986Y681845D01*
X773899Y681897D01*
X773814Y681953D01*
X773731Y682011D01*
X773651Y682073D01*
X773573Y682138D01*
X773497Y682205D01*
X773424Y682275D01*
X773354Y682348D01*
X773287Y682424D01*
X773222Y682502D01*
X773160Y682582D01*
X773102Y682665D01*
X773046Y682750D01*
X772994Y682837D01*
X772945Y682925D01*
X772899Y683016D01*
X772857Y683108D01*
X772818Y683201D01*
X772783Y683296D01*
X772751Y683393D01*
X772723Y683490D01*
X772699Y683588D01*
X772678Y683687D01*
X772661Y683787D01*
X772648Y683888D01*
X772639Y683989D01*
X772633Y684090D01*
X772631Y684191D01*
X772630Y684191D02*
X772630Y688707D01*
X772631Y688707D02*
X772633Y688826D01*
X772639Y688946D01*
X772649Y689065D01*
X772663Y689183D01*
X772680Y689302D01*
X772702Y689419D01*
X772727Y689536D01*
X772757Y689651D01*
X772790Y689766D01*
X772827Y689880D01*
X772867Y689992D01*
X772912Y690103D01*
X772960Y690212D01*
X773011Y690320D01*
X773066Y690426D01*
X773125Y690530D01*
X773187Y690632D01*
X773252Y690732D01*
X773321Y690830D01*
X773393Y690926D01*
X773468Y691019D01*
X773545Y691109D01*
X773626Y691197D01*
X773710Y691282D01*
X773797Y691364D01*
X773886Y691444D01*
X773978Y691520D01*
X774072Y691594D01*
X774169Y691664D01*
X774267Y691731D01*
X774368Y691795D01*
X774472Y691855D01*
X774577Y691912D01*
X774684Y691965D01*
X774792Y692015D01*
X774902Y692061D01*
X775014Y692103D01*
X775127Y692142D01*
X775241Y692177D01*
X775356Y692208D01*
X775473Y692236D01*
X775590Y692259D01*
X775707Y692279D01*
X775826Y692295D01*
X775945Y692307D01*
X776064Y692315D01*
X776183Y692319D01*
X776303Y692319D01*
X776422Y692315D01*
X776541Y692307D01*
X776660Y692295D01*
X776779Y692279D01*
X776896Y692259D01*
X777013Y692236D01*
X777130Y692208D01*
X777245Y692177D01*
X777359Y692142D01*
X777472Y692103D01*
X777584Y692061D01*
X777694Y692015D01*
X777802Y691965D01*
X777909Y691912D01*
X778014Y691855D01*
X778118Y691795D01*
X778219Y691731D01*
X778317Y691664D01*
X778414Y691594D01*
X778508Y691520D01*
X778600Y691444D01*
X778689Y691364D01*
X778776Y691282D01*
X778860Y691197D01*
X778941Y691109D01*
X779018Y691019D01*
X779093Y690926D01*
X779165Y690830D01*
X779234Y690732D01*
X779299Y690632D01*
X779361Y690530D01*
X779420Y690426D01*
X779475Y690320D01*
X779526Y690212D01*
X779574Y690103D01*
X779619Y689992D01*
X779659Y689880D01*
X779696Y689766D01*
X779729Y689651D01*
X779759Y689536D01*
X779784Y689419D01*
X779806Y689302D01*
X779823Y689183D01*
X779837Y689065D01*
X779847Y688946D01*
X779853Y688826D01*
X779855Y688707D01*
X779855Y686901D01*
X772630Y686901D01*
X786783Y681482D02*
X786783Y692319D01*
X792202Y692319D01*
X792202Y690513D01*
D11*
X957700Y609600D03*
X972700Y609600D03*
X957700Y457200D03*
X972700Y457200D03*
X957700Y304800D03*
X972700Y304800D03*
D12*
X152400Y254000D03*
X965200Y711200D03*
X965200Y254000D03*
D13*
X88900Y203200D03*
D14*
X88900Y228600D03*
X88900Y254000D03*
X88900Y279400D03*
X88900Y304800D03*
X88900Y330200D03*
X88900Y355600D03*
X88900Y381000D03*
X88900Y406400D03*
X88900Y431800D03*
X88900Y457200D03*
X88900Y482600D03*
X88900Y508000D03*
X88900Y533400D03*
X88900Y558800D03*
X88900Y584200D03*
X88900Y609600D03*
X88900Y635000D03*
X88900Y660400D03*
X88900Y685800D03*
D13*
X850900Y203200D03*
D14*
X850900Y228600D03*
X850900Y254000D03*
X850900Y279400D03*
X850900Y304800D03*
X850900Y330200D03*
X850900Y355600D03*
X850900Y381000D03*
X850900Y406400D03*
X850900Y431800D03*
X850900Y457200D03*
X850900Y482600D03*
X850900Y508000D03*
X850900Y533400D03*
X850900Y558800D03*
X850900Y584200D03*
X850900Y609600D03*
X850900Y635000D03*
X850900Y660400D03*
X850900Y685800D03*
D15*
X850900Y158750D03*
X850900Y730250D03*
X88900Y158750D03*
X88900Y730250D03*
D16*
X660400Y508000D03*
D17*
X660400Y483000D03*
X660400Y463000D03*
X660400Y438000D03*
D18*
X687500Y538700D03*
X687500Y407300D03*
D19*
X1028700Y774700D03*
X1028700Y38100D03*
X38100Y774700D03*
X38100Y38100D03*
D20*
X254000Y76600D03*
X254000Y101600D03*
X254000Y126600D03*
X787400Y76600D03*
X787400Y101600D03*
X787400Y126600D03*
D21*
X360299Y101600D03*
X376301Y101600D03*
X855599Y101600D03*
X871601Y101600D03*
X601599Y609600D03*
X617601Y609600D03*
D22*
X532400Y126600D03*
X532400Y76600D03*
X407400Y76600D03*
X407400Y126600D03*
X1027700Y126600D03*
X1027700Y76600D03*
X902700Y76600D03*
X902700Y126600D03*
D23*
X238500Y262300D03*
D24*
X263900Y262300D03*
X238500Y287700D03*
X263900Y287700D03*
X238500Y313100D03*
X263900Y313100D03*
X238500Y338500D03*
X263900Y338500D03*
X238500Y363900D03*
X263900Y363900D03*
X238500Y389300D03*
X263900Y389300D03*
X238500Y414700D03*
X263900Y414700D03*
X238500Y440100D03*
X263900Y440100D03*
X238500Y465500D03*
X263900Y465500D03*
X238500Y490900D03*
X263900Y490900D03*
X238500Y516300D03*
X263900Y516300D03*
X238500Y541700D03*
X263900Y541700D03*
X238500Y567100D03*
X263900Y567100D03*
X238500Y592500D03*
X263900Y592500D03*
X238500Y617900D03*
X263900Y617900D03*
X238500Y643300D03*
X263900Y643300D03*
X238500Y668700D03*
X263900Y668700D03*
X238500Y694100D03*
X263900Y694100D03*
D23*
X492500Y262300D03*
D24*
X517900Y262300D03*
X492500Y287700D03*
X517900Y287700D03*
X492500Y313100D03*
X517900Y313100D03*
X492500Y338500D03*
X517900Y338500D03*
X492500Y363900D03*
X517900Y363900D03*
X492500Y389300D03*
X517900Y389300D03*
X492500Y414700D03*
X517900Y414700D03*
X492500Y440100D03*
X517900Y440100D03*
X492500Y465500D03*
X517900Y465500D03*
X492500Y490900D03*
X517900Y490900D03*
X492500Y516300D03*
X517900Y516300D03*
X492500Y541700D03*
X517900Y541700D03*
X492500Y567100D03*
X517900Y567100D03*
X492500Y592500D03*
X517900Y592500D03*
X492500Y617900D03*
X517900Y617900D03*
X492500Y643300D03*
X517900Y643300D03*
X492500Y668700D03*
X517900Y668700D03*
X492500Y694100D03*
X517900Y694100D03*
D25*
X601980Y508000D02*
X660400Y508000D01*
X601980Y508000D02*
X520700Y426720D01*
X502920Y426720D01*
X492760Y416560D01*
X492500Y414700D01*
X365760Y541020D02*
X264160Y541020D01*
X365760Y541020D02*
X490220Y416560D01*
X264160Y541020D02*
X263900Y541700D01*
X490220Y416560D02*
X492500Y414700D01*
X855980Y129540D02*
X855980Y101600D01*
X855599Y101600D01*
X358140Y101600D02*
X358140Y121920D01*
X226060Y254000D01*
X226060Y393700D01*
X233680Y401320D01*
X248920Y401320D01*
X261620Y414020D01*
X358140Y101600D02*
X360299Y101600D01*
X263900Y414700D02*
X261620Y414020D01*
X680720Y254000D02*
X850900Y254000D01*
X680720Y254000D02*
X518160Y91440D01*
X370840Y91440D01*
X360680Y101600D01*
X360299Y101600D01*
D26*
X855980Y129540D03*
D25*
X238760Y416560D02*
X238760Y439420D01*
X238760Y416560D02*
X238500Y414700D01*
X238760Y439420D02*
X238500Y440100D01*
X238760Y441960D02*
X261620Y441960D01*
X263900Y440100D01*
X238760Y441960D02*
X238500Y440100D01*
X530860Y541020D02*
X599440Y609600D01*
X530860Y541020D02*
X530860Y538480D01*
X520700Y528320D01*
X502920Y528320D01*
X492760Y518160D01*
X599440Y609600D02*
X601599Y609600D01*
X492760Y518160D02*
X492500Y516300D01*
X490220Y449580D02*
X490220Y441960D01*
X490220Y449580D02*
X480060Y459740D01*
X480060Y505460D01*
X490220Y515620D01*
X490220Y441960D02*
X492500Y440100D01*
X490220Y515620D02*
X492500Y516300D01*
X904240Y78740D02*
X1026160Y78740D01*
X904240Y78740D02*
X902700Y76600D01*
X1026160Y78740D02*
X1027700Y76600D01*
X530860Y78740D02*
X408940Y78740D01*
X407400Y76600D01*
X530860Y78740D02*
X532400Y76600D01*
X972820Y444500D02*
X972820Y457200D01*
X972820Y444500D02*
X972820Y304800D01*
X972820Y457200D02*
X972820Y609600D01*
X972700Y609600D01*
X972820Y457200D02*
X972700Y457200D01*
X871220Y203200D02*
X850900Y203200D01*
X871220Y203200D02*
X972820Y304800D01*
X972700Y304800D01*
X723900Y78740D02*
X533400Y78740D01*
X792480Y147320D02*
X848360Y203200D01*
X792480Y147320D02*
X723900Y78740D01*
X848360Y203200D02*
X850900Y203200D01*
X533400Y78740D02*
X532400Y76600D01*
X861060Y78740D02*
X901700Y78740D01*
X861060Y78740D02*
X792480Y147320D01*
X901700Y78740D02*
X902700Y76600D01*
X840740Y439420D02*
X660400Y439420D01*
X840740Y439420D02*
X845820Y444500D01*
X972820Y444500D01*
X660400Y439420D02*
X660400Y438000D01*
X264160Y467360D02*
X264160Y474980D01*
X276860Y487680D01*
X276860Y495300D01*
X269240Y502920D01*
X259080Y502920D01*
X251460Y510540D01*
X251460Y520700D01*
X243840Y528320D01*
X233680Y528320D01*
X210820Y505460D01*
X210820Y121920D01*
X254000Y78740D01*
X263900Y465500D02*
X264160Y467360D01*
X254000Y78740D02*
X254000Y76600D01*
X38100Y673100D02*
X38100Y774700D01*
X38100Y673100D02*
X38100Y38100D01*
X619760Y609600D02*
X650240Y579120D01*
X619760Y609600D02*
X617601Y609600D01*
X1028700Y55880D02*
X1028700Y38100D01*
X1028700Y55880D02*
X1041400Y68580D01*
X1041400Y622300D02*
X1041400Y762000D01*
X1041400Y622300D02*
X1041400Y68580D01*
X1041400Y762000D02*
X1028700Y774700D01*
X802640Y579120D02*
X650240Y579120D01*
X802640Y579120D02*
X845820Y622300D01*
X1041400Y622300D01*
X226060Y673100D02*
X38100Y673100D01*
X226060Y673100D02*
X233680Y680720D01*
X546100Y680720D01*
X617220Y609600D01*
X617601Y609600D01*
D26*
X650240Y579120D03*
D25*
X868680Y304800D02*
X957700Y304800D01*
X868680Y304800D02*
X855980Y292100D01*
X756920Y292100D01*
X711200Y337820D01*
X518160Y337820D01*
X517900Y338500D01*
X894080Y609600D02*
X957700Y609600D01*
X894080Y609600D02*
X855980Y571500D01*
X589280Y571500D01*
X520700Y502920D01*
X513080Y502920D01*
X505460Y495300D01*
X505460Y480060D01*
X492760Y467360D01*
X492500Y465500D01*
X894080Y457200D02*
X957700Y457200D01*
X894080Y457200D02*
X855980Y495300D01*
X693420Y495300D01*
X668020Y520700D01*
X546100Y520700D01*
X518160Y492760D01*
X517900Y490900D01*
X254000Y210820D02*
X254000Y126600D01*
X254000Y210820D02*
X215900Y248920D01*
X215900Y485140D01*
X233680Y502920D01*
X243840Y502920D01*
X251460Y495300D01*
X251460Y480060D01*
X238760Y467360D01*
X238500Y465500D01*
X264160Y363220D02*
X474980Y363220D01*
X487680Y350520D01*
X805180Y350520D01*
X850900Y304800D01*
X264160Y363220D02*
X263900Y363900D01*
X264160Y388620D02*
X474980Y388620D01*
X487680Y375920D01*
X805180Y375920D01*
X850900Y330200D01*
X264160Y388620D02*
X263900Y389300D01*
X376301Y101600D02*
X383540Y101600D01*
X393700Y111760D02*
X406400Y124460D01*
X393700Y111760D02*
X383540Y101600D01*
X406400Y124460D02*
X407400Y126600D01*
X238760Y660400D02*
X238760Y668020D01*
X238760Y660400D02*
X251460Y647700D01*
X251460Y535940D01*
X259080Y528320D01*
X269240Y528320D01*
X281940Y515620D01*
X281940Y416560D01*
X266700Y401320D01*
X259080Y401320D01*
X251460Y393700D01*
X251460Y254000D01*
X393700Y111760D01*
X238760Y668020D02*
X238500Y668700D01*
X408940Y127000D02*
X530860Y127000D01*
X532400Y126600D01*
X408940Y127000D02*
X407400Y126600D01*
X871601Y101600D02*
X878840Y101600D01*
X901700Y124460D01*
X902700Y126600D01*
X904240Y127000D02*
X1026160Y127000D01*
X1027700Y126600D01*
X904240Y127000D02*
X902700Y126600D01*
X254000Y109220D02*
X254000Y101600D01*
X254000Y109220D02*
X266700Y121920D01*
X266700Y205740D01*
X220980Y251460D01*
X220980Y474980D01*
X236220Y490220D01*
X238500Y490900D01*
X264160Y337820D02*
X449580Y337820D01*
X487680Y299720D01*
X741680Y299720D01*
X762000Y279400D01*
X850900Y279400D01*
X264160Y337820D02*
X263900Y338500D01*
M02*
