G04 EAGLE Gerber RS-274X export*
G75*
%MOMM*%
%FSLAX34Y34*%
%LPD*%
%INBottom Copper*%
%IPPOS*%
%AMOC8*
5,1,8,0,0,1.08239X$1,22.5*%
G01*
%ADD10R,1.676400X1.676400*%
%ADD11C,1.676400*%
%ADD12C,4.016000*%
%ADD13R,1.288000X1.288000*%
%ADD14C,1.288000*%
%ADD15C,3.220000*%
%ADD16C,4.445000*%
%ADD17C,1.400000*%
%ADD18C,1.960000*%
%ADD19R,1.524000X1.524000*%
%ADD20P,1.649562X8X112.500000*%
%ADD21C,0.254000*%
%ADD22C,0.609600*%


D10*
X88900Y203200D03*
D11*
X88900Y228600D03*
X88900Y254000D03*
X88900Y279400D03*
X88900Y304800D03*
X88900Y330200D03*
X88900Y355600D03*
X88900Y381000D03*
X88900Y406400D03*
X88900Y431800D03*
X88900Y457200D03*
X88900Y482600D03*
X88900Y508000D03*
X88900Y533400D03*
X88900Y558800D03*
X88900Y584200D03*
X88900Y609600D03*
X88900Y635000D03*
X88900Y660400D03*
X88900Y685800D03*
D10*
X850900Y203200D03*
D11*
X850900Y228600D03*
X850900Y254000D03*
X850900Y279400D03*
X850900Y304800D03*
X850900Y330200D03*
X850900Y355600D03*
X850900Y381000D03*
X850900Y406400D03*
X850900Y431800D03*
X850900Y457200D03*
X850900Y482600D03*
X850900Y508000D03*
X850900Y533400D03*
X850900Y558800D03*
X850900Y584200D03*
X850900Y609600D03*
X850900Y635000D03*
X850900Y660400D03*
X850900Y685800D03*
D12*
X850900Y158750D03*
X850900Y730250D03*
X88900Y158750D03*
X88900Y730250D03*
D13*
X660400Y508000D03*
D14*
X660400Y483000D03*
X660400Y463000D03*
X660400Y438000D03*
D15*
X687500Y538700D03*
X687500Y407300D03*
D16*
X1028700Y774700D03*
X1028700Y38100D03*
X38100Y774700D03*
X38100Y38100D03*
D17*
X254000Y76600D03*
X254000Y101600D03*
X254000Y126600D03*
X787400Y76600D03*
X787400Y101600D03*
X787400Y126600D03*
D18*
X532400Y126600D03*
X532400Y76600D03*
X407400Y76600D03*
X407400Y126600D03*
X1027700Y126600D03*
X1027700Y76600D03*
X902700Y76600D03*
X902700Y126600D03*
D19*
X238500Y262300D03*
D20*
X263900Y262300D03*
X238500Y287700D03*
X263900Y287700D03*
X238500Y313100D03*
X263900Y313100D03*
X238500Y338500D03*
X263900Y338500D03*
X238500Y363900D03*
X263900Y363900D03*
X238500Y389300D03*
X263900Y389300D03*
X238500Y414700D03*
X263900Y414700D03*
X238500Y440100D03*
X263900Y440100D03*
X238500Y465500D03*
X263900Y465500D03*
X238500Y490900D03*
X263900Y490900D03*
X238500Y516300D03*
X263900Y516300D03*
X238500Y541700D03*
X263900Y541700D03*
X238500Y567100D03*
X263900Y567100D03*
X238500Y592500D03*
X263900Y592500D03*
X238500Y617900D03*
X263900Y617900D03*
X238500Y643300D03*
X263900Y643300D03*
X238500Y668700D03*
X263900Y668700D03*
X238500Y694100D03*
X263900Y694100D03*
D19*
X492500Y262300D03*
D20*
X517900Y262300D03*
X492500Y287700D03*
X517900Y287700D03*
X492500Y313100D03*
X517900Y313100D03*
X492500Y338500D03*
X517900Y338500D03*
X492500Y363900D03*
X517900Y363900D03*
X492500Y389300D03*
X517900Y389300D03*
X492500Y414700D03*
X517900Y414700D03*
X492500Y440100D03*
X517900Y440100D03*
X492500Y465500D03*
X517900Y465500D03*
X492500Y490900D03*
X517900Y490900D03*
X492500Y516300D03*
X517900Y516300D03*
X492500Y541700D03*
X517900Y541700D03*
X492500Y567100D03*
X517900Y567100D03*
X492500Y592500D03*
X517900Y592500D03*
X492500Y617900D03*
X517900Y617900D03*
X492500Y643300D03*
X517900Y643300D03*
X492500Y668700D03*
X517900Y668700D03*
X492500Y694100D03*
X517900Y694100D03*
D21*
X236220Y322580D02*
X236220Y314960D01*
X236220Y322580D02*
X226060Y332740D01*
X226060Y495300D01*
X233680Y502920D01*
X241300Y502920D01*
X251460Y513080D01*
X251460Y530860D01*
X261620Y541020D01*
X236220Y314960D02*
X238500Y313100D01*
X261620Y541020D02*
X263900Y541700D01*
X855980Y129540D02*
X876300Y149860D01*
X876300Y228600D01*
X850900Y254000D01*
X490220Y541020D02*
X355600Y541020D01*
X266700Y452120D01*
X259080Y452120D01*
X251460Y444500D01*
X251460Y426720D01*
X261620Y416560D01*
X490220Y541020D02*
X492500Y541700D01*
X263900Y414700D02*
X261620Y416560D01*
D22*
X855980Y129540D03*
D21*
X660400Y436880D02*
X530860Y436880D01*
X520700Y426720D01*
X505460Y426720D01*
X492760Y439420D01*
X660400Y438000D02*
X660400Y436880D01*
X492760Y439420D02*
X492500Y440100D01*
X261620Y505460D02*
X261620Y515620D01*
X261620Y505460D02*
X251460Y495300D01*
X251460Y454660D01*
X238760Y441960D01*
X261620Y515620D02*
X263900Y516300D01*
X238760Y441960D02*
X238500Y440100D01*
X264160Y441960D02*
X414020Y441960D01*
X490220Y518160D01*
X264160Y441960D02*
X263900Y440100D01*
X490220Y518160D02*
X492500Y516300D01*
X386080Y76200D02*
X254000Y76200D01*
X386080Y76200D02*
X401320Y60960D01*
X703580Y60960D01*
X718820Y76200D01*
X787400Y76200D01*
X254000Y76200D02*
X254000Y76600D01*
X787400Y76200D02*
X787400Y76600D01*
X688340Y541020D02*
X650240Y579120D01*
X688340Y541020D02*
X687500Y538700D01*
X688340Y538480D02*
X688340Y408940D01*
X687500Y407300D01*
X688340Y538480D02*
X687500Y538700D01*
D22*
X650240Y579120D03*
D21*
X787400Y126600D02*
X787400Y119380D01*
X800100Y106680D01*
X800100Y96520D01*
X792480Y88900D01*
X541020Y88900D01*
X533400Y96520D01*
X281940Y96520D01*
X254000Y124460D01*
X254000Y126600D01*
X264160Y312420D02*
X474980Y312420D01*
X487680Y299720D01*
X795020Y299720D01*
X850900Y355600D01*
X264160Y312420D02*
X263900Y313100D01*
X264160Y264160D02*
X472440Y264160D01*
X482600Y274320D01*
X777240Y274320D01*
X845820Y342900D01*
X855980Y342900D01*
X863600Y350520D01*
X863600Y393700D01*
X850900Y406400D01*
X264160Y264160D02*
X263900Y262300D01*
X660400Y477520D02*
X660400Y483000D01*
X660400Y477520D02*
X673100Y464820D01*
X673100Y434340D01*
X614680Y375920D01*
X248920Y375920D01*
X238760Y365760D01*
X238500Y363900D01*
X530860Y462280D02*
X660400Y462280D01*
X530860Y462280D02*
X520700Y452120D01*
X431800Y452120D01*
X381000Y401320D01*
X248920Y401320D01*
X238760Y391160D01*
X660400Y462280D02*
X660400Y463000D01*
X238760Y391160D02*
X238500Y389300D01*
X238760Y642620D02*
X246380Y642620D01*
X259080Y629920D01*
X635000Y629920D01*
X845820Y419100D01*
X855980Y419100D01*
X901700Y373380D01*
X901700Y127000D01*
X238760Y642620D02*
X238500Y643300D01*
X901700Y127000D02*
X902700Y126600D01*
X261620Y289560D02*
X261620Y297180D01*
X251460Y307340D01*
X251460Y317500D01*
X259080Y325120D01*
X795020Y325120D01*
X850900Y381000D01*
X263900Y287700D02*
X261620Y289560D01*
X406400Y101600D02*
X787400Y101600D01*
X406400Y101600D02*
X251460Y256540D01*
X251460Y292100D01*
X243840Y299720D01*
X233680Y299720D01*
X220980Y312420D01*
X220980Y500380D01*
X236220Y515620D01*
X238500Y516300D01*
M02*
