G04 EAGLE Gerber RS-274X export*
G75*
%MOMM*%
%FSLAX34Y34*%
%LPD*%
%IN*%
%IPPOS*%
%AMOC8*
5,1,8,0,0,1.08239X$1,22.5*%
G01*
%ADD10C,0.254000*%


D10*
X0Y0D02*
X1066800Y0D01*
X1066800Y812800D01*
X0Y812800D01*
X0Y0D01*
X184491Y64100D02*
X185470Y64023D01*
X186441Y63869D01*
X187396Y63640D01*
X188330Y63336D01*
X189237Y62961D01*
X190112Y62515D01*
X190950Y62001D01*
X191745Y61424D01*
X192492Y60786D01*
X193186Y60092D01*
X193824Y59345D01*
X194401Y58550D01*
X194915Y57712D01*
X195361Y56837D01*
X195736Y55930D01*
X196040Y54996D01*
X196269Y54041D01*
X196423Y53070D01*
X196500Y52091D01*
X196500Y51109D01*
X196423Y50130D01*
X196269Y49160D01*
X196040Y48204D01*
X195736Y47270D01*
X195361Y46363D01*
X194915Y45488D01*
X194401Y44650D01*
X193824Y43855D01*
X193186Y43108D01*
X192492Y42414D01*
X191745Y41776D01*
X190950Y41199D01*
X190112Y40685D01*
X189237Y40239D01*
X188330Y39864D01*
X187396Y39560D01*
X186441Y39331D01*
X185470Y39177D01*
X184491Y39100D01*
X183509Y39100D01*
X182530Y39177D01*
X181560Y39331D01*
X180604Y39560D01*
X179670Y39864D01*
X178763Y40239D01*
X177888Y40685D01*
X177050Y41199D01*
X176255Y41776D01*
X175508Y42414D01*
X174814Y43108D01*
X174176Y43855D01*
X173599Y44650D01*
X173085Y45488D01*
X172639Y46363D01*
X172264Y47270D01*
X171960Y48204D01*
X171731Y49160D01*
X171577Y50130D01*
X171500Y51109D01*
X171500Y52091D01*
X171577Y53070D01*
X171731Y54041D01*
X171960Y54996D01*
X172264Y55930D01*
X172639Y56837D01*
X173085Y57712D01*
X173599Y58550D01*
X174176Y59345D01*
X174814Y60092D01*
X175508Y60786D01*
X176255Y61424D01*
X177050Y62001D01*
X177888Y62515D01*
X178763Y62961D01*
X179670Y63336D01*
X180604Y63640D01*
X181560Y63869D01*
X182530Y64023D01*
X183509Y64100D01*
X184491Y64100D01*
X184491Y164100D02*
X185470Y164023D01*
X186441Y163869D01*
X187396Y163640D01*
X188330Y163336D01*
X189237Y162961D01*
X190112Y162515D01*
X190950Y162001D01*
X191745Y161424D01*
X192492Y160786D01*
X193186Y160092D01*
X193824Y159345D01*
X194401Y158550D01*
X194915Y157712D01*
X195361Y156837D01*
X195736Y155930D01*
X196040Y154996D01*
X196269Y154041D01*
X196423Y153070D01*
X196500Y152091D01*
X196500Y151109D01*
X196423Y150130D01*
X196269Y149160D01*
X196040Y148204D01*
X195736Y147270D01*
X195361Y146363D01*
X194915Y145488D01*
X194401Y144650D01*
X193824Y143855D01*
X193186Y143108D01*
X192492Y142414D01*
X191745Y141776D01*
X190950Y141199D01*
X190112Y140685D01*
X189237Y140239D01*
X188330Y139864D01*
X187396Y139560D01*
X186441Y139331D01*
X185470Y139177D01*
X184491Y139100D01*
X183509Y139100D01*
X182530Y139177D01*
X181560Y139331D01*
X180604Y139560D01*
X179670Y139864D01*
X178763Y140239D01*
X177888Y140685D01*
X177050Y141199D01*
X176255Y141776D01*
X175508Y142414D01*
X174814Y143108D01*
X174176Y143855D01*
X173599Y144650D01*
X173085Y145488D01*
X172639Y146363D01*
X172264Y147270D01*
X171960Y148204D01*
X171731Y149160D01*
X171577Y150130D01*
X171500Y151109D01*
X171500Y152091D01*
X171577Y153070D01*
X171731Y154041D01*
X171960Y154996D01*
X172264Y155930D01*
X172639Y156837D01*
X173085Y157712D01*
X173599Y158550D01*
X174176Y159345D01*
X174814Y160092D01*
X175508Y160786D01*
X176255Y161424D01*
X177050Y162001D01*
X177888Y162515D01*
X178763Y162961D01*
X179670Y163336D01*
X180604Y163640D01*
X181560Y163869D01*
X182530Y164023D01*
X183509Y164100D01*
X184491Y164100D01*
X717891Y64100D02*
X718870Y64023D01*
X719841Y63869D01*
X720796Y63640D01*
X721730Y63336D01*
X722637Y62961D01*
X723512Y62515D01*
X724350Y62001D01*
X725145Y61424D01*
X725892Y60786D01*
X726586Y60092D01*
X727224Y59345D01*
X727801Y58550D01*
X728315Y57712D01*
X728761Y56837D01*
X729136Y55930D01*
X729440Y54996D01*
X729669Y54041D01*
X729823Y53070D01*
X729900Y52091D01*
X729900Y51109D01*
X729823Y50130D01*
X729669Y49160D01*
X729440Y48204D01*
X729136Y47270D01*
X728761Y46363D01*
X728315Y45488D01*
X727801Y44650D01*
X727224Y43855D01*
X726586Y43108D01*
X725892Y42414D01*
X725145Y41776D01*
X724350Y41199D01*
X723512Y40685D01*
X722637Y40239D01*
X721730Y39864D01*
X720796Y39560D01*
X719841Y39331D01*
X718870Y39177D01*
X717891Y39100D01*
X716909Y39100D01*
X715930Y39177D01*
X714960Y39331D01*
X714004Y39560D01*
X713070Y39864D01*
X712163Y40239D01*
X711288Y40685D01*
X710450Y41199D01*
X709655Y41776D01*
X708908Y42414D01*
X708214Y43108D01*
X707576Y43855D01*
X706999Y44650D01*
X706485Y45488D01*
X706039Y46363D01*
X705664Y47270D01*
X705360Y48204D01*
X705131Y49160D01*
X704977Y50130D01*
X704900Y51109D01*
X704900Y52091D01*
X704977Y53070D01*
X705131Y54041D01*
X705360Y54996D01*
X705664Y55930D01*
X706039Y56837D01*
X706485Y57712D01*
X706999Y58550D01*
X707576Y59345D01*
X708214Y60092D01*
X708908Y60786D01*
X709655Y61424D01*
X710450Y62001D01*
X711288Y62515D01*
X712163Y62961D01*
X713070Y63336D01*
X714004Y63640D01*
X714960Y63869D01*
X715930Y64023D01*
X716909Y64100D01*
X717891Y64100D01*
X717891Y164100D02*
X718870Y164023D01*
X719841Y163869D01*
X720796Y163640D01*
X721730Y163336D01*
X722637Y162961D01*
X723512Y162515D01*
X724350Y162001D01*
X725145Y161424D01*
X725892Y160786D01*
X726586Y160092D01*
X727224Y159345D01*
X727801Y158550D01*
X728315Y157712D01*
X728761Y156837D01*
X729136Y155930D01*
X729440Y154996D01*
X729669Y154041D01*
X729823Y153070D01*
X729900Y152091D01*
X729900Y151109D01*
X729823Y150130D01*
X729669Y149160D01*
X729440Y148204D01*
X729136Y147270D01*
X728761Y146363D01*
X728315Y145488D01*
X727801Y144650D01*
X727224Y143855D01*
X726586Y143108D01*
X725892Y142414D01*
X725145Y141776D01*
X724350Y141199D01*
X723512Y140685D01*
X722637Y140239D01*
X721730Y139864D01*
X720796Y139560D01*
X719841Y139331D01*
X718870Y139177D01*
X717891Y139100D01*
X716909Y139100D01*
X715930Y139177D01*
X714960Y139331D01*
X714004Y139560D01*
X713070Y139864D01*
X712163Y140239D01*
X711288Y140685D01*
X710450Y141199D01*
X709655Y141776D01*
X708908Y142414D01*
X708214Y143108D01*
X707576Y143855D01*
X706999Y144650D01*
X706485Y145488D01*
X706039Y146363D01*
X705664Y147270D01*
X705360Y148204D01*
X705131Y149160D01*
X704977Y150130D01*
X704900Y151109D01*
X704900Y152091D01*
X704977Y153070D01*
X705131Y154041D01*
X705360Y154996D01*
X705664Y155930D01*
X706039Y156837D01*
X706485Y157712D01*
X706999Y158550D01*
X707576Y159345D01*
X708214Y160092D01*
X708908Y160786D01*
X709655Y161424D01*
X710450Y162001D01*
X711288Y162515D01*
X712163Y162961D01*
X713070Y163336D01*
X714004Y163640D01*
X714960Y163869D01*
X715930Y164023D01*
X716909Y164100D01*
X717891Y164100D01*
M02*
