G04 EAGLE Gerber RS-274X export*
G75*
%MOMM*%
%FSLAX34Y34*%
%LPD*%
%INSilkscreen Top*%
%IPPOS*%
%AMOC8*
5,1,8,0,0,1.08239X$1,22.5*%
G01*
%ADD10C,0.127000*%
%ADD11C,0.101600*%
%ADD12C,0.200000*%
%ADD13C,0.254000*%
%ADD14C,0.304800*%
%ADD15C,0.152400*%
%ADD16C,0.076200*%

G36*
X963205Y606976D02*
X963205Y606976D01*
X963305Y606975D01*
X963319Y606979D01*
X963331Y606979D01*
X963374Y606997D01*
X963484Y607033D01*
X967484Y609033D01*
X967519Y609059D01*
X967560Y609078D01*
X967609Y609126D01*
X967663Y609167D01*
X967688Y609204D01*
X967719Y609236D01*
X967748Y609298D01*
X967785Y609355D01*
X967795Y609399D01*
X967814Y609439D01*
X967819Y609508D01*
X967834Y609574D01*
X967828Y609619D01*
X967831Y609663D01*
X967812Y609729D01*
X967803Y609797D01*
X967782Y609836D01*
X967770Y609879D01*
X967729Y609934D01*
X967697Y609994D01*
X967663Y610024D01*
X967637Y610060D01*
X967566Y610109D01*
X967528Y610143D01*
X967507Y610151D01*
X967484Y610167D01*
X963484Y612167D01*
X963388Y612195D01*
X963294Y612227D01*
X963281Y612227D01*
X963268Y612231D01*
X963169Y612224D01*
X963069Y612221D01*
X963058Y612216D01*
X963045Y612215D01*
X962954Y612174D01*
X962862Y612136D01*
X962852Y612128D01*
X962840Y612122D01*
X962769Y612052D01*
X962696Y611985D01*
X962690Y611974D01*
X962681Y611964D01*
X962639Y611874D01*
X962593Y611785D01*
X962591Y611771D01*
X962586Y611761D01*
X962583Y611714D01*
X962566Y611600D01*
X962566Y607600D01*
X962583Y607502D01*
X962597Y607403D01*
X962603Y607392D01*
X962605Y607379D01*
X962656Y607293D01*
X962703Y607206D01*
X962713Y607197D01*
X962720Y607186D01*
X962797Y607123D01*
X962872Y607057D01*
X962884Y607053D01*
X962894Y607045D01*
X962988Y607013D01*
X963081Y606977D01*
X963094Y606977D01*
X963106Y606973D01*
X963205Y606976D01*
G37*
G36*
X963205Y454576D02*
X963205Y454576D01*
X963305Y454575D01*
X963319Y454579D01*
X963331Y454579D01*
X963374Y454597D01*
X963484Y454633D01*
X967484Y456633D01*
X967519Y456659D01*
X967560Y456678D01*
X967609Y456726D01*
X967663Y456767D01*
X967688Y456804D01*
X967719Y456836D01*
X967748Y456898D01*
X967785Y456955D01*
X967795Y456999D01*
X967814Y457039D01*
X967819Y457108D01*
X967834Y457174D01*
X967828Y457219D01*
X967831Y457263D01*
X967812Y457329D01*
X967803Y457397D01*
X967782Y457436D01*
X967770Y457479D01*
X967729Y457534D01*
X967697Y457594D01*
X967663Y457624D01*
X967637Y457660D01*
X967566Y457709D01*
X967528Y457743D01*
X967507Y457751D01*
X967484Y457767D01*
X963484Y459767D01*
X963388Y459795D01*
X963294Y459827D01*
X963281Y459827D01*
X963268Y459831D01*
X963169Y459824D01*
X963069Y459821D01*
X963058Y459816D01*
X963045Y459815D01*
X962954Y459774D01*
X962862Y459736D01*
X962852Y459728D01*
X962840Y459722D01*
X962769Y459652D01*
X962696Y459585D01*
X962690Y459574D01*
X962681Y459564D01*
X962639Y459474D01*
X962593Y459385D01*
X962591Y459371D01*
X962586Y459361D01*
X962583Y459314D01*
X962566Y459200D01*
X962566Y455200D01*
X962583Y455102D01*
X962597Y455003D01*
X962603Y454992D01*
X962605Y454979D01*
X962656Y454893D01*
X962703Y454806D01*
X962713Y454797D01*
X962720Y454786D01*
X962797Y454723D01*
X962872Y454657D01*
X962884Y454653D01*
X962894Y454645D01*
X962988Y454613D01*
X963081Y454577D01*
X963094Y454577D01*
X963106Y454573D01*
X963205Y454576D01*
G37*
G36*
X963205Y302176D02*
X963205Y302176D01*
X963305Y302175D01*
X963319Y302179D01*
X963331Y302179D01*
X963374Y302197D01*
X963484Y302233D01*
X967484Y304233D01*
X967519Y304259D01*
X967560Y304278D01*
X967609Y304326D01*
X967663Y304367D01*
X967688Y304404D01*
X967719Y304436D01*
X967748Y304498D01*
X967785Y304555D01*
X967795Y304599D01*
X967814Y304639D01*
X967819Y304708D01*
X967834Y304774D01*
X967828Y304819D01*
X967831Y304863D01*
X967812Y304929D01*
X967803Y304997D01*
X967782Y305036D01*
X967770Y305079D01*
X967729Y305134D01*
X967697Y305194D01*
X967663Y305224D01*
X967637Y305260D01*
X967566Y305309D01*
X967528Y305343D01*
X967507Y305351D01*
X967484Y305367D01*
X963484Y307367D01*
X963388Y307395D01*
X963294Y307427D01*
X963281Y307427D01*
X963268Y307431D01*
X963169Y307424D01*
X963069Y307421D01*
X963058Y307416D01*
X963045Y307415D01*
X962954Y307374D01*
X962862Y307336D01*
X962852Y307328D01*
X962840Y307322D01*
X962769Y307252D01*
X962696Y307185D01*
X962690Y307174D01*
X962681Y307164D01*
X962639Y307074D01*
X962593Y306985D01*
X962591Y306971D01*
X962586Y306961D01*
X962583Y306914D01*
X962566Y306800D01*
X962566Y302800D01*
X962583Y302702D01*
X962597Y302603D01*
X962603Y302592D01*
X962605Y302579D01*
X962656Y302493D01*
X962703Y302406D01*
X962713Y302397D01*
X962720Y302386D01*
X962797Y302323D01*
X962872Y302257D01*
X962884Y302253D01*
X962894Y302245D01*
X962988Y302213D01*
X963081Y302177D01*
X963094Y302177D01*
X963106Y302173D01*
X963205Y302176D01*
G37*
D10*
X957200Y614600D02*
X973200Y614600D01*
X973200Y604600D02*
X957200Y604600D01*
X967200Y607600D02*
X967200Y611600D01*
D11*
X953008Y622808D02*
X953008Y629920D01*
X954984Y629920D01*
X955070Y629918D01*
X955156Y629912D01*
X955242Y629903D01*
X955327Y629890D01*
X955412Y629873D01*
X955495Y629853D01*
X955578Y629829D01*
X955660Y629801D01*
X955740Y629770D01*
X955819Y629735D01*
X955896Y629697D01*
X955972Y629655D01*
X956046Y629611D01*
X956117Y629563D01*
X956187Y629512D01*
X956254Y629458D01*
X956319Y629401D01*
X956381Y629341D01*
X956441Y629279D01*
X956498Y629214D01*
X956552Y629147D01*
X956603Y629077D01*
X956651Y629006D01*
X956695Y628932D01*
X956737Y628856D01*
X956775Y628779D01*
X956810Y628700D01*
X956841Y628620D01*
X956869Y628538D01*
X956893Y628455D01*
X956913Y628372D01*
X956930Y628287D01*
X956943Y628202D01*
X956952Y628116D01*
X956958Y628030D01*
X956960Y627944D01*
X956959Y627944D02*
X956959Y624784D01*
X956960Y624784D02*
X956958Y624698D01*
X956952Y624612D01*
X956943Y624526D01*
X956930Y624441D01*
X956913Y624356D01*
X956893Y624273D01*
X956869Y624190D01*
X956841Y624108D01*
X956810Y624028D01*
X956775Y623949D01*
X956737Y623872D01*
X956695Y623796D01*
X956651Y623722D01*
X956603Y623651D01*
X956552Y623581D01*
X956498Y623514D01*
X956441Y623449D01*
X956381Y623387D01*
X956319Y623327D01*
X956254Y623270D01*
X956187Y623216D01*
X956117Y623165D01*
X956046Y623117D01*
X955972Y623073D01*
X955896Y623031D01*
X955819Y622993D01*
X955740Y622958D01*
X955660Y622927D01*
X955578Y622899D01*
X955495Y622875D01*
X955412Y622855D01*
X955327Y622838D01*
X955242Y622825D01*
X955156Y622816D01*
X955070Y622810D01*
X954984Y622808D01*
X953008Y622808D01*
X960567Y628340D02*
X962543Y629920D01*
X962543Y622808D01*
X964518Y622808D02*
X960567Y622808D01*
D10*
X957200Y462200D02*
X973200Y462200D01*
X973200Y452200D02*
X957200Y452200D01*
X967200Y455200D02*
X967200Y459200D01*
D11*
X953008Y470408D02*
X953008Y477520D01*
X954984Y477520D01*
X955070Y477518D01*
X955156Y477512D01*
X955242Y477503D01*
X955327Y477490D01*
X955412Y477473D01*
X955495Y477453D01*
X955578Y477429D01*
X955660Y477401D01*
X955740Y477370D01*
X955819Y477335D01*
X955896Y477297D01*
X955972Y477255D01*
X956046Y477211D01*
X956117Y477163D01*
X956187Y477112D01*
X956254Y477058D01*
X956319Y477001D01*
X956381Y476941D01*
X956441Y476879D01*
X956498Y476814D01*
X956552Y476747D01*
X956603Y476677D01*
X956651Y476606D01*
X956695Y476532D01*
X956737Y476456D01*
X956775Y476379D01*
X956810Y476300D01*
X956841Y476220D01*
X956869Y476138D01*
X956893Y476055D01*
X956913Y475972D01*
X956930Y475887D01*
X956943Y475802D01*
X956952Y475716D01*
X956958Y475630D01*
X956960Y475544D01*
X956959Y475544D02*
X956959Y472384D01*
X956960Y472384D02*
X956958Y472298D01*
X956952Y472212D01*
X956943Y472126D01*
X956930Y472041D01*
X956913Y471956D01*
X956893Y471873D01*
X956869Y471790D01*
X956841Y471708D01*
X956810Y471628D01*
X956775Y471549D01*
X956737Y471472D01*
X956695Y471396D01*
X956651Y471322D01*
X956603Y471251D01*
X956552Y471181D01*
X956498Y471114D01*
X956441Y471049D01*
X956381Y470987D01*
X956319Y470927D01*
X956254Y470870D01*
X956187Y470816D01*
X956117Y470765D01*
X956046Y470717D01*
X955972Y470673D01*
X955896Y470631D01*
X955819Y470593D01*
X955740Y470558D01*
X955660Y470527D01*
X955578Y470499D01*
X955495Y470475D01*
X955412Y470455D01*
X955327Y470438D01*
X955242Y470425D01*
X955156Y470416D01*
X955070Y470410D01*
X954984Y470408D01*
X953008Y470408D01*
X962740Y477520D02*
X962822Y477518D01*
X962904Y477512D01*
X962986Y477503D01*
X963067Y477490D01*
X963147Y477473D01*
X963227Y477452D01*
X963305Y477428D01*
X963382Y477400D01*
X963458Y477369D01*
X963533Y477334D01*
X963605Y477295D01*
X963676Y477254D01*
X963745Y477209D01*
X963811Y477161D01*
X963876Y477110D01*
X963938Y477056D01*
X963997Y476999D01*
X964054Y476940D01*
X964108Y476878D01*
X964159Y476813D01*
X964207Y476747D01*
X964252Y476678D01*
X964293Y476607D01*
X964332Y476535D01*
X964367Y476460D01*
X964398Y476384D01*
X964426Y476307D01*
X964450Y476229D01*
X964471Y476149D01*
X964488Y476069D01*
X964501Y475988D01*
X964510Y475906D01*
X964516Y475824D01*
X964518Y475742D01*
X962740Y477520D02*
X962647Y477518D01*
X962555Y477512D01*
X962463Y477503D01*
X962371Y477490D01*
X962280Y477473D01*
X962190Y477453D01*
X962100Y477429D01*
X962012Y477401D01*
X961924Y477369D01*
X961839Y477335D01*
X961754Y477296D01*
X961672Y477255D01*
X961591Y477210D01*
X961511Y477161D01*
X961434Y477110D01*
X961359Y477056D01*
X961287Y476998D01*
X961217Y476938D01*
X961149Y476874D01*
X961084Y476809D01*
X961021Y476740D01*
X960962Y476669D01*
X960905Y476596D01*
X960851Y476520D01*
X960801Y476443D01*
X960753Y476363D01*
X960709Y476282D01*
X960669Y476198D01*
X960631Y476114D01*
X960597Y476027D01*
X960567Y475940D01*
X963925Y474359D02*
X963986Y474420D01*
X964044Y474483D01*
X964099Y474549D01*
X964152Y474617D01*
X964201Y474688D01*
X964246Y474760D01*
X964289Y474835D01*
X964328Y474911D01*
X964364Y474990D01*
X964396Y475069D01*
X964424Y475150D01*
X964449Y475233D01*
X964470Y475316D01*
X964487Y475400D01*
X964501Y475485D01*
X964510Y475570D01*
X964516Y475656D01*
X964518Y475742D01*
X963925Y474359D02*
X960567Y470408D01*
X964518Y470408D01*
D10*
X957200Y309800D02*
X973200Y309800D01*
X973200Y299800D02*
X957200Y299800D01*
X967200Y302800D02*
X967200Y306800D01*
D11*
X953008Y318008D02*
X953008Y325120D01*
X954984Y325120D01*
X955070Y325118D01*
X955156Y325112D01*
X955242Y325103D01*
X955327Y325090D01*
X955412Y325073D01*
X955495Y325053D01*
X955578Y325029D01*
X955660Y325001D01*
X955740Y324970D01*
X955819Y324935D01*
X955896Y324897D01*
X955972Y324855D01*
X956046Y324811D01*
X956117Y324763D01*
X956187Y324712D01*
X956254Y324658D01*
X956319Y324601D01*
X956381Y324541D01*
X956441Y324479D01*
X956498Y324414D01*
X956552Y324347D01*
X956603Y324277D01*
X956651Y324206D01*
X956695Y324132D01*
X956737Y324056D01*
X956775Y323979D01*
X956810Y323900D01*
X956841Y323820D01*
X956869Y323738D01*
X956893Y323655D01*
X956913Y323572D01*
X956930Y323487D01*
X956943Y323402D01*
X956952Y323316D01*
X956958Y323230D01*
X956960Y323144D01*
X956959Y323144D02*
X956959Y319984D01*
X956960Y319984D02*
X956958Y319898D01*
X956952Y319812D01*
X956943Y319726D01*
X956930Y319641D01*
X956913Y319556D01*
X956893Y319473D01*
X956869Y319390D01*
X956841Y319308D01*
X956810Y319228D01*
X956775Y319149D01*
X956737Y319072D01*
X956695Y318996D01*
X956651Y318922D01*
X956603Y318851D01*
X956552Y318781D01*
X956498Y318714D01*
X956441Y318649D01*
X956381Y318587D01*
X956319Y318527D01*
X956254Y318470D01*
X956187Y318416D01*
X956117Y318365D01*
X956046Y318317D01*
X955972Y318273D01*
X955896Y318231D01*
X955819Y318193D01*
X955740Y318158D01*
X955660Y318127D01*
X955578Y318099D01*
X955495Y318075D01*
X955412Y318055D01*
X955327Y318038D01*
X955242Y318025D01*
X955156Y318016D01*
X955070Y318010D01*
X954984Y318008D01*
X953008Y318008D01*
X960567Y318008D02*
X962543Y318008D01*
X962630Y318010D01*
X962718Y318016D01*
X962805Y318025D01*
X962891Y318039D01*
X962977Y318056D01*
X963061Y318077D01*
X963145Y318102D01*
X963228Y318131D01*
X963309Y318163D01*
X963389Y318198D01*
X963467Y318237D01*
X963544Y318280D01*
X963618Y318326D01*
X963690Y318375D01*
X963760Y318427D01*
X963828Y318483D01*
X963893Y318541D01*
X963956Y318602D01*
X964015Y318666D01*
X964072Y318733D01*
X964126Y318801D01*
X964177Y318873D01*
X964224Y318946D01*
X964269Y319021D01*
X964310Y319099D01*
X964347Y319178D01*
X964381Y319258D01*
X964411Y319340D01*
X964438Y319423D01*
X964461Y319508D01*
X964480Y319593D01*
X964495Y319679D01*
X964507Y319766D01*
X964515Y319853D01*
X964519Y319940D01*
X964519Y320028D01*
X964515Y320115D01*
X964507Y320202D01*
X964495Y320289D01*
X964480Y320375D01*
X964461Y320460D01*
X964438Y320545D01*
X964411Y320628D01*
X964381Y320710D01*
X964347Y320790D01*
X964310Y320869D01*
X964269Y320947D01*
X964224Y321022D01*
X964177Y321095D01*
X964126Y321167D01*
X964072Y321235D01*
X964015Y321302D01*
X963956Y321366D01*
X963893Y321427D01*
X963828Y321485D01*
X963760Y321541D01*
X963690Y321593D01*
X963618Y321642D01*
X963544Y321688D01*
X963467Y321731D01*
X963389Y321770D01*
X963309Y321805D01*
X963228Y321837D01*
X963145Y321866D01*
X963061Y321891D01*
X962977Y321912D01*
X962891Y321929D01*
X962805Y321943D01*
X962718Y321952D01*
X962630Y321958D01*
X962543Y321960D01*
X962938Y325120D02*
X960567Y325120D01*
X962938Y325120D02*
X963017Y325118D01*
X963095Y325112D01*
X963173Y325102D01*
X963251Y325089D01*
X963328Y325071D01*
X963404Y325050D01*
X963478Y325025D01*
X963552Y324996D01*
X963624Y324964D01*
X963694Y324928D01*
X963762Y324888D01*
X963828Y324845D01*
X963892Y324799D01*
X963954Y324750D01*
X964013Y324698D01*
X964069Y324643D01*
X964123Y324585D01*
X964173Y324525D01*
X964221Y324462D01*
X964265Y324397D01*
X964306Y324330D01*
X964344Y324261D01*
X964378Y324190D01*
X964409Y324117D01*
X964436Y324043D01*
X964459Y323968D01*
X964478Y323892D01*
X964494Y323814D01*
X964506Y323736D01*
X964514Y323658D01*
X964518Y323579D01*
X964518Y323501D01*
X964514Y323422D01*
X964506Y323344D01*
X964494Y323266D01*
X964478Y323188D01*
X964459Y323112D01*
X964436Y323037D01*
X964409Y322963D01*
X964378Y322890D01*
X964344Y322819D01*
X964306Y322750D01*
X964265Y322683D01*
X964221Y322618D01*
X964173Y322555D01*
X964123Y322495D01*
X964069Y322437D01*
X964013Y322382D01*
X963954Y322330D01*
X963892Y322281D01*
X963828Y322235D01*
X963762Y322192D01*
X963694Y322152D01*
X963624Y322116D01*
X963552Y322084D01*
X963478Y322055D01*
X963404Y322030D01*
X963328Y322009D01*
X963251Y321991D01*
X963173Y321978D01*
X963095Y321968D01*
X963017Y321962D01*
X962938Y321960D01*
X962938Y321959D02*
X961357Y321959D01*
D12*
X828900Y158750D02*
X828907Y159290D01*
X828926Y159829D01*
X828960Y160368D01*
X829006Y160906D01*
X829065Y161443D01*
X829138Y161978D01*
X829224Y162511D01*
X829323Y163042D01*
X829435Y163570D01*
X829559Y164096D01*
X829697Y164618D01*
X829847Y165136D01*
X830010Y165651D01*
X830186Y166162D01*
X830374Y166668D01*
X830575Y167169D01*
X830787Y167665D01*
X831012Y168156D01*
X831249Y168641D01*
X831498Y169121D01*
X831758Y169594D01*
X832030Y170060D01*
X832313Y170520D01*
X832608Y170973D01*
X832913Y171418D01*
X833229Y171855D01*
X833556Y172285D01*
X833894Y172707D01*
X834241Y173120D01*
X834599Y173524D01*
X834967Y173920D01*
X835344Y174306D01*
X835730Y174683D01*
X836126Y175051D01*
X836530Y175409D01*
X836943Y175756D01*
X837365Y176094D01*
X837795Y176421D01*
X838232Y176737D01*
X838677Y177042D01*
X839130Y177337D01*
X839590Y177620D01*
X840056Y177892D01*
X840529Y178152D01*
X841009Y178401D01*
X841494Y178638D01*
X841985Y178863D01*
X842481Y179075D01*
X842982Y179276D01*
X843488Y179464D01*
X843999Y179640D01*
X844514Y179803D01*
X845032Y179953D01*
X845554Y180091D01*
X846080Y180215D01*
X846608Y180327D01*
X847139Y180426D01*
X847672Y180512D01*
X848207Y180585D01*
X848744Y180644D01*
X849282Y180690D01*
X849821Y180724D01*
X850360Y180743D01*
X850900Y180750D01*
X851440Y180743D01*
X851979Y180724D01*
X852518Y180690D01*
X853056Y180644D01*
X853593Y180585D01*
X854128Y180512D01*
X854661Y180426D01*
X855192Y180327D01*
X855720Y180215D01*
X856246Y180091D01*
X856768Y179953D01*
X857286Y179803D01*
X857801Y179640D01*
X858312Y179464D01*
X858818Y179276D01*
X859319Y179075D01*
X859815Y178863D01*
X860306Y178638D01*
X860791Y178401D01*
X861271Y178152D01*
X861744Y177892D01*
X862210Y177620D01*
X862670Y177337D01*
X863123Y177042D01*
X863568Y176737D01*
X864005Y176421D01*
X864435Y176094D01*
X864857Y175756D01*
X865270Y175409D01*
X865674Y175051D01*
X866070Y174683D01*
X866456Y174306D01*
X866833Y173920D01*
X867201Y173524D01*
X867559Y173120D01*
X867906Y172707D01*
X868244Y172285D01*
X868571Y171855D01*
X868887Y171418D01*
X869192Y170973D01*
X869487Y170520D01*
X869770Y170060D01*
X870042Y169594D01*
X870302Y169121D01*
X870551Y168641D01*
X870788Y168156D01*
X871013Y167665D01*
X871225Y167169D01*
X871426Y166668D01*
X871614Y166162D01*
X871790Y165651D01*
X871953Y165136D01*
X872103Y164618D01*
X872241Y164096D01*
X872365Y163570D01*
X872477Y163042D01*
X872576Y162511D01*
X872662Y161978D01*
X872735Y161443D01*
X872794Y160906D01*
X872840Y160368D01*
X872874Y159829D01*
X872893Y159290D01*
X872900Y158750D01*
X872893Y158210D01*
X872874Y157671D01*
X872840Y157132D01*
X872794Y156594D01*
X872735Y156057D01*
X872662Y155522D01*
X872576Y154989D01*
X872477Y154458D01*
X872365Y153930D01*
X872241Y153404D01*
X872103Y152882D01*
X871953Y152364D01*
X871790Y151849D01*
X871614Y151338D01*
X871426Y150832D01*
X871225Y150331D01*
X871013Y149835D01*
X870788Y149344D01*
X870551Y148859D01*
X870302Y148379D01*
X870042Y147906D01*
X869770Y147440D01*
X869487Y146980D01*
X869192Y146527D01*
X868887Y146082D01*
X868571Y145645D01*
X868244Y145215D01*
X867906Y144793D01*
X867559Y144380D01*
X867201Y143976D01*
X866833Y143580D01*
X866456Y143194D01*
X866070Y142817D01*
X865674Y142449D01*
X865270Y142091D01*
X864857Y141744D01*
X864435Y141406D01*
X864005Y141079D01*
X863568Y140763D01*
X863123Y140458D01*
X862670Y140163D01*
X862210Y139880D01*
X861744Y139608D01*
X861271Y139348D01*
X860791Y139099D01*
X860306Y138862D01*
X859815Y138637D01*
X859319Y138425D01*
X858818Y138224D01*
X858312Y138036D01*
X857801Y137860D01*
X857286Y137697D01*
X856768Y137547D01*
X856246Y137409D01*
X855720Y137285D01*
X855192Y137173D01*
X854661Y137074D01*
X854128Y136988D01*
X853593Y136915D01*
X853056Y136856D01*
X852518Y136810D01*
X851979Y136776D01*
X851440Y136757D01*
X850900Y136750D01*
X850360Y136757D01*
X849821Y136776D01*
X849282Y136810D01*
X848744Y136856D01*
X848207Y136915D01*
X847672Y136988D01*
X847139Y137074D01*
X846608Y137173D01*
X846080Y137285D01*
X845554Y137409D01*
X845032Y137547D01*
X844514Y137697D01*
X843999Y137860D01*
X843488Y138036D01*
X842982Y138224D01*
X842481Y138425D01*
X841985Y138637D01*
X841494Y138862D01*
X841009Y139099D01*
X840529Y139348D01*
X840056Y139608D01*
X839590Y139880D01*
X839130Y140163D01*
X838677Y140458D01*
X838232Y140763D01*
X837795Y141079D01*
X837365Y141406D01*
X836943Y141744D01*
X836530Y142091D01*
X836126Y142449D01*
X835730Y142817D01*
X835344Y143194D01*
X834967Y143580D01*
X834599Y143976D01*
X834241Y144380D01*
X833894Y144793D01*
X833556Y145215D01*
X833229Y145645D01*
X832913Y146082D01*
X832608Y146527D01*
X832313Y146980D01*
X832030Y147440D01*
X831758Y147906D01*
X831498Y148379D01*
X831249Y148859D01*
X831012Y149344D01*
X830787Y149835D01*
X830575Y150331D01*
X830374Y150832D01*
X830186Y151338D01*
X830010Y151849D01*
X829847Y152364D01*
X829697Y152882D01*
X829559Y153404D01*
X829435Y153930D01*
X829323Y154458D01*
X829224Y154989D01*
X829138Y155522D01*
X829065Y156057D01*
X829006Y156594D01*
X828960Y157132D01*
X828926Y157671D01*
X828907Y158210D01*
X828900Y158750D01*
X828900Y730250D02*
X828907Y730790D01*
X828926Y731329D01*
X828960Y731868D01*
X829006Y732406D01*
X829065Y732943D01*
X829138Y733478D01*
X829224Y734011D01*
X829323Y734542D01*
X829435Y735070D01*
X829559Y735596D01*
X829697Y736118D01*
X829847Y736636D01*
X830010Y737151D01*
X830186Y737662D01*
X830374Y738168D01*
X830575Y738669D01*
X830787Y739165D01*
X831012Y739656D01*
X831249Y740141D01*
X831498Y740621D01*
X831758Y741094D01*
X832030Y741560D01*
X832313Y742020D01*
X832608Y742473D01*
X832913Y742918D01*
X833229Y743355D01*
X833556Y743785D01*
X833894Y744207D01*
X834241Y744620D01*
X834599Y745024D01*
X834967Y745420D01*
X835344Y745806D01*
X835730Y746183D01*
X836126Y746551D01*
X836530Y746909D01*
X836943Y747256D01*
X837365Y747594D01*
X837795Y747921D01*
X838232Y748237D01*
X838677Y748542D01*
X839130Y748837D01*
X839590Y749120D01*
X840056Y749392D01*
X840529Y749652D01*
X841009Y749901D01*
X841494Y750138D01*
X841985Y750363D01*
X842481Y750575D01*
X842982Y750776D01*
X843488Y750964D01*
X843999Y751140D01*
X844514Y751303D01*
X845032Y751453D01*
X845554Y751591D01*
X846080Y751715D01*
X846608Y751827D01*
X847139Y751926D01*
X847672Y752012D01*
X848207Y752085D01*
X848744Y752144D01*
X849282Y752190D01*
X849821Y752224D01*
X850360Y752243D01*
X850900Y752250D01*
X851440Y752243D01*
X851979Y752224D01*
X852518Y752190D01*
X853056Y752144D01*
X853593Y752085D01*
X854128Y752012D01*
X854661Y751926D01*
X855192Y751827D01*
X855720Y751715D01*
X856246Y751591D01*
X856768Y751453D01*
X857286Y751303D01*
X857801Y751140D01*
X858312Y750964D01*
X858818Y750776D01*
X859319Y750575D01*
X859815Y750363D01*
X860306Y750138D01*
X860791Y749901D01*
X861271Y749652D01*
X861744Y749392D01*
X862210Y749120D01*
X862670Y748837D01*
X863123Y748542D01*
X863568Y748237D01*
X864005Y747921D01*
X864435Y747594D01*
X864857Y747256D01*
X865270Y746909D01*
X865674Y746551D01*
X866070Y746183D01*
X866456Y745806D01*
X866833Y745420D01*
X867201Y745024D01*
X867559Y744620D01*
X867906Y744207D01*
X868244Y743785D01*
X868571Y743355D01*
X868887Y742918D01*
X869192Y742473D01*
X869487Y742020D01*
X869770Y741560D01*
X870042Y741094D01*
X870302Y740621D01*
X870551Y740141D01*
X870788Y739656D01*
X871013Y739165D01*
X871225Y738669D01*
X871426Y738168D01*
X871614Y737662D01*
X871790Y737151D01*
X871953Y736636D01*
X872103Y736118D01*
X872241Y735596D01*
X872365Y735070D01*
X872477Y734542D01*
X872576Y734011D01*
X872662Y733478D01*
X872735Y732943D01*
X872794Y732406D01*
X872840Y731868D01*
X872874Y731329D01*
X872893Y730790D01*
X872900Y730250D01*
X872893Y729710D01*
X872874Y729171D01*
X872840Y728632D01*
X872794Y728094D01*
X872735Y727557D01*
X872662Y727022D01*
X872576Y726489D01*
X872477Y725958D01*
X872365Y725430D01*
X872241Y724904D01*
X872103Y724382D01*
X871953Y723864D01*
X871790Y723349D01*
X871614Y722838D01*
X871426Y722332D01*
X871225Y721831D01*
X871013Y721335D01*
X870788Y720844D01*
X870551Y720359D01*
X870302Y719879D01*
X870042Y719406D01*
X869770Y718940D01*
X869487Y718480D01*
X869192Y718027D01*
X868887Y717582D01*
X868571Y717145D01*
X868244Y716715D01*
X867906Y716293D01*
X867559Y715880D01*
X867201Y715476D01*
X866833Y715080D01*
X866456Y714694D01*
X866070Y714317D01*
X865674Y713949D01*
X865270Y713591D01*
X864857Y713244D01*
X864435Y712906D01*
X864005Y712579D01*
X863568Y712263D01*
X863123Y711958D01*
X862670Y711663D01*
X862210Y711380D01*
X861744Y711108D01*
X861271Y710848D01*
X860791Y710599D01*
X860306Y710362D01*
X859815Y710137D01*
X859319Y709925D01*
X858818Y709724D01*
X858312Y709536D01*
X857801Y709360D01*
X857286Y709197D01*
X856768Y709047D01*
X856246Y708909D01*
X855720Y708785D01*
X855192Y708673D01*
X854661Y708574D01*
X854128Y708488D01*
X853593Y708415D01*
X853056Y708356D01*
X852518Y708310D01*
X851979Y708276D01*
X851440Y708257D01*
X850900Y708250D01*
X850360Y708257D01*
X849821Y708276D01*
X849282Y708310D01*
X848744Y708356D01*
X848207Y708415D01*
X847672Y708488D01*
X847139Y708574D01*
X846608Y708673D01*
X846080Y708785D01*
X845554Y708909D01*
X845032Y709047D01*
X844514Y709197D01*
X843999Y709360D01*
X843488Y709536D01*
X842982Y709724D01*
X842481Y709925D01*
X841985Y710137D01*
X841494Y710362D01*
X841009Y710599D01*
X840529Y710848D01*
X840056Y711108D01*
X839590Y711380D01*
X839130Y711663D01*
X838677Y711958D01*
X838232Y712263D01*
X837795Y712579D01*
X837365Y712906D01*
X836943Y713244D01*
X836530Y713591D01*
X836126Y713949D01*
X835730Y714317D01*
X835344Y714694D01*
X834967Y715080D01*
X834599Y715476D01*
X834241Y715880D01*
X833894Y716293D01*
X833556Y716715D01*
X833229Y717145D01*
X832913Y717582D01*
X832608Y718027D01*
X832313Y718480D01*
X832030Y718940D01*
X831758Y719406D01*
X831498Y719879D01*
X831249Y720359D01*
X831012Y720844D01*
X830787Y721335D01*
X830575Y721831D01*
X830374Y722332D01*
X830186Y722838D01*
X830010Y723349D01*
X829847Y723864D01*
X829697Y724382D01*
X829559Y724904D01*
X829435Y725430D01*
X829323Y725958D01*
X829224Y726489D01*
X829138Y727022D01*
X829065Y727557D01*
X829006Y728094D01*
X828960Y728632D01*
X828926Y729171D01*
X828907Y729710D01*
X828900Y730250D01*
X66900Y158750D02*
X66907Y159290D01*
X66926Y159829D01*
X66960Y160368D01*
X67006Y160906D01*
X67065Y161443D01*
X67138Y161978D01*
X67224Y162511D01*
X67323Y163042D01*
X67435Y163570D01*
X67559Y164096D01*
X67697Y164618D01*
X67847Y165136D01*
X68010Y165651D01*
X68186Y166162D01*
X68374Y166668D01*
X68575Y167169D01*
X68787Y167665D01*
X69012Y168156D01*
X69249Y168641D01*
X69498Y169121D01*
X69758Y169594D01*
X70030Y170060D01*
X70313Y170520D01*
X70608Y170973D01*
X70913Y171418D01*
X71229Y171855D01*
X71556Y172285D01*
X71894Y172707D01*
X72241Y173120D01*
X72599Y173524D01*
X72967Y173920D01*
X73344Y174306D01*
X73730Y174683D01*
X74126Y175051D01*
X74530Y175409D01*
X74943Y175756D01*
X75365Y176094D01*
X75795Y176421D01*
X76232Y176737D01*
X76677Y177042D01*
X77130Y177337D01*
X77590Y177620D01*
X78056Y177892D01*
X78529Y178152D01*
X79009Y178401D01*
X79494Y178638D01*
X79985Y178863D01*
X80481Y179075D01*
X80982Y179276D01*
X81488Y179464D01*
X81999Y179640D01*
X82514Y179803D01*
X83032Y179953D01*
X83554Y180091D01*
X84080Y180215D01*
X84608Y180327D01*
X85139Y180426D01*
X85672Y180512D01*
X86207Y180585D01*
X86744Y180644D01*
X87282Y180690D01*
X87821Y180724D01*
X88360Y180743D01*
X88900Y180750D01*
X89440Y180743D01*
X89979Y180724D01*
X90518Y180690D01*
X91056Y180644D01*
X91593Y180585D01*
X92128Y180512D01*
X92661Y180426D01*
X93192Y180327D01*
X93720Y180215D01*
X94246Y180091D01*
X94768Y179953D01*
X95286Y179803D01*
X95801Y179640D01*
X96312Y179464D01*
X96818Y179276D01*
X97319Y179075D01*
X97815Y178863D01*
X98306Y178638D01*
X98791Y178401D01*
X99271Y178152D01*
X99744Y177892D01*
X100210Y177620D01*
X100670Y177337D01*
X101123Y177042D01*
X101568Y176737D01*
X102005Y176421D01*
X102435Y176094D01*
X102857Y175756D01*
X103270Y175409D01*
X103674Y175051D01*
X104070Y174683D01*
X104456Y174306D01*
X104833Y173920D01*
X105201Y173524D01*
X105559Y173120D01*
X105906Y172707D01*
X106244Y172285D01*
X106571Y171855D01*
X106887Y171418D01*
X107192Y170973D01*
X107487Y170520D01*
X107770Y170060D01*
X108042Y169594D01*
X108302Y169121D01*
X108551Y168641D01*
X108788Y168156D01*
X109013Y167665D01*
X109225Y167169D01*
X109426Y166668D01*
X109614Y166162D01*
X109790Y165651D01*
X109953Y165136D01*
X110103Y164618D01*
X110241Y164096D01*
X110365Y163570D01*
X110477Y163042D01*
X110576Y162511D01*
X110662Y161978D01*
X110735Y161443D01*
X110794Y160906D01*
X110840Y160368D01*
X110874Y159829D01*
X110893Y159290D01*
X110900Y158750D01*
X110893Y158210D01*
X110874Y157671D01*
X110840Y157132D01*
X110794Y156594D01*
X110735Y156057D01*
X110662Y155522D01*
X110576Y154989D01*
X110477Y154458D01*
X110365Y153930D01*
X110241Y153404D01*
X110103Y152882D01*
X109953Y152364D01*
X109790Y151849D01*
X109614Y151338D01*
X109426Y150832D01*
X109225Y150331D01*
X109013Y149835D01*
X108788Y149344D01*
X108551Y148859D01*
X108302Y148379D01*
X108042Y147906D01*
X107770Y147440D01*
X107487Y146980D01*
X107192Y146527D01*
X106887Y146082D01*
X106571Y145645D01*
X106244Y145215D01*
X105906Y144793D01*
X105559Y144380D01*
X105201Y143976D01*
X104833Y143580D01*
X104456Y143194D01*
X104070Y142817D01*
X103674Y142449D01*
X103270Y142091D01*
X102857Y141744D01*
X102435Y141406D01*
X102005Y141079D01*
X101568Y140763D01*
X101123Y140458D01*
X100670Y140163D01*
X100210Y139880D01*
X99744Y139608D01*
X99271Y139348D01*
X98791Y139099D01*
X98306Y138862D01*
X97815Y138637D01*
X97319Y138425D01*
X96818Y138224D01*
X96312Y138036D01*
X95801Y137860D01*
X95286Y137697D01*
X94768Y137547D01*
X94246Y137409D01*
X93720Y137285D01*
X93192Y137173D01*
X92661Y137074D01*
X92128Y136988D01*
X91593Y136915D01*
X91056Y136856D01*
X90518Y136810D01*
X89979Y136776D01*
X89440Y136757D01*
X88900Y136750D01*
X88360Y136757D01*
X87821Y136776D01*
X87282Y136810D01*
X86744Y136856D01*
X86207Y136915D01*
X85672Y136988D01*
X85139Y137074D01*
X84608Y137173D01*
X84080Y137285D01*
X83554Y137409D01*
X83032Y137547D01*
X82514Y137697D01*
X81999Y137860D01*
X81488Y138036D01*
X80982Y138224D01*
X80481Y138425D01*
X79985Y138637D01*
X79494Y138862D01*
X79009Y139099D01*
X78529Y139348D01*
X78056Y139608D01*
X77590Y139880D01*
X77130Y140163D01*
X76677Y140458D01*
X76232Y140763D01*
X75795Y141079D01*
X75365Y141406D01*
X74943Y141744D01*
X74530Y142091D01*
X74126Y142449D01*
X73730Y142817D01*
X73344Y143194D01*
X72967Y143580D01*
X72599Y143976D01*
X72241Y144380D01*
X71894Y144793D01*
X71556Y145215D01*
X71229Y145645D01*
X70913Y146082D01*
X70608Y146527D01*
X70313Y146980D01*
X70030Y147440D01*
X69758Y147906D01*
X69498Y148379D01*
X69249Y148859D01*
X69012Y149344D01*
X68787Y149835D01*
X68575Y150331D01*
X68374Y150832D01*
X68186Y151338D01*
X68010Y151849D01*
X67847Y152364D01*
X67697Y152882D01*
X67559Y153404D01*
X67435Y153930D01*
X67323Y154458D01*
X67224Y154989D01*
X67138Y155522D01*
X67065Y156057D01*
X67006Y156594D01*
X66960Y157132D01*
X66926Y157671D01*
X66907Y158210D01*
X66900Y158750D01*
X66900Y730250D02*
X66907Y730790D01*
X66926Y731329D01*
X66960Y731868D01*
X67006Y732406D01*
X67065Y732943D01*
X67138Y733478D01*
X67224Y734011D01*
X67323Y734542D01*
X67435Y735070D01*
X67559Y735596D01*
X67697Y736118D01*
X67847Y736636D01*
X68010Y737151D01*
X68186Y737662D01*
X68374Y738168D01*
X68575Y738669D01*
X68787Y739165D01*
X69012Y739656D01*
X69249Y740141D01*
X69498Y740621D01*
X69758Y741094D01*
X70030Y741560D01*
X70313Y742020D01*
X70608Y742473D01*
X70913Y742918D01*
X71229Y743355D01*
X71556Y743785D01*
X71894Y744207D01*
X72241Y744620D01*
X72599Y745024D01*
X72967Y745420D01*
X73344Y745806D01*
X73730Y746183D01*
X74126Y746551D01*
X74530Y746909D01*
X74943Y747256D01*
X75365Y747594D01*
X75795Y747921D01*
X76232Y748237D01*
X76677Y748542D01*
X77130Y748837D01*
X77590Y749120D01*
X78056Y749392D01*
X78529Y749652D01*
X79009Y749901D01*
X79494Y750138D01*
X79985Y750363D01*
X80481Y750575D01*
X80982Y750776D01*
X81488Y750964D01*
X81999Y751140D01*
X82514Y751303D01*
X83032Y751453D01*
X83554Y751591D01*
X84080Y751715D01*
X84608Y751827D01*
X85139Y751926D01*
X85672Y752012D01*
X86207Y752085D01*
X86744Y752144D01*
X87282Y752190D01*
X87821Y752224D01*
X88360Y752243D01*
X88900Y752250D01*
X89440Y752243D01*
X89979Y752224D01*
X90518Y752190D01*
X91056Y752144D01*
X91593Y752085D01*
X92128Y752012D01*
X92661Y751926D01*
X93192Y751827D01*
X93720Y751715D01*
X94246Y751591D01*
X94768Y751453D01*
X95286Y751303D01*
X95801Y751140D01*
X96312Y750964D01*
X96818Y750776D01*
X97319Y750575D01*
X97815Y750363D01*
X98306Y750138D01*
X98791Y749901D01*
X99271Y749652D01*
X99744Y749392D01*
X100210Y749120D01*
X100670Y748837D01*
X101123Y748542D01*
X101568Y748237D01*
X102005Y747921D01*
X102435Y747594D01*
X102857Y747256D01*
X103270Y746909D01*
X103674Y746551D01*
X104070Y746183D01*
X104456Y745806D01*
X104833Y745420D01*
X105201Y745024D01*
X105559Y744620D01*
X105906Y744207D01*
X106244Y743785D01*
X106571Y743355D01*
X106887Y742918D01*
X107192Y742473D01*
X107487Y742020D01*
X107770Y741560D01*
X108042Y741094D01*
X108302Y740621D01*
X108551Y740141D01*
X108788Y739656D01*
X109013Y739165D01*
X109225Y738669D01*
X109426Y738168D01*
X109614Y737662D01*
X109790Y737151D01*
X109953Y736636D01*
X110103Y736118D01*
X110241Y735596D01*
X110365Y735070D01*
X110477Y734542D01*
X110576Y734011D01*
X110662Y733478D01*
X110735Y732943D01*
X110794Y732406D01*
X110840Y731868D01*
X110874Y731329D01*
X110893Y730790D01*
X110900Y730250D01*
X110893Y729710D01*
X110874Y729171D01*
X110840Y728632D01*
X110794Y728094D01*
X110735Y727557D01*
X110662Y727022D01*
X110576Y726489D01*
X110477Y725958D01*
X110365Y725430D01*
X110241Y724904D01*
X110103Y724382D01*
X109953Y723864D01*
X109790Y723349D01*
X109614Y722838D01*
X109426Y722332D01*
X109225Y721831D01*
X109013Y721335D01*
X108788Y720844D01*
X108551Y720359D01*
X108302Y719879D01*
X108042Y719406D01*
X107770Y718940D01*
X107487Y718480D01*
X107192Y718027D01*
X106887Y717582D01*
X106571Y717145D01*
X106244Y716715D01*
X105906Y716293D01*
X105559Y715880D01*
X105201Y715476D01*
X104833Y715080D01*
X104456Y714694D01*
X104070Y714317D01*
X103674Y713949D01*
X103270Y713591D01*
X102857Y713244D01*
X102435Y712906D01*
X102005Y712579D01*
X101568Y712263D01*
X101123Y711958D01*
X100670Y711663D01*
X100210Y711380D01*
X99744Y711108D01*
X99271Y710848D01*
X98791Y710599D01*
X98306Y710362D01*
X97815Y710137D01*
X97319Y709925D01*
X96818Y709724D01*
X96312Y709536D01*
X95801Y709360D01*
X95286Y709197D01*
X94768Y709047D01*
X94246Y708909D01*
X93720Y708785D01*
X93192Y708673D01*
X92661Y708574D01*
X92128Y708488D01*
X91593Y708415D01*
X91056Y708356D01*
X90518Y708310D01*
X89979Y708276D01*
X89440Y708257D01*
X88900Y708250D01*
X88360Y708257D01*
X87821Y708276D01*
X87282Y708310D01*
X86744Y708356D01*
X86207Y708415D01*
X85672Y708488D01*
X85139Y708574D01*
X84608Y708673D01*
X84080Y708785D01*
X83554Y708909D01*
X83032Y709047D01*
X82514Y709197D01*
X81999Y709360D01*
X81488Y709536D01*
X80982Y709724D01*
X80481Y709925D01*
X79985Y710137D01*
X79494Y710362D01*
X79009Y710599D01*
X78529Y710848D01*
X78056Y711108D01*
X77590Y711380D01*
X77130Y711663D01*
X76677Y711958D01*
X76232Y712263D01*
X75795Y712579D01*
X75365Y712906D01*
X74943Y713244D01*
X74530Y713591D01*
X74126Y713949D01*
X73730Y714317D01*
X73344Y714694D01*
X72967Y715080D01*
X72599Y715476D01*
X72241Y715880D01*
X71894Y716293D01*
X71556Y716715D01*
X71229Y717145D01*
X70913Y717582D01*
X70608Y718027D01*
X70313Y718480D01*
X70030Y718940D01*
X69758Y719406D01*
X69498Y719879D01*
X69249Y720359D01*
X69012Y720844D01*
X68787Y721335D01*
X68575Y721831D01*
X68374Y722332D01*
X68186Y722838D01*
X68010Y723349D01*
X67847Y723864D01*
X67697Y724382D01*
X67559Y724904D01*
X67435Y725430D01*
X67323Y725958D01*
X67224Y726489D01*
X67138Y727022D01*
X67065Y727557D01*
X67006Y728094D01*
X66960Y728632D01*
X66926Y729171D01*
X66907Y729710D01*
X66900Y730250D01*
D13*
X850900Y132080D02*
X851514Y132087D01*
X852127Y132110D01*
X852740Y132147D01*
X853351Y132199D01*
X853962Y132265D01*
X854570Y132347D01*
X855176Y132443D01*
X855780Y132553D01*
X856381Y132678D01*
X856979Y132818D01*
X857573Y132972D01*
X858163Y133141D01*
X858749Y133323D01*
X859330Y133520D01*
X859907Y133731D01*
X860478Y133955D01*
X861044Y134193D01*
X861604Y134445D01*
X862157Y134711D01*
X862704Y134989D01*
X863244Y135281D01*
X863777Y135586D01*
X864302Y135904D01*
X864820Y136234D01*
X865329Y136576D01*
X865830Y136931D01*
X866322Y137298D01*
X866805Y137676D01*
X867279Y138066D01*
X867743Y138468D01*
X868198Y138880D01*
X868642Y139304D01*
X869076Y139738D01*
X869500Y140182D01*
X869912Y140637D01*
X870314Y141101D01*
X870704Y141575D01*
X871082Y142058D01*
X871449Y142550D01*
X871804Y143051D01*
X872146Y143560D01*
X872476Y144078D01*
X872794Y144603D01*
X873099Y145136D01*
X873391Y145676D01*
X873669Y146223D01*
X873935Y146776D01*
X874187Y147336D01*
X874425Y147902D01*
X874649Y148473D01*
X874860Y149050D01*
X875057Y149631D01*
X875239Y150217D01*
X875408Y150807D01*
X875562Y151401D01*
X875702Y151999D01*
X875827Y152600D01*
X875937Y153204D01*
X876033Y153810D01*
X876115Y154418D01*
X876181Y155029D01*
X876233Y155640D01*
X876270Y156253D01*
X876293Y156866D01*
X876300Y157480D01*
X876300Y731520D01*
X876293Y732134D01*
X876270Y732747D01*
X876233Y733360D01*
X876181Y733971D01*
X876115Y734582D01*
X876033Y735190D01*
X875937Y735796D01*
X875827Y736400D01*
X875702Y737001D01*
X875562Y737599D01*
X875408Y738193D01*
X875239Y738783D01*
X875057Y739369D01*
X874860Y739950D01*
X874649Y740527D01*
X874425Y741098D01*
X874187Y741664D01*
X873935Y742224D01*
X873669Y742777D01*
X873391Y743324D01*
X873099Y743864D01*
X872794Y744397D01*
X872476Y744922D01*
X872146Y745440D01*
X871804Y745949D01*
X871449Y746450D01*
X871082Y746942D01*
X870704Y747425D01*
X870314Y747899D01*
X869912Y748363D01*
X869500Y748818D01*
X869076Y749262D01*
X868642Y749696D01*
X868198Y750120D01*
X867743Y750532D01*
X867279Y750934D01*
X866805Y751324D01*
X866322Y751702D01*
X865830Y752069D01*
X865329Y752424D01*
X864820Y752766D01*
X864302Y753096D01*
X863777Y753414D01*
X863244Y753719D01*
X862704Y754011D01*
X862157Y754289D01*
X861604Y754555D01*
X861044Y754807D01*
X860478Y755045D01*
X859907Y755269D01*
X859330Y755480D01*
X858749Y755677D01*
X858163Y755859D01*
X857573Y756028D01*
X856979Y756182D01*
X856381Y756322D01*
X855780Y756447D01*
X855176Y756557D01*
X854570Y756653D01*
X853962Y756735D01*
X853351Y756801D01*
X852740Y756853D01*
X852127Y756890D01*
X851514Y756913D01*
X850900Y756920D01*
X850286Y756913D01*
X849673Y756890D01*
X849060Y756853D01*
X848449Y756801D01*
X847838Y756735D01*
X847230Y756653D01*
X846624Y756557D01*
X846020Y756447D01*
X845419Y756322D01*
X844821Y756182D01*
X844227Y756028D01*
X843637Y755859D01*
X843051Y755677D01*
X842470Y755480D01*
X841893Y755269D01*
X841322Y755045D01*
X840756Y754807D01*
X840196Y754555D01*
X839643Y754289D01*
X839096Y754011D01*
X838556Y753719D01*
X838023Y753414D01*
X837498Y753096D01*
X836980Y752766D01*
X836471Y752424D01*
X835970Y752069D01*
X835478Y751702D01*
X834995Y751324D01*
X834521Y750934D01*
X834057Y750532D01*
X833602Y750120D01*
X833158Y749696D01*
X832724Y749262D01*
X832300Y748818D01*
X831888Y748363D01*
X831486Y747899D01*
X831096Y747425D01*
X830718Y746942D01*
X830351Y746450D01*
X829996Y745949D01*
X829654Y745440D01*
X829324Y744922D01*
X829006Y744397D01*
X828701Y743864D01*
X828409Y743324D01*
X828131Y742777D01*
X827865Y742224D01*
X827613Y741664D01*
X827375Y741098D01*
X827151Y740527D01*
X826940Y739950D01*
X826743Y739369D01*
X826561Y738783D01*
X826392Y738193D01*
X826238Y737599D01*
X826098Y737001D01*
X825973Y736400D01*
X825863Y735796D01*
X825767Y735190D01*
X825685Y734582D01*
X825619Y733971D01*
X825567Y733360D01*
X825530Y732747D01*
X825507Y732134D01*
X825500Y731520D01*
X825500Y698500D01*
X114300Y698500D01*
X114300Y731520D01*
X114293Y732134D01*
X114270Y732747D01*
X114233Y733360D01*
X114181Y733971D01*
X114115Y734582D01*
X114033Y735190D01*
X113937Y735796D01*
X113827Y736400D01*
X113702Y737001D01*
X113562Y737599D01*
X113408Y738193D01*
X113239Y738783D01*
X113057Y739369D01*
X112860Y739950D01*
X112649Y740527D01*
X112425Y741098D01*
X112187Y741664D01*
X111935Y742224D01*
X111669Y742777D01*
X111391Y743324D01*
X111099Y743864D01*
X110794Y744397D01*
X110476Y744922D01*
X110146Y745440D01*
X109804Y745949D01*
X109449Y746450D01*
X109082Y746942D01*
X108704Y747425D01*
X108314Y747899D01*
X107912Y748363D01*
X107500Y748818D01*
X107076Y749262D01*
X106642Y749696D01*
X106198Y750120D01*
X105743Y750532D01*
X105279Y750934D01*
X104805Y751324D01*
X104322Y751702D01*
X103830Y752069D01*
X103329Y752424D01*
X102820Y752766D01*
X102302Y753096D01*
X101777Y753414D01*
X101244Y753719D01*
X100704Y754011D01*
X100157Y754289D01*
X99604Y754555D01*
X99044Y754807D01*
X98478Y755045D01*
X97907Y755269D01*
X97330Y755480D01*
X96749Y755677D01*
X96163Y755859D01*
X95573Y756028D01*
X94979Y756182D01*
X94381Y756322D01*
X93780Y756447D01*
X93176Y756557D01*
X92570Y756653D01*
X91962Y756735D01*
X91351Y756801D01*
X90740Y756853D01*
X90127Y756890D01*
X89514Y756913D01*
X88900Y756920D01*
X88286Y756913D01*
X87673Y756890D01*
X87060Y756853D01*
X86449Y756801D01*
X85838Y756735D01*
X85230Y756653D01*
X84624Y756557D01*
X84020Y756447D01*
X83419Y756322D01*
X82821Y756182D01*
X82227Y756028D01*
X81637Y755859D01*
X81051Y755677D01*
X80470Y755480D01*
X79893Y755269D01*
X79322Y755045D01*
X78756Y754807D01*
X78196Y754555D01*
X77643Y754289D01*
X77096Y754011D01*
X76556Y753719D01*
X76023Y753414D01*
X75498Y753096D01*
X74980Y752766D01*
X74471Y752424D01*
X73970Y752069D01*
X73478Y751702D01*
X72995Y751324D01*
X72521Y750934D01*
X72057Y750532D01*
X71602Y750120D01*
X71158Y749696D01*
X70724Y749262D01*
X70300Y748818D01*
X69888Y748363D01*
X69486Y747899D01*
X69096Y747425D01*
X68718Y746942D01*
X68351Y746450D01*
X67996Y745949D01*
X67654Y745440D01*
X67324Y744922D01*
X67006Y744397D01*
X66701Y743864D01*
X66409Y743324D01*
X66131Y742777D01*
X65865Y742224D01*
X65613Y741664D01*
X65375Y741098D01*
X65151Y740527D01*
X64940Y739950D01*
X64743Y739369D01*
X64561Y738783D01*
X64392Y738193D01*
X64238Y737599D01*
X64098Y737001D01*
X63973Y736400D01*
X63863Y735796D01*
X63767Y735190D01*
X63685Y734582D01*
X63619Y733971D01*
X63567Y733360D01*
X63530Y732747D01*
X63507Y732134D01*
X63500Y731520D01*
X63500Y157480D01*
X63507Y156866D01*
X63530Y156253D01*
X63567Y155640D01*
X63619Y155029D01*
X63685Y154418D01*
X63767Y153810D01*
X63863Y153204D01*
X63973Y152600D01*
X64098Y151999D01*
X64238Y151401D01*
X64392Y150807D01*
X64561Y150217D01*
X64743Y149631D01*
X64940Y149050D01*
X65151Y148473D01*
X65375Y147902D01*
X65613Y147336D01*
X65865Y146776D01*
X66131Y146223D01*
X66409Y145676D01*
X66701Y145136D01*
X67006Y144603D01*
X67324Y144078D01*
X67654Y143560D01*
X67996Y143051D01*
X68351Y142550D01*
X68718Y142058D01*
X69096Y141575D01*
X69486Y141101D01*
X69888Y140637D01*
X70300Y140182D01*
X70724Y139738D01*
X71158Y139304D01*
X71602Y138880D01*
X72057Y138468D01*
X72521Y138066D01*
X72995Y137676D01*
X73478Y137298D01*
X73970Y136931D01*
X74471Y136576D01*
X74980Y136234D01*
X75498Y135904D01*
X76023Y135586D01*
X76556Y135281D01*
X77096Y134989D01*
X77643Y134711D01*
X78196Y134445D01*
X78756Y134193D01*
X79322Y133955D01*
X79893Y133731D01*
X80470Y133520D01*
X81051Y133323D01*
X81637Y133141D01*
X82227Y132972D01*
X82821Y132818D01*
X83419Y132678D01*
X84020Y132553D01*
X84624Y132443D01*
X85230Y132347D01*
X85838Y132265D01*
X86449Y132199D01*
X87060Y132147D01*
X87673Y132110D01*
X88286Y132087D01*
X88900Y132080D01*
X89514Y132087D01*
X90127Y132110D01*
X90740Y132147D01*
X91351Y132199D01*
X91962Y132265D01*
X92570Y132347D01*
X93176Y132443D01*
X93780Y132553D01*
X94381Y132678D01*
X94979Y132818D01*
X95573Y132972D01*
X96163Y133141D01*
X96749Y133323D01*
X97330Y133520D01*
X97907Y133731D01*
X98478Y133955D01*
X99044Y134193D01*
X99604Y134445D01*
X100157Y134711D01*
X100704Y134989D01*
X101244Y135281D01*
X101777Y135586D01*
X102302Y135904D01*
X102820Y136234D01*
X103329Y136576D01*
X103830Y136931D01*
X104322Y137298D01*
X104805Y137676D01*
X105279Y138066D01*
X105743Y138468D01*
X106198Y138880D01*
X106642Y139304D01*
X107076Y139738D01*
X107500Y140182D01*
X107912Y140637D01*
X108314Y141101D01*
X108704Y141575D01*
X109082Y142058D01*
X109449Y142550D01*
X109804Y143051D01*
X110146Y143560D01*
X110476Y144078D01*
X110794Y144603D01*
X111099Y145136D01*
X111391Y145676D01*
X111669Y146223D01*
X111935Y146776D01*
X112187Y147336D01*
X112425Y147902D01*
X112649Y148473D01*
X112860Y149050D01*
X113057Y149631D01*
X113239Y150217D01*
X113408Y150807D01*
X113562Y151401D01*
X113702Y151999D01*
X113827Y152600D01*
X113937Y153204D01*
X114033Y153810D01*
X114115Y154418D01*
X114181Y155029D01*
X114233Y155640D01*
X114270Y156253D01*
X114293Y156866D01*
X114300Y157480D01*
X114300Y190500D01*
X825500Y190500D01*
X825500Y157480D01*
X825507Y156866D01*
X825530Y156253D01*
X825567Y155640D01*
X825619Y155029D01*
X825685Y154418D01*
X825767Y153810D01*
X825863Y153204D01*
X825973Y152600D01*
X826098Y151999D01*
X826238Y151401D01*
X826392Y150807D01*
X826561Y150217D01*
X826743Y149631D01*
X826940Y149050D01*
X827151Y148473D01*
X827375Y147902D01*
X827613Y147336D01*
X827865Y146776D01*
X828131Y146223D01*
X828409Y145676D01*
X828701Y145136D01*
X829006Y144603D01*
X829324Y144078D01*
X829654Y143560D01*
X829996Y143051D01*
X830351Y142550D01*
X830718Y142058D01*
X831096Y141575D01*
X831486Y141101D01*
X831888Y140637D01*
X832300Y140182D01*
X832724Y139738D01*
X833158Y139304D01*
X833602Y138880D01*
X834057Y138468D01*
X834521Y138066D01*
X834995Y137676D01*
X835478Y137298D01*
X835970Y136931D01*
X836471Y136576D01*
X836980Y136234D01*
X837498Y135904D01*
X838023Y135586D01*
X838556Y135281D01*
X839096Y134989D01*
X839643Y134711D01*
X840196Y134445D01*
X840756Y134193D01*
X841322Y133955D01*
X841893Y133731D01*
X842470Y133520D01*
X843051Y133323D01*
X843637Y133141D01*
X844227Y132972D01*
X844821Y132818D01*
X845419Y132678D01*
X846020Y132553D01*
X846624Y132443D01*
X847230Y132347D01*
X847838Y132265D01*
X848449Y132199D01*
X849060Y132147D01*
X849673Y132110D01*
X850286Y132087D01*
X850900Y132080D01*
D14*
X468376Y371199D02*
X468374Y371338D01*
X468368Y371478D01*
X468358Y371616D01*
X468345Y371755D01*
X468327Y371893D01*
X468306Y372031D01*
X468281Y372168D01*
X468251Y372304D01*
X468219Y372440D01*
X468182Y372574D01*
X468141Y372707D01*
X468097Y372839D01*
X468049Y372970D01*
X467998Y373100D01*
X467943Y373228D01*
X467884Y373354D01*
X467822Y373479D01*
X467756Y373602D01*
X467687Y373723D01*
X467615Y373842D01*
X467539Y373959D01*
X467460Y374073D01*
X467378Y374186D01*
X467292Y374296D01*
X467204Y374404D01*
X467113Y374509D01*
X467018Y374611D01*
X466921Y374711D01*
X466821Y374808D01*
X466719Y374903D01*
X466614Y374994D01*
X466506Y375082D01*
X466396Y375168D01*
X466283Y375250D01*
X466169Y375329D01*
X466052Y375405D01*
X465933Y375477D01*
X465812Y375546D01*
X465689Y375612D01*
X465564Y375674D01*
X465438Y375733D01*
X465310Y375788D01*
X465180Y375839D01*
X465049Y375887D01*
X464917Y375931D01*
X464784Y375972D01*
X464650Y376009D01*
X464514Y376041D01*
X464378Y376071D01*
X464241Y376096D01*
X464103Y376117D01*
X463965Y376135D01*
X463826Y376148D01*
X463688Y376158D01*
X463548Y376164D01*
X463409Y376166D01*
X468376Y371199D02*
X468373Y370948D01*
X468364Y370697D01*
X468349Y370446D01*
X468328Y370196D01*
X468301Y369947D01*
X468268Y369698D01*
X468229Y369450D01*
X468184Y369203D01*
X468134Y368957D01*
X468077Y368712D01*
X468015Y368469D01*
X467946Y368227D01*
X467872Y367988D01*
X467793Y367749D01*
X467707Y367513D01*
X467616Y367279D01*
X467520Y367048D01*
X467418Y366818D01*
X467310Y366591D01*
X467197Y366367D01*
X467079Y366146D01*
X466956Y365927D01*
X466827Y365712D01*
X466693Y365499D01*
X466554Y365290D01*
X466410Y365084D01*
X466262Y364882D01*
X466108Y364683D01*
X465950Y364489D01*
X465787Y364297D01*
X465620Y364110D01*
X465448Y363927D01*
X465272Y363748D01*
X450991Y364370D02*
X450852Y364372D01*
X450712Y364378D01*
X450574Y364388D01*
X450435Y364401D01*
X450297Y364419D01*
X450159Y364440D01*
X450022Y364465D01*
X449886Y364495D01*
X449750Y364527D01*
X449616Y364564D01*
X449483Y364605D01*
X449351Y364649D01*
X449220Y364697D01*
X449090Y364748D01*
X448962Y364803D01*
X448836Y364862D01*
X448711Y364924D01*
X448588Y364990D01*
X448467Y365059D01*
X448348Y365131D01*
X448231Y365207D01*
X448117Y365286D01*
X448004Y365368D01*
X447894Y365454D01*
X447786Y365542D01*
X447681Y365633D01*
X447579Y365728D01*
X447479Y365825D01*
X447382Y365925D01*
X447287Y366027D01*
X447196Y366132D01*
X447108Y366240D01*
X447022Y366350D01*
X446940Y366463D01*
X446861Y366577D01*
X446785Y366694D01*
X446713Y366813D01*
X446644Y366934D01*
X446578Y367057D01*
X446516Y367182D01*
X446457Y367308D01*
X446402Y367436D01*
X446351Y367566D01*
X446303Y367697D01*
X446259Y367829D01*
X446218Y367962D01*
X446181Y368096D01*
X446149Y368232D01*
X446119Y368368D01*
X446094Y368505D01*
X446073Y368643D01*
X446055Y368781D01*
X446042Y368920D01*
X446032Y369058D01*
X446026Y369198D01*
X446024Y369337D01*
X446027Y369559D01*
X446035Y369781D01*
X446048Y370002D01*
X446066Y370224D01*
X446090Y370444D01*
X446119Y370664D01*
X446153Y370884D01*
X446193Y371102D01*
X446237Y371319D01*
X446287Y371536D01*
X446342Y371751D01*
X446402Y371964D01*
X446467Y372177D01*
X446538Y372387D01*
X446613Y372596D01*
X446693Y372803D01*
X446778Y373008D01*
X446868Y373211D01*
X446963Y373412D01*
X447062Y373610D01*
X447166Y373806D01*
X447275Y373999D01*
X447389Y374190D01*
X447506Y374378D01*
X447629Y374563D01*
X447756Y374746D01*
X447887Y374925D01*
X455337Y366853D02*
X455266Y366735D01*
X455191Y366619D01*
X455113Y366505D01*
X455032Y366394D01*
X454948Y366285D01*
X454861Y366178D01*
X454771Y366073D01*
X454679Y365971D01*
X454583Y365872D01*
X454485Y365775D01*
X454384Y365681D01*
X454281Y365589D01*
X454175Y365501D01*
X454067Y365415D01*
X453957Y365333D01*
X453844Y365253D01*
X453730Y365177D01*
X453613Y365104D01*
X453494Y365034D01*
X453373Y364967D01*
X453251Y364904D01*
X453127Y364843D01*
X453001Y364787D01*
X452874Y364734D01*
X452746Y364684D01*
X452616Y364638D01*
X452485Y364595D01*
X452352Y364556D01*
X452219Y364521D01*
X452085Y364489D01*
X451950Y364461D01*
X451814Y364437D01*
X451678Y364416D01*
X451541Y364399D01*
X451404Y364386D01*
X451267Y364377D01*
X451129Y364371D01*
X450991Y364369D01*
X459063Y373683D02*
X459134Y373801D01*
X459209Y373917D01*
X459287Y374031D01*
X459368Y374142D01*
X459452Y374251D01*
X459539Y374358D01*
X459629Y374463D01*
X459721Y374565D01*
X459817Y374664D01*
X459915Y374761D01*
X460016Y374855D01*
X460119Y374947D01*
X460225Y375035D01*
X460333Y375121D01*
X460443Y375203D01*
X460556Y375283D01*
X460670Y375359D01*
X460787Y375432D01*
X460906Y375502D01*
X461027Y375569D01*
X461149Y375632D01*
X461273Y375693D01*
X461399Y375749D01*
X461526Y375802D01*
X461654Y375852D01*
X461784Y375898D01*
X461915Y375941D01*
X462048Y375980D01*
X462181Y376015D01*
X462315Y376047D01*
X462450Y376075D01*
X462586Y376099D01*
X462722Y376120D01*
X462859Y376137D01*
X462996Y376150D01*
X463133Y376159D01*
X463271Y376165D01*
X463409Y376167D01*
X459063Y373683D02*
X455337Y366853D01*
X446024Y384864D02*
X468376Y384864D01*
X446024Y384864D02*
X446024Y391073D01*
X446026Y391229D01*
X446032Y391385D01*
X446042Y391541D01*
X446055Y391696D01*
X446073Y391851D01*
X446094Y392006D01*
X446120Y392160D01*
X446149Y392313D01*
X446182Y392465D01*
X446219Y392617D01*
X446260Y392768D01*
X446304Y392917D01*
X446352Y393066D01*
X446404Y393213D01*
X446460Y393359D01*
X446519Y393503D01*
X446582Y393646D01*
X446649Y393787D01*
X446719Y393927D01*
X446792Y394064D01*
X446869Y394200D01*
X446949Y394334D01*
X447033Y394466D01*
X447120Y394595D01*
X447210Y394723D01*
X447303Y394848D01*
X447400Y394970D01*
X447499Y395091D01*
X447601Y395208D01*
X447707Y395323D01*
X447815Y395436D01*
X447926Y395545D01*
X448040Y395652D01*
X448156Y395756D01*
X448275Y395857D01*
X448397Y395955D01*
X448521Y396050D01*
X448647Y396142D01*
X448775Y396230D01*
X448906Y396315D01*
X449039Y396397D01*
X449174Y396476D01*
X449310Y396551D01*
X449449Y396623D01*
X449589Y396691D01*
X449731Y396756D01*
X449875Y396817D01*
X450020Y396874D01*
X450167Y396928D01*
X450314Y396978D01*
X450463Y397024D01*
X450613Y397067D01*
X450765Y397106D01*
X450917Y397141D01*
X451070Y397172D01*
X451223Y397199D01*
X451377Y397223D01*
X451532Y397242D01*
X451688Y397258D01*
X451843Y397270D01*
X451999Y397278D01*
X452155Y397282D01*
X452311Y397282D01*
X452467Y397278D01*
X452623Y397270D01*
X452778Y397258D01*
X452934Y397242D01*
X453089Y397223D01*
X453243Y397199D01*
X453396Y397172D01*
X453549Y397141D01*
X453701Y397106D01*
X453853Y397067D01*
X454003Y397024D01*
X454152Y396978D01*
X454299Y396928D01*
X454446Y396874D01*
X454591Y396817D01*
X454735Y396756D01*
X454877Y396691D01*
X455017Y396623D01*
X455156Y396551D01*
X455292Y396476D01*
X455427Y396397D01*
X455560Y396315D01*
X455691Y396230D01*
X455819Y396142D01*
X455945Y396050D01*
X456069Y395955D01*
X456191Y395857D01*
X456310Y395756D01*
X456426Y395652D01*
X456540Y395545D01*
X456651Y395436D01*
X456759Y395323D01*
X456865Y395208D01*
X456967Y395091D01*
X457066Y394970D01*
X457163Y394848D01*
X457256Y394723D01*
X457346Y394595D01*
X457433Y394466D01*
X457517Y394334D01*
X457597Y394200D01*
X457674Y394064D01*
X457747Y393927D01*
X457817Y393787D01*
X457884Y393646D01*
X457947Y393503D01*
X458006Y393359D01*
X458062Y393213D01*
X458114Y393066D01*
X458162Y392917D01*
X458206Y392768D01*
X458247Y392617D01*
X458284Y392465D01*
X458317Y392313D01*
X458346Y392160D01*
X458372Y392006D01*
X458393Y391851D01*
X458411Y391696D01*
X458424Y391541D01*
X458434Y391385D01*
X458440Y391229D01*
X458442Y391073D01*
X458442Y384864D01*
X468376Y406843D02*
X446024Y406843D01*
X468376Y404360D02*
X468376Y409327D01*
X446024Y409327D02*
X446024Y404360D01*
X468376Y435227D02*
X468374Y435366D01*
X468368Y435506D01*
X468358Y435644D01*
X468345Y435783D01*
X468327Y435921D01*
X468306Y436059D01*
X468281Y436196D01*
X468251Y436332D01*
X468219Y436468D01*
X468182Y436602D01*
X468141Y436735D01*
X468097Y436867D01*
X468049Y436998D01*
X467998Y437128D01*
X467943Y437256D01*
X467884Y437382D01*
X467822Y437507D01*
X467756Y437630D01*
X467687Y437751D01*
X467615Y437870D01*
X467539Y437987D01*
X467460Y438101D01*
X467378Y438214D01*
X467292Y438324D01*
X467204Y438432D01*
X467113Y438537D01*
X467018Y438639D01*
X466921Y438739D01*
X466821Y438836D01*
X466719Y438931D01*
X466614Y439022D01*
X466506Y439110D01*
X466396Y439196D01*
X466283Y439278D01*
X466169Y439357D01*
X466052Y439433D01*
X465933Y439505D01*
X465812Y439574D01*
X465689Y439640D01*
X465564Y439702D01*
X465438Y439761D01*
X465310Y439816D01*
X465180Y439867D01*
X465049Y439915D01*
X464917Y439959D01*
X464784Y440000D01*
X464650Y440037D01*
X464514Y440069D01*
X464378Y440099D01*
X464241Y440124D01*
X464103Y440145D01*
X463965Y440163D01*
X463826Y440176D01*
X463688Y440186D01*
X463548Y440192D01*
X463409Y440194D01*
X468376Y435227D02*
X468373Y434976D01*
X468364Y434725D01*
X468349Y434474D01*
X468328Y434224D01*
X468301Y433975D01*
X468268Y433726D01*
X468229Y433478D01*
X468184Y433231D01*
X468134Y432985D01*
X468077Y432740D01*
X468015Y432497D01*
X467946Y432255D01*
X467872Y432016D01*
X467793Y431777D01*
X467707Y431541D01*
X467616Y431307D01*
X467520Y431076D01*
X467418Y430846D01*
X467310Y430619D01*
X467197Y430395D01*
X467079Y430174D01*
X466956Y429955D01*
X466827Y429740D01*
X466693Y429527D01*
X466554Y429318D01*
X466410Y429112D01*
X466262Y428910D01*
X466108Y428711D01*
X465950Y428517D01*
X465787Y428325D01*
X465620Y428138D01*
X465448Y427955D01*
X465272Y427776D01*
X450991Y428398D02*
X450852Y428400D01*
X450712Y428406D01*
X450574Y428416D01*
X450435Y428429D01*
X450297Y428447D01*
X450159Y428468D01*
X450022Y428493D01*
X449886Y428523D01*
X449750Y428555D01*
X449616Y428592D01*
X449483Y428633D01*
X449351Y428677D01*
X449220Y428725D01*
X449090Y428776D01*
X448962Y428831D01*
X448836Y428890D01*
X448711Y428952D01*
X448588Y429018D01*
X448467Y429087D01*
X448348Y429159D01*
X448231Y429235D01*
X448117Y429314D01*
X448004Y429396D01*
X447894Y429482D01*
X447786Y429570D01*
X447681Y429661D01*
X447579Y429756D01*
X447479Y429853D01*
X447382Y429953D01*
X447287Y430055D01*
X447196Y430160D01*
X447108Y430268D01*
X447022Y430378D01*
X446940Y430491D01*
X446861Y430605D01*
X446785Y430722D01*
X446713Y430841D01*
X446644Y430962D01*
X446578Y431085D01*
X446516Y431210D01*
X446457Y431336D01*
X446402Y431464D01*
X446351Y431594D01*
X446303Y431725D01*
X446259Y431857D01*
X446218Y431990D01*
X446181Y432124D01*
X446149Y432260D01*
X446119Y432396D01*
X446094Y432533D01*
X446073Y432671D01*
X446055Y432809D01*
X446042Y432948D01*
X446032Y433086D01*
X446026Y433226D01*
X446024Y433365D01*
X446027Y433587D01*
X446035Y433809D01*
X446048Y434030D01*
X446066Y434252D01*
X446090Y434472D01*
X446119Y434692D01*
X446153Y434912D01*
X446193Y435130D01*
X446237Y435347D01*
X446287Y435564D01*
X446342Y435779D01*
X446402Y435992D01*
X446467Y436205D01*
X446538Y436415D01*
X446613Y436624D01*
X446693Y436831D01*
X446778Y437036D01*
X446868Y437239D01*
X446963Y437440D01*
X447062Y437638D01*
X447166Y437834D01*
X447275Y438027D01*
X447389Y438218D01*
X447506Y438406D01*
X447629Y438591D01*
X447756Y438774D01*
X447887Y438953D01*
X455337Y430881D02*
X455266Y430763D01*
X455191Y430647D01*
X455113Y430533D01*
X455032Y430422D01*
X454948Y430313D01*
X454861Y430206D01*
X454771Y430101D01*
X454679Y429999D01*
X454583Y429900D01*
X454485Y429803D01*
X454384Y429709D01*
X454281Y429617D01*
X454175Y429529D01*
X454067Y429443D01*
X453957Y429361D01*
X453844Y429281D01*
X453730Y429205D01*
X453613Y429132D01*
X453494Y429062D01*
X453373Y428995D01*
X453251Y428932D01*
X453127Y428871D01*
X453001Y428815D01*
X452874Y428762D01*
X452746Y428712D01*
X452616Y428666D01*
X452485Y428623D01*
X452352Y428584D01*
X452219Y428549D01*
X452085Y428517D01*
X451950Y428489D01*
X451814Y428465D01*
X451678Y428444D01*
X451541Y428427D01*
X451404Y428414D01*
X451267Y428405D01*
X451129Y428399D01*
X450991Y428397D01*
X459063Y437711D02*
X459134Y437829D01*
X459209Y437945D01*
X459287Y438059D01*
X459368Y438170D01*
X459452Y438279D01*
X459539Y438386D01*
X459629Y438491D01*
X459721Y438593D01*
X459817Y438692D01*
X459915Y438789D01*
X460016Y438883D01*
X460119Y438975D01*
X460225Y439063D01*
X460333Y439149D01*
X460443Y439231D01*
X460556Y439311D01*
X460670Y439387D01*
X460787Y439460D01*
X460906Y439530D01*
X461027Y439597D01*
X461149Y439660D01*
X461273Y439721D01*
X461399Y439777D01*
X461526Y439830D01*
X461654Y439880D01*
X461784Y439926D01*
X461915Y439969D01*
X462048Y440008D01*
X462181Y440043D01*
X462315Y440075D01*
X462450Y440103D01*
X462586Y440127D01*
X462722Y440148D01*
X462859Y440165D01*
X462996Y440178D01*
X463133Y440187D01*
X463271Y440193D01*
X463409Y440195D01*
X459063Y437711D02*
X455337Y430881D01*
X468376Y451558D02*
X468376Y456525D01*
X468376Y451558D02*
X468374Y451439D01*
X468368Y451319D01*
X468359Y451200D01*
X468345Y451082D01*
X468328Y450963D01*
X468307Y450846D01*
X468283Y450729D01*
X468254Y450613D01*
X468222Y450498D01*
X468186Y450384D01*
X468147Y450272D01*
X468104Y450160D01*
X468057Y450050D01*
X468007Y449942D01*
X467954Y449835D01*
X467897Y449730D01*
X467836Y449627D01*
X467773Y449526D01*
X467706Y449427D01*
X467636Y449330D01*
X467563Y449236D01*
X467487Y449143D01*
X467409Y449054D01*
X467327Y448967D01*
X467242Y448882D01*
X467155Y448800D01*
X467066Y448722D01*
X466973Y448646D01*
X466879Y448573D01*
X466782Y448503D01*
X466683Y448436D01*
X466582Y448373D01*
X466479Y448312D01*
X466374Y448255D01*
X466267Y448202D01*
X466159Y448152D01*
X466049Y448105D01*
X465937Y448062D01*
X465825Y448023D01*
X465711Y447987D01*
X465596Y447955D01*
X465480Y447926D01*
X465363Y447902D01*
X465246Y447881D01*
X465127Y447864D01*
X465009Y447850D01*
X464890Y447841D01*
X464770Y447835D01*
X464651Y447833D01*
X464651Y447832D02*
X457200Y447832D01*
X457200Y447833D02*
X457081Y447835D01*
X456961Y447841D01*
X456842Y447850D01*
X456724Y447864D01*
X456605Y447881D01*
X456488Y447902D01*
X456371Y447926D01*
X456255Y447955D01*
X456140Y447987D01*
X456026Y448023D01*
X455914Y448062D01*
X455802Y448105D01*
X455692Y448152D01*
X455584Y448202D01*
X455477Y448255D01*
X455372Y448312D01*
X455269Y448373D01*
X455168Y448436D01*
X455069Y448503D01*
X454972Y448573D01*
X454878Y448646D01*
X454785Y448722D01*
X454696Y448800D01*
X454609Y448882D01*
X454524Y448967D01*
X454442Y449054D01*
X454364Y449143D01*
X454288Y449236D01*
X454215Y449330D01*
X454145Y449427D01*
X454078Y449526D01*
X454015Y449627D01*
X453954Y449730D01*
X453897Y449835D01*
X453844Y449942D01*
X453794Y450050D01*
X453747Y450160D01*
X453704Y450272D01*
X453665Y450384D01*
X453629Y450498D01*
X453597Y450613D01*
X453568Y450729D01*
X453544Y450846D01*
X453523Y450963D01*
X453506Y451082D01*
X453492Y451200D01*
X453483Y451319D01*
X453477Y451439D01*
X453475Y451558D01*
X453475Y456525D01*
X453475Y464615D02*
X468376Y464615D01*
X453475Y464615D02*
X453475Y472065D01*
X455958Y472065D01*
X468376Y482157D02*
X468376Y488366D01*
X468376Y482157D02*
X468374Y482038D01*
X468368Y481918D01*
X468359Y481799D01*
X468345Y481681D01*
X468328Y481562D01*
X468307Y481445D01*
X468283Y481328D01*
X468254Y481212D01*
X468222Y481097D01*
X468186Y480983D01*
X468147Y480871D01*
X468104Y480759D01*
X468057Y480649D01*
X468007Y480541D01*
X467954Y480434D01*
X467897Y480329D01*
X467836Y480226D01*
X467773Y480125D01*
X467706Y480026D01*
X467636Y479929D01*
X467563Y479835D01*
X467487Y479742D01*
X467409Y479653D01*
X467327Y479566D01*
X467242Y479481D01*
X467155Y479399D01*
X467066Y479321D01*
X466973Y479245D01*
X466879Y479172D01*
X466782Y479102D01*
X466683Y479035D01*
X466582Y478972D01*
X466479Y478911D01*
X466374Y478854D01*
X466267Y478801D01*
X466159Y478751D01*
X466049Y478704D01*
X465937Y478661D01*
X465825Y478622D01*
X465711Y478586D01*
X465596Y478554D01*
X465480Y478525D01*
X465363Y478501D01*
X465246Y478480D01*
X465127Y478463D01*
X465009Y478449D01*
X464890Y478440D01*
X464770Y478434D01*
X464651Y478432D01*
X464651Y478431D02*
X458442Y478431D01*
X458442Y478432D02*
X458303Y478434D01*
X458163Y478440D01*
X458025Y478450D01*
X457886Y478463D01*
X457748Y478481D01*
X457610Y478502D01*
X457473Y478527D01*
X457337Y478557D01*
X457201Y478589D01*
X457067Y478626D01*
X456934Y478667D01*
X456802Y478711D01*
X456671Y478759D01*
X456541Y478810D01*
X456413Y478865D01*
X456287Y478924D01*
X456162Y478986D01*
X456039Y479052D01*
X455918Y479121D01*
X455799Y479193D01*
X455682Y479269D01*
X455568Y479348D01*
X455455Y479430D01*
X455345Y479516D01*
X455237Y479604D01*
X455132Y479695D01*
X455030Y479790D01*
X454930Y479887D01*
X454833Y479987D01*
X454738Y480089D01*
X454647Y480194D01*
X454559Y480302D01*
X454473Y480412D01*
X454391Y480525D01*
X454312Y480639D01*
X454236Y480756D01*
X454164Y480875D01*
X454095Y480996D01*
X454029Y481119D01*
X453967Y481244D01*
X453908Y481370D01*
X453853Y481498D01*
X453802Y481628D01*
X453754Y481759D01*
X453710Y481891D01*
X453669Y482024D01*
X453632Y482158D01*
X453600Y482294D01*
X453570Y482430D01*
X453545Y482567D01*
X453524Y482705D01*
X453506Y482843D01*
X453493Y482982D01*
X453483Y483120D01*
X453477Y483260D01*
X453475Y483399D01*
X453477Y483538D01*
X453483Y483678D01*
X453493Y483816D01*
X453506Y483955D01*
X453524Y484093D01*
X453545Y484231D01*
X453570Y484368D01*
X453600Y484504D01*
X453632Y484640D01*
X453669Y484774D01*
X453710Y484907D01*
X453754Y485039D01*
X453802Y485170D01*
X453853Y485300D01*
X453908Y485428D01*
X453967Y485554D01*
X454029Y485679D01*
X454095Y485802D01*
X454164Y485923D01*
X454236Y486042D01*
X454312Y486159D01*
X454391Y486273D01*
X454473Y486386D01*
X454559Y486496D01*
X454647Y486604D01*
X454738Y486709D01*
X454833Y486811D01*
X454930Y486911D01*
X455030Y487008D01*
X455132Y487103D01*
X455237Y487194D01*
X455345Y487282D01*
X455455Y487368D01*
X455568Y487450D01*
X455682Y487529D01*
X455799Y487605D01*
X455918Y487677D01*
X456039Y487746D01*
X456162Y487812D01*
X456287Y487874D01*
X456413Y487933D01*
X456541Y487988D01*
X456671Y488039D01*
X456802Y488087D01*
X456934Y488131D01*
X457067Y488172D01*
X457201Y488209D01*
X457337Y488241D01*
X457473Y488271D01*
X457610Y488296D01*
X457748Y488317D01*
X457886Y488335D01*
X458025Y488348D01*
X458163Y488358D01*
X458303Y488364D01*
X458442Y488366D01*
X460925Y488366D01*
X460925Y478431D01*
X468376Y500252D02*
X468376Y506461D01*
X468376Y500252D02*
X468374Y500133D01*
X468368Y500013D01*
X468359Y499894D01*
X468345Y499776D01*
X468328Y499657D01*
X468307Y499540D01*
X468283Y499423D01*
X468254Y499307D01*
X468222Y499192D01*
X468186Y499078D01*
X468147Y498966D01*
X468104Y498854D01*
X468057Y498744D01*
X468007Y498636D01*
X467954Y498529D01*
X467897Y498424D01*
X467836Y498321D01*
X467773Y498220D01*
X467706Y498121D01*
X467636Y498024D01*
X467563Y497930D01*
X467487Y497837D01*
X467409Y497748D01*
X467327Y497661D01*
X467242Y497576D01*
X467155Y497494D01*
X467066Y497416D01*
X466973Y497340D01*
X466879Y497267D01*
X466782Y497197D01*
X466683Y497130D01*
X466582Y497067D01*
X466479Y497006D01*
X466374Y496949D01*
X466267Y496896D01*
X466159Y496846D01*
X466049Y496799D01*
X465937Y496756D01*
X465825Y496717D01*
X465711Y496681D01*
X465596Y496649D01*
X465480Y496620D01*
X465363Y496596D01*
X465246Y496575D01*
X465127Y496558D01*
X465009Y496544D01*
X464890Y496535D01*
X464770Y496529D01*
X464651Y496527D01*
X464651Y496526D02*
X458442Y496526D01*
X458303Y496528D01*
X458163Y496534D01*
X458025Y496544D01*
X457886Y496557D01*
X457748Y496575D01*
X457610Y496596D01*
X457473Y496621D01*
X457337Y496651D01*
X457201Y496683D01*
X457067Y496720D01*
X456934Y496761D01*
X456802Y496805D01*
X456671Y496853D01*
X456541Y496904D01*
X456413Y496959D01*
X456287Y497018D01*
X456162Y497080D01*
X456039Y497146D01*
X455918Y497215D01*
X455799Y497287D01*
X455682Y497363D01*
X455568Y497442D01*
X455455Y497524D01*
X455345Y497610D01*
X455237Y497698D01*
X455132Y497789D01*
X455030Y497884D01*
X454930Y497981D01*
X454833Y498081D01*
X454738Y498183D01*
X454647Y498288D01*
X454559Y498396D01*
X454473Y498506D01*
X454391Y498619D01*
X454312Y498733D01*
X454236Y498850D01*
X454164Y498969D01*
X454095Y499090D01*
X454029Y499213D01*
X453967Y499338D01*
X453908Y499464D01*
X453853Y499592D01*
X453802Y499722D01*
X453754Y499853D01*
X453710Y499985D01*
X453669Y500118D01*
X453632Y500252D01*
X453600Y500388D01*
X453570Y500524D01*
X453545Y500661D01*
X453524Y500799D01*
X453506Y500937D01*
X453493Y501076D01*
X453483Y501214D01*
X453477Y501354D01*
X453475Y501493D01*
X453477Y501632D01*
X453483Y501772D01*
X453493Y501910D01*
X453506Y502049D01*
X453524Y502187D01*
X453545Y502325D01*
X453570Y502462D01*
X453600Y502598D01*
X453632Y502734D01*
X453669Y502868D01*
X453710Y503001D01*
X453754Y503133D01*
X453802Y503264D01*
X453853Y503394D01*
X453908Y503522D01*
X453967Y503648D01*
X454029Y503773D01*
X454095Y503896D01*
X454164Y504017D01*
X454236Y504136D01*
X454312Y504253D01*
X454391Y504367D01*
X454473Y504480D01*
X454559Y504590D01*
X454647Y504698D01*
X454738Y504803D01*
X454833Y504905D01*
X454930Y505005D01*
X455030Y505102D01*
X455132Y505197D01*
X455237Y505288D01*
X455345Y505376D01*
X455455Y505462D01*
X455568Y505544D01*
X455682Y505623D01*
X455799Y505699D01*
X455918Y505771D01*
X456039Y505840D01*
X456162Y505906D01*
X456287Y505968D01*
X456413Y506027D01*
X456541Y506082D01*
X456671Y506133D01*
X456802Y506181D01*
X456934Y506225D01*
X457067Y506266D01*
X457201Y506303D01*
X457337Y506335D01*
X457473Y506365D01*
X457610Y506390D01*
X457748Y506411D01*
X457886Y506429D01*
X458025Y506442D01*
X458163Y506452D01*
X458303Y506458D01*
X458442Y506460D01*
X458442Y506461D02*
X460925Y506461D01*
X460925Y496526D01*
X453475Y515317D02*
X468376Y515317D01*
X453475Y515317D02*
X453475Y521526D01*
X453477Y521648D01*
X453483Y521770D01*
X453493Y521891D01*
X453507Y522012D01*
X453525Y522133D01*
X453547Y522253D01*
X453572Y522372D01*
X453602Y522490D01*
X453635Y522607D01*
X453673Y522723D01*
X453714Y522838D01*
X453759Y522951D01*
X453807Y523063D01*
X453859Y523174D01*
X453915Y523282D01*
X453974Y523388D01*
X454037Y523493D01*
X454103Y523595D01*
X454172Y523696D01*
X454245Y523794D01*
X454321Y523889D01*
X454399Y523982D01*
X454481Y524072D01*
X454566Y524160D01*
X454654Y524245D01*
X454744Y524327D01*
X454837Y524405D01*
X454932Y524481D01*
X455030Y524554D01*
X455130Y524623D01*
X455233Y524689D01*
X455337Y524752D01*
X455444Y524811D01*
X455552Y524867D01*
X455663Y524919D01*
X455774Y524967D01*
X455888Y525012D01*
X456003Y525053D01*
X456119Y525091D01*
X456236Y525124D01*
X456354Y525154D01*
X456473Y525179D01*
X456593Y525201D01*
X456714Y525219D01*
X456835Y525233D01*
X456956Y525243D01*
X457078Y525249D01*
X457200Y525251D01*
X468376Y525251D01*
D15*
X121892Y689977D02*
X118166Y689977D01*
X121892Y689977D02*
X124686Y692150D01*
X121892Y689977D02*
X124686Y687804D01*
X121892Y689977D02*
X120650Y693392D01*
X121892Y689977D02*
X120650Y686562D01*
X47554Y194987D02*
X38862Y194987D01*
X47554Y194988D02*
X47652Y194986D01*
X47749Y194980D01*
X47846Y194971D01*
X47943Y194957D01*
X48039Y194940D01*
X48134Y194919D01*
X48228Y194895D01*
X48322Y194866D01*
X48414Y194834D01*
X48505Y194799D01*
X48594Y194760D01*
X48682Y194717D01*
X48768Y194671D01*
X48852Y194622D01*
X48934Y194569D01*
X49014Y194514D01*
X49092Y194455D01*
X49167Y194393D01*
X49240Y194328D01*
X49310Y194260D01*
X49378Y194190D01*
X49443Y194117D01*
X49505Y194042D01*
X49564Y193964D01*
X49619Y193884D01*
X49672Y193802D01*
X49721Y193718D01*
X49767Y193632D01*
X49810Y193544D01*
X49849Y193455D01*
X49884Y193364D01*
X49916Y193272D01*
X49945Y193178D01*
X49969Y193084D01*
X49990Y192989D01*
X50007Y192893D01*
X50021Y192796D01*
X50030Y192699D01*
X50036Y192601D01*
X50038Y192504D01*
X50038Y191262D01*
X41346Y200531D02*
X38862Y203636D01*
X50038Y203636D01*
X50038Y206740D02*
X50038Y200531D01*
D10*
X204000Y51600D02*
X254000Y51600D01*
X164000Y51600D02*
X129000Y51600D01*
X129000Y151600D01*
X164000Y151600D01*
X204000Y151600D02*
X254000Y151600D01*
X254000Y141600D01*
X254000Y61600D02*
X254000Y51600D01*
X154000Y101600D02*
X154009Y102336D01*
X154036Y103072D01*
X154081Y103807D01*
X154144Y104541D01*
X154226Y105272D01*
X154325Y106002D01*
X154442Y106729D01*
X154576Y107453D01*
X154729Y108173D01*
X154899Y108889D01*
X155087Y109601D01*
X155292Y110309D01*
X155514Y111010D01*
X155754Y111707D01*
X156010Y112397D01*
X156284Y113081D01*
X156574Y113757D01*
X156880Y114427D01*
X157203Y115088D01*
X157542Y115742D01*
X157897Y116387D01*
X158268Y117023D01*
X158654Y117650D01*
X159056Y118267D01*
X159472Y118874D01*
X159904Y119471D01*
X160350Y120057D01*
X160810Y120632D01*
X161284Y121195D01*
X161771Y121747D01*
X162273Y122286D01*
X162787Y122813D01*
X163314Y123327D01*
X163853Y123829D01*
X164405Y124316D01*
X164968Y124790D01*
X165543Y125250D01*
X166129Y125696D01*
X166726Y126128D01*
X167333Y126544D01*
X167950Y126946D01*
X168577Y127332D01*
X169213Y127703D01*
X169858Y128058D01*
X170512Y128397D01*
X171173Y128720D01*
X171843Y129026D01*
X172519Y129316D01*
X173203Y129590D01*
X173893Y129846D01*
X174590Y130086D01*
X175291Y130308D01*
X175999Y130513D01*
X176711Y130701D01*
X177427Y130871D01*
X178147Y131024D01*
X178871Y131158D01*
X179598Y131275D01*
X180328Y131374D01*
X181059Y131456D01*
X181793Y131519D01*
X182528Y131564D01*
X183264Y131591D01*
X184000Y131600D01*
X184736Y131591D01*
X185472Y131564D01*
X186207Y131519D01*
X186941Y131456D01*
X187672Y131374D01*
X188402Y131275D01*
X189129Y131158D01*
X189853Y131024D01*
X190573Y130871D01*
X191289Y130701D01*
X192001Y130513D01*
X192709Y130308D01*
X193410Y130086D01*
X194107Y129846D01*
X194797Y129590D01*
X195481Y129316D01*
X196157Y129026D01*
X196827Y128720D01*
X197488Y128397D01*
X198142Y128058D01*
X198787Y127703D01*
X199423Y127332D01*
X200050Y126946D01*
X200667Y126544D01*
X201274Y126128D01*
X201871Y125696D01*
X202457Y125250D01*
X203032Y124790D01*
X203595Y124316D01*
X204147Y123829D01*
X204686Y123327D01*
X205213Y122813D01*
X205727Y122286D01*
X206229Y121747D01*
X206716Y121195D01*
X207190Y120632D01*
X207650Y120057D01*
X208096Y119471D01*
X208528Y118874D01*
X208944Y118267D01*
X209346Y117650D01*
X209732Y117023D01*
X210103Y116387D01*
X210458Y115742D01*
X210797Y115088D01*
X211120Y114427D01*
X211426Y113757D01*
X211716Y113081D01*
X211990Y112397D01*
X212246Y111707D01*
X212486Y111010D01*
X212708Y110309D01*
X212913Y109601D01*
X213101Y108889D01*
X213271Y108173D01*
X213424Y107453D01*
X213558Y106729D01*
X213675Y106002D01*
X213774Y105272D01*
X213856Y104541D01*
X213919Y103807D01*
X213964Y103072D01*
X213991Y102336D01*
X214000Y101600D01*
X213991Y100864D01*
X213964Y100128D01*
X213919Y99393D01*
X213856Y98659D01*
X213774Y97928D01*
X213675Y97198D01*
X213558Y96471D01*
X213424Y95747D01*
X213271Y95027D01*
X213101Y94311D01*
X212913Y93599D01*
X212708Y92891D01*
X212486Y92190D01*
X212246Y91493D01*
X211990Y90803D01*
X211716Y90119D01*
X211426Y89443D01*
X211120Y88773D01*
X210797Y88112D01*
X210458Y87458D01*
X210103Y86813D01*
X209732Y86177D01*
X209346Y85550D01*
X208944Y84933D01*
X208528Y84326D01*
X208096Y83729D01*
X207650Y83143D01*
X207190Y82568D01*
X206716Y82005D01*
X206229Y81453D01*
X205727Y80914D01*
X205213Y80387D01*
X204686Y79873D01*
X204147Y79371D01*
X203595Y78884D01*
X203032Y78410D01*
X202457Y77950D01*
X201871Y77504D01*
X201274Y77072D01*
X200667Y76656D01*
X200050Y76254D01*
X199423Y75868D01*
X198787Y75497D01*
X198142Y75142D01*
X197488Y74803D01*
X196827Y74480D01*
X196157Y74174D01*
X195481Y73884D01*
X194797Y73610D01*
X194107Y73354D01*
X193410Y73114D01*
X192709Y72892D01*
X192001Y72687D01*
X191289Y72499D01*
X190573Y72329D01*
X189853Y72176D01*
X189129Y72042D01*
X188402Y71925D01*
X187672Y71826D01*
X186941Y71744D01*
X186207Y71681D01*
X185472Y71636D01*
X184736Y71609D01*
X184000Y71600D01*
X183264Y71609D01*
X182528Y71636D01*
X181793Y71681D01*
X181059Y71744D01*
X180328Y71826D01*
X179598Y71925D01*
X178871Y72042D01*
X178147Y72176D01*
X177427Y72329D01*
X176711Y72499D01*
X175999Y72687D01*
X175291Y72892D01*
X174590Y73114D01*
X173893Y73354D01*
X173203Y73610D01*
X172519Y73884D01*
X171843Y74174D01*
X171173Y74480D01*
X170512Y74803D01*
X169858Y75142D01*
X169213Y75497D01*
X168577Y75868D01*
X167950Y76254D01*
X167333Y76656D01*
X166726Y77072D01*
X166129Y77504D01*
X165543Y77950D01*
X164968Y78410D01*
X164405Y78884D01*
X163853Y79371D01*
X163314Y79873D01*
X162787Y80387D01*
X162273Y80914D01*
X161771Y81453D01*
X161284Y82005D01*
X160810Y82568D01*
X160350Y83143D01*
X159904Y83729D01*
X159472Y84326D01*
X159056Y84933D01*
X158654Y85550D01*
X158268Y86177D01*
X157897Y86813D01*
X157542Y87458D01*
X157203Y88112D01*
X156880Y88773D01*
X156574Y89443D01*
X156284Y90119D01*
X156010Y90803D01*
X155754Y91493D01*
X155514Y92190D01*
X155292Y92891D01*
X155087Y93599D01*
X154899Y94311D01*
X154729Y95027D01*
X154576Y95747D01*
X154442Y96471D01*
X154325Y97198D01*
X154226Y97928D01*
X154144Y98659D01*
X154081Y99393D01*
X154036Y100128D01*
X154009Y100864D01*
X154000Y101600D01*
D16*
X126619Y51181D02*
X119253Y51181D01*
X119253Y53227D01*
X119255Y53316D01*
X119261Y53405D01*
X119271Y53494D01*
X119284Y53582D01*
X119301Y53670D01*
X119323Y53757D01*
X119348Y53842D01*
X119376Y53927D01*
X119409Y54010D01*
X119445Y54092D01*
X119484Y54172D01*
X119527Y54250D01*
X119573Y54326D01*
X119623Y54401D01*
X119676Y54473D01*
X119732Y54542D01*
X119791Y54609D01*
X119852Y54674D01*
X119917Y54735D01*
X119984Y54794D01*
X120053Y54850D01*
X120125Y54903D01*
X120200Y54953D01*
X120276Y54999D01*
X120354Y55042D01*
X120434Y55081D01*
X120516Y55117D01*
X120599Y55150D01*
X120684Y55178D01*
X120769Y55203D01*
X120856Y55225D01*
X120944Y55242D01*
X121032Y55255D01*
X121121Y55265D01*
X121210Y55271D01*
X121299Y55273D01*
X121388Y55271D01*
X121477Y55265D01*
X121566Y55255D01*
X121654Y55242D01*
X121742Y55225D01*
X121829Y55203D01*
X121914Y55178D01*
X121999Y55150D01*
X122082Y55117D01*
X122164Y55081D01*
X122244Y55042D01*
X122322Y54999D01*
X122398Y54953D01*
X122473Y54903D01*
X122545Y54850D01*
X122614Y54794D01*
X122681Y54735D01*
X122746Y54674D01*
X122807Y54609D01*
X122866Y54542D01*
X122922Y54473D01*
X122975Y54401D01*
X123025Y54326D01*
X123071Y54250D01*
X123114Y54172D01*
X123153Y54092D01*
X123189Y54010D01*
X123222Y53927D01*
X123250Y53842D01*
X123275Y53757D01*
X123297Y53670D01*
X123314Y53582D01*
X123327Y53494D01*
X123337Y53405D01*
X123343Y53316D01*
X123345Y53227D01*
X123345Y51181D01*
X123345Y53636D02*
X126619Y55273D01*
X120890Y58445D02*
X119253Y60491D01*
X126619Y60491D01*
X126619Y58445D02*
X126619Y62537D01*
D10*
X737400Y51600D02*
X787400Y51600D01*
X697400Y51600D02*
X662400Y51600D01*
X662400Y151600D01*
X697400Y151600D01*
X737400Y151600D02*
X787400Y151600D01*
X787400Y141600D01*
X787400Y61600D02*
X787400Y51600D01*
X687400Y101600D02*
X687409Y102336D01*
X687436Y103072D01*
X687481Y103807D01*
X687544Y104541D01*
X687626Y105272D01*
X687725Y106002D01*
X687842Y106729D01*
X687976Y107453D01*
X688129Y108173D01*
X688299Y108889D01*
X688487Y109601D01*
X688692Y110309D01*
X688914Y111010D01*
X689154Y111707D01*
X689410Y112397D01*
X689684Y113081D01*
X689974Y113757D01*
X690280Y114427D01*
X690603Y115088D01*
X690942Y115742D01*
X691297Y116387D01*
X691668Y117023D01*
X692054Y117650D01*
X692456Y118267D01*
X692872Y118874D01*
X693304Y119471D01*
X693750Y120057D01*
X694210Y120632D01*
X694684Y121195D01*
X695171Y121747D01*
X695673Y122286D01*
X696187Y122813D01*
X696714Y123327D01*
X697253Y123829D01*
X697805Y124316D01*
X698368Y124790D01*
X698943Y125250D01*
X699529Y125696D01*
X700126Y126128D01*
X700733Y126544D01*
X701350Y126946D01*
X701977Y127332D01*
X702613Y127703D01*
X703258Y128058D01*
X703912Y128397D01*
X704573Y128720D01*
X705243Y129026D01*
X705919Y129316D01*
X706603Y129590D01*
X707293Y129846D01*
X707990Y130086D01*
X708691Y130308D01*
X709399Y130513D01*
X710111Y130701D01*
X710827Y130871D01*
X711547Y131024D01*
X712271Y131158D01*
X712998Y131275D01*
X713728Y131374D01*
X714459Y131456D01*
X715193Y131519D01*
X715928Y131564D01*
X716664Y131591D01*
X717400Y131600D01*
X718136Y131591D01*
X718872Y131564D01*
X719607Y131519D01*
X720341Y131456D01*
X721072Y131374D01*
X721802Y131275D01*
X722529Y131158D01*
X723253Y131024D01*
X723973Y130871D01*
X724689Y130701D01*
X725401Y130513D01*
X726109Y130308D01*
X726810Y130086D01*
X727507Y129846D01*
X728197Y129590D01*
X728881Y129316D01*
X729557Y129026D01*
X730227Y128720D01*
X730888Y128397D01*
X731542Y128058D01*
X732187Y127703D01*
X732823Y127332D01*
X733450Y126946D01*
X734067Y126544D01*
X734674Y126128D01*
X735271Y125696D01*
X735857Y125250D01*
X736432Y124790D01*
X736995Y124316D01*
X737547Y123829D01*
X738086Y123327D01*
X738613Y122813D01*
X739127Y122286D01*
X739629Y121747D01*
X740116Y121195D01*
X740590Y120632D01*
X741050Y120057D01*
X741496Y119471D01*
X741928Y118874D01*
X742344Y118267D01*
X742746Y117650D01*
X743132Y117023D01*
X743503Y116387D01*
X743858Y115742D01*
X744197Y115088D01*
X744520Y114427D01*
X744826Y113757D01*
X745116Y113081D01*
X745390Y112397D01*
X745646Y111707D01*
X745886Y111010D01*
X746108Y110309D01*
X746313Y109601D01*
X746501Y108889D01*
X746671Y108173D01*
X746824Y107453D01*
X746958Y106729D01*
X747075Y106002D01*
X747174Y105272D01*
X747256Y104541D01*
X747319Y103807D01*
X747364Y103072D01*
X747391Y102336D01*
X747400Y101600D01*
X747391Y100864D01*
X747364Y100128D01*
X747319Y99393D01*
X747256Y98659D01*
X747174Y97928D01*
X747075Y97198D01*
X746958Y96471D01*
X746824Y95747D01*
X746671Y95027D01*
X746501Y94311D01*
X746313Y93599D01*
X746108Y92891D01*
X745886Y92190D01*
X745646Y91493D01*
X745390Y90803D01*
X745116Y90119D01*
X744826Y89443D01*
X744520Y88773D01*
X744197Y88112D01*
X743858Y87458D01*
X743503Y86813D01*
X743132Y86177D01*
X742746Y85550D01*
X742344Y84933D01*
X741928Y84326D01*
X741496Y83729D01*
X741050Y83143D01*
X740590Y82568D01*
X740116Y82005D01*
X739629Y81453D01*
X739127Y80914D01*
X738613Y80387D01*
X738086Y79873D01*
X737547Y79371D01*
X736995Y78884D01*
X736432Y78410D01*
X735857Y77950D01*
X735271Y77504D01*
X734674Y77072D01*
X734067Y76656D01*
X733450Y76254D01*
X732823Y75868D01*
X732187Y75497D01*
X731542Y75142D01*
X730888Y74803D01*
X730227Y74480D01*
X729557Y74174D01*
X728881Y73884D01*
X728197Y73610D01*
X727507Y73354D01*
X726810Y73114D01*
X726109Y72892D01*
X725401Y72687D01*
X724689Y72499D01*
X723973Y72329D01*
X723253Y72176D01*
X722529Y72042D01*
X721802Y71925D01*
X721072Y71826D01*
X720341Y71744D01*
X719607Y71681D01*
X718872Y71636D01*
X718136Y71609D01*
X717400Y71600D01*
X716664Y71609D01*
X715928Y71636D01*
X715193Y71681D01*
X714459Y71744D01*
X713728Y71826D01*
X712998Y71925D01*
X712271Y72042D01*
X711547Y72176D01*
X710827Y72329D01*
X710111Y72499D01*
X709399Y72687D01*
X708691Y72892D01*
X707990Y73114D01*
X707293Y73354D01*
X706603Y73610D01*
X705919Y73884D01*
X705243Y74174D01*
X704573Y74480D01*
X703912Y74803D01*
X703258Y75142D01*
X702613Y75497D01*
X701977Y75868D01*
X701350Y76254D01*
X700733Y76656D01*
X700126Y77072D01*
X699529Y77504D01*
X698943Y77950D01*
X698368Y78410D01*
X697805Y78884D01*
X697253Y79371D01*
X696714Y79873D01*
X696187Y80387D01*
X695673Y80914D01*
X695171Y81453D01*
X694684Y82005D01*
X694210Y82568D01*
X693750Y83143D01*
X693304Y83729D01*
X692872Y84326D01*
X692456Y84933D01*
X692054Y85550D01*
X691668Y86177D01*
X691297Y86813D01*
X690942Y87458D01*
X690603Y88112D01*
X690280Y88773D01*
X689974Y89443D01*
X689684Y90119D01*
X689410Y90803D01*
X689154Y91493D01*
X688914Y92190D01*
X688692Y92891D01*
X688487Y93599D01*
X688299Y94311D01*
X688129Y95027D01*
X687976Y95747D01*
X687842Y96471D01*
X687725Y97198D01*
X687626Y97928D01*
X687544Y98659D01*
X687481Y99393D01*
X687436Y100128D01*
X687409Y100864D01*
X687400Y101600D01*
D16*
X660019Y51181D02*
X652653Y51181D01*
X652653Y53227D01*
X652655Y53316D01*
X652661Y53405D01*
X652671Y53494D01*
X652684Y53582D01*
X652701Y53670D01*
X652723Y53757D01*
X652748Y53842D01*
X652776Y53927D01*
X652809Y54010D01*
X652845Y54092D01*
X652884Y54172D01*
X652927Y54250D01*
X652973Y54326D01*
X653023Y54401D01*
X653076Y54473D01*
X653132Y54542D01*
X653191Y54609D01*
X653252Y54674D01*
X653317Y54735D01*
X653384Y54794D01*
X653453Y54850D01*
X653525Y54903D01*
X653600Y54953D01*
X653676Y54999D01*
X653754Y55042D01*
X653834Y55081D01*
X653916Y55117D01*
X653999Y55150D01*
X654084Y55178D01*
X654169Y55203D01*
X654256Y55225D01*
X654344Y55242D01*
X654432Y55255D01*
X654521Y55265D01*
X654610Y55271D01*
X654699Y55273D01*
X654788Y55271D01*
X654877Y55265D01*
X654966Y55255D01*
X655054Y55242D01*
X655142Y55225D01*
X655229Y55203D01*
X655314Y55178D01*
X655399Y55150D01*
X655482Y55117D01*
X655564Y55081D01*
X655644Y55042D01*
X655722Y54999D01*
X655798Y54953D01*
X655873Y54903D01*
X655945Y54850D01*
X656014Y54794D01*
X656081Y54735D01*
X656146Y54674D01*
X656207Y54609D01*
X656266Y54542D01*
X656322Y54473D01*
X656375Y54401D01*
X656425Y54326D01*
X656471Y54250D01*
X656514Y54172D01*
X656553Y54092D01*
X656589Y54010D01*
X656622Y53927D01*
X656650Y53842D01*
X656675Y53757D01*
X656697Y53670D01*
X656714Y53582D01*
X656727Y53494D01*
X656737Y53405D01*
X656743Y53316D01*
X656745Y53227D01*
X656745Y51181D01*
X656745Y53636D02*
X660019Y55273D01*
X654495Y62538D02*
X654410Y62536D01*
X654325Y62530D01*
X654241Y62520D01*
X654157Y62507D01*
X654073Y62489D01*
X653991Y62468D01*
X653910Y62443D01*
X653830Y62414D01*
X653751Y62381D01*
X653674Y62345D01*
X653599Y62305D01*
X653525Y62262D01*
X653454Y62216D01*
X653385Y62166D01*
X653318Y62113D01*
X653254Y62057D01*
X653193Y61998D01*
X653134Y61937D01*
X653078Y61873D01*
X653025Y61806D01*
X652975Y61737D01*
X652929Y61666D01*
X652886Y61592D01*
X652846Y61517D01*
X652810Y61440D01*
X652777Y61361D01*
X652748Y61281D01*
X652723Y61200D01*
X652702Y61118D01*
X652684Y61034D01*
X652671Y60950D01*
X652661Y60866D01*
X652655Y60781D01*
X652653Y60696D01*
X652655Y60600D01*
X652661Y60504D01*
X652671Y60409D01*
X652684Y60314D01*
X652702Y60219D01*
X652723Y60126D01*
X652748Y60033D01*
X652777Y59942D01*
X652809Y59851D01*
X652845Y59762D01*
X652885Y59675D01*
X652928Y59589D01*
X652974Y59505D01*
X653024Y59423D01*
X653078Y59343D01*
X653134Y59266D01*
X653194Y59191D01*
X653256Y59118D01*
X653322Y59048D01*
X653390Y58980D01*
X653461Y58915D01*
X653534Y58854D01*
X653610Y58795D01*
X653689Y58739D01*
X653769Y58687D01*
X653852Y58638D01*
X653936Y58592D01*
X654022Y58550D01*
X654110Y58512D01*
X654199Y58477D01*
X654290Y58445D01*
X655927Y61923D02*
X655868Y61983D01*
X655806Y62040D01*
X655742Y62095D01*
X655675Y62146D01*
X655606Y62195D01*
X655536Y62241D01*
X655463Y62284D01*
X655389Y62324D01*
X655313Y62360D01*
X655235Y62393D01*
X655156Y62423D01*
X655076Y62450D01*
X654995Y62473D01*
X654913Y62492D01*
X654831Y62508D01*
X654747Y62521D01*
X654663Y62530D01*
X654579Y62535D01*
X654495Y62537D01*
X655927Y61923D02*
X660019Y58445D01*
X660019Y62537D01*
D10*
X368300Y96520D02*
X368300Y106680D01*
D16*
X355981Y114681D02*
X355981Y122047D01*
X358027Y122047D01*
X358116Y122045D01*
X358205Y122039D01*
X358294Y122029D01*
X358382Y122016D01*
X358470Y121999D01*
X358557Y121977D01*
X358642Y121952D01*
X358727Y121924D01*
X358810Y121891D01*
X358892Y121855D01*
X358972Y121816D01*
X359050Y121773D01*
X359126Y121727D01*
X359201Y121677D01*
X359273Y121624D01*
X359342Y121568D01*
X359409Y121509D01*
X359474Y121448D01*
X359535Y121383D01*
X359594Y121316D01*
X359650Y121247D01*
X359703Y121175D01*
X359753Y121100D01*
X359799Y121024D01*
X359842Y120946D01*
X359881Y120866D01*
X359917Y120784D01*
X359950Y120701D01*
X359978Y120616D01*
X360003Y120531D01*
X360025Y120444D01*
X360042Y120356D01*
X360055Y120268D01*
X360065Y120179D01*
X360071Y120090D01*
X360073Y120001D01*
X360071Y119912D01*
X360065Y119823D01*
X360055Y119734D01*
X360042Y119646D01*
X360025Y119558D01*
X360003Y119471D01*
X359978Y119386D01*
X359950Y119301D01*
X359917Y119218D01*
X359881Y119136D01*
X359842Y119056D01*
X359799Y118978D01*
X359753Y118902D01*
X359703Y118827D01*
X359650Y118755D01*
X359594Y118686D01*
X359535Y118619D01*
X359474Y118554D01*
X359409Y118493D01*
X359342Y118434D01*
X359273Y118378D01*
X359201Y118325D01*
X359126Y118275D01*
X359050Y118229D01*
X358972Y118186D01*
X358892Y118147D01*
X358810Y118111D01*
X358727Y118078D01*
X358642Y118050D01*
X358557Y118025D01*
X358470Y118003D01*
X358382Y117986D01*
X358294Y117973D01*
X358205Y117963D01*
X358116Y117957D01*
X358027Y117955D01*
X355981Y117955D01*
X358436Y117955D02*
X360073Y114681D01*
X363245Y114681D02*
X365291Y114681D01*
X365380Y114683D01*
X365469Y114689D01*
X365558Y114699D01*
X365646Y114712D01*
X365734Y114729D01*
X365821Y114751D01*
X365906Y114776D01*
X365991Y114804D01*
X366074Y114837D01*
X366156Y114873D01*
X366236Y114912D01*
X366314Y114955D01*
X366390Y115001D01*
X366465Y115051D01*
X366537Y115104D01*
X366606Y115160D01*
X366673Y115219D01*
X366738Y115280D01*
X366799Y115345D01*
X366858Y115412D01*
X366914Y115481D01*
X366967Y115553D01*
X367017Y115628D01*
X367063Y115704D01*
X367106Y115782D01*
X367145Y115862D01*
X367181Y115944D01*
X367214Y116027D01*
X367242Y116112D01*
X367267Y116197D01*
X367289Y116284D01*
X367306Y116372D01*
X367319Y116460D01*
X367329Y116549D01*
X367335Y116638D01*
X367337Y116727D01*
X367335Y116816D01*
X367329Y116905D01*
X367319Y116994D01*
X367306Y117082D01*
X367289Y117170D01*
X367267Y117257D01*
X367242Y117342D01*
X367214Y117427D01*
X367181Y117510D01*
X367145Y117592D01*
X367106Y117672D01*
X367063Y117750D01*
X367017Y117826D01*
X366967Y117901D01*
X366914Y117973D01*
X366858Y118042D01*
X366799Y118109D01*
X366738Y118174D01*
X366673Y118235D01*
X366606Y118294D01*
X366537Y118350D01*
X366465Y118403D01*
X366390Y118453D01*
X366314Y118499D01*
X366236Y118542D01*
X366156Y118581D01*
X366074Y118617D01*
X365991Y118650D01*
X365906Y118678D01*
X365821Y118703D01*
X365734Y118725D01*
X365646Y118742D01*
X365558Y118755D01*
X365469Y118765D01*
X365380Y118771D01*
X365291Y118773D01*
X365700Y122047D02*
X363245Y122047D01*
X365700Y122047D02*
X365779Y122045D01*
X365858Y122039D01*
X365937Y122030D01*
X366015Y122017D01*
X366092Y121999D01*
X366168Y121979D01*
X366243Y121954D01*
X366317Y121926D01*
X366390Y121895D01*
X366461Y121859D01*
X366530Y121821D01*
X366597Y121779D01*
X366662Y121734D01*
X366725Y121686D01*
X366786Y121635D01*
X366843Y121581D01*
X366899Y121525D01*
X366951Y121466D01*
X367001Y121404D01*
X367047Y121340D01*
X367091Y121274D01*
X367131Y121206D01*
X367167Y121136D01*
X367201Y121064D01*
X367231Y120990D01*
X367257Y120916D01*
X367280Y120840D01*
X367298Y120763D01*
X367314Y120686D01*
X367325Y120607D01*
X367333Y120529D01*
X367337Y120450D01*
X367337Y120370D01*
X367333Y120291D01*
X367325Y120213D01*
X367314Y120134D01*
X367298Y120057D01*
X367280Y119980D01*
X367257Y119904D01*
X367231Y119830D01*
X367201Y119756D01*
X367167Y119684D01*
X367131Y119614D01*
X367091Y119546D01*
X367047Y119480D01*
X367001Y119416D01*
X366951Y119354D01*
X366899Y119295D01*
X366843Y119239D01*
X366786Y119185D01*
X366725Y119134D01*
X366662Y119086D01*
X366597Y119041D01*
X366530Y118999D01*
X366461Y118961D01*
X366390Y118925D01*
X366317Y118894D01*
X366243Y118866D01*
X366168Y118841D01*
X366092Y118821D01*
X366015Y118803D01*
X365937Y118790D01*
X365858Y118781D01*
X365779Y118775D01*
X365700Y118773D01*
X364063Y118773D01*
D10*
X863600Y106680D02*
X863600Y96520D01*
D16*
X851281Y114681D02*
X851281Y122047D01*
X853327Y122047D01*
X853416Y122045D01*
X853505Y122039D01*
X853594Y122029D01*
X853682Y122016D01*
X853770Y121999D01*
X853857Y121977D01*
X853942Y121952D01*
X854027Y121924D01*
X854110Y121891D01*
X854192Y121855D01*
X854272Y121816D01*
X854350Y121773D01*
X854426Y121727D01*
X854501Y121677D01*
X854573Y121624D01*
X854642Y121568D01*
X854709Y121509D01*
X854774Y121448D01*
X854835Y121383D01*
X854894Y121316D01*
X854950Y121247D01*
X855003Y121175D01*
X855053Y121100D01*
X855099Y121024D01*
X855142Y120946D01*
X855181Y120866D01*
X855217Y120784D01*
X855250Y120701D01*
X855278Y120616D01*
X855303Y120531D01*
X855325Y120444D01*
X855342Y120356D01*
X855355Y120268D01*
X855365Y120179D01*
X855371Y120090D01*
X855373Y120001D01*
X855371Y119912D01*
X855365Y119823D01*
X855355Y119734D01*
X855342Y119646D01*
X855325Y119558D01*
X855303Y119471D01*
X855278Y119386D01*
X855250Y119301D01*
X855217Y119218D01*
X855181Y119136D01*
X855142Y119056D01*
X855099Y118978D01*
X855053Y118902D01*
X855003Y118827D01*
X854950Y118755D01*
X854894Y118686D01*
X854835Y118619D01*
X854774Y118554D01*
X854709Y118493D01*
X854642Y118434D01*
X854573Y118378D01*
X854501Y118325D01*
X854426Y118275D01*
X854350Y118229D01*
X854272Y118186D01*
X854192Y118147D01*
X854110Y118111D01*
X854027Y118078D01*
X853942Y118050D01*
X853857Y118025D01*
X853770Y118003D01*
X853682Y117986D01*
X853594Y117973D01*
X853505Y117963D01*
X853416Y117957D01*
X853327Y117955D01*
X851281Y117955D01*
X853736Y117955D02*
X855373Y114681D01*
X858545Y116318D02*
X860182Y122047D01*
X858545Y116318D02*
X862637Y116318D01*
X861410Y117955D02*
X861410Y114681D01*
D10*
X609600Y604520D02*
X609600Y614680D01*
D16*
X597281Y622681D02*
X597281Y630047D01*
X599327Y630047D01*
X599416Y630045D01*
X599505Y630039D01*
X599594Y630029D01*
X599682Y630016D01*
X599770Y629999D01*
X599857Y629977D01*
X599942Y629952D01*
X600027Y629924D01*
X600110Y629891D01*
X600192Y629855D01*
X600272Y629816D01*
X600350Y629773D01*
X600426Y629727D01*
X600501Y629677D01*
X600573Y629624D01*
X600642Y629568D01*
X600709Y629509D01*
X600774Y629448D01*
X600835Y629383D01*
X600894Y629316D01*
X600950Y629247D01*
X601003Y629175D01*
X601053Y629100D01*
X601099Y629024D01*
X601142Y628946D01*
X601181Y628866D01*
X601217Y628784D01*
X601250Y628701D01*
X601278Y628616D01*
X601303Y628531D01*
X601325Y628444D01*
X601342Y628356D01*
X601355Y628268D01*
X601365Y628179D01*
X601371Y628090D01*
X601373Y628001D01*
X601371Y627912D01*
X601365Y627823D01*
X601355Y627734D01*
X601342Y627646D01*
X601325Y627558D01*
X601303Y627471D01*
X601278Y627386D01*
X601250Y627301D01*
X601217Y627218D01*
X601181Y627136D01*
X601142Y627056D01*
X601099Y626978D01*
X601053Y626902D01*
X601003Y626827D01*
X600950Y626755D01*
X600894Y626686D01*
X600835Y626619D01*
X600774Y626554D01*
X600709Y626493D01*
X600642Y626434D01*
X600573Y626378D01*
X600501Y626325D01*
X600426Y626275D01*
X600350Y626229D01*
X600272Y626186D01*
X600192Y626147D01*
X600110Y626111D01*
X600027Y626078D01*
X599942Y626050D01*
X599857Y626025D01*
X599770Y626003D01*
X599682Y625986D01*
X599594Y625973D01*
X599505Y625963D01*
X599416Y625957D01*
X599327Y625955D01*
X597281Y625955D01*
X599736Y625955D02*
X601373Y622681D01*
X604545Y622681D02*
X607000Y622681D01*
X607078Y622683D01*
X607156Y622688D01*
X607233Y622698D01*
X607310Y622711D01*
X607386Y622727D01*
X607461Y622747D01*
X607535Y622771D01*
X607608Y622798D01*
X607680Y622829D01*
X607750Y622863D01*
X607819Y622900D01*
X607885Y622941D01*
X607950Y622985D01*
X608012Y623031D01*
X608072Y623081D01*
X608130Y623133D01*
X608185Y623188D01*
X608237Y623246D01*
X608287Y623306D01*
X608333Y623368D01*
X608377Y623433D01*
X608418Y623500D01*
X608455Y623568D01*
X608489Y623638D01*
X608520Y623710D01*
X608547Y623783D01*
X608571Y623857D01*
X608591Y623932D01*
X608607Y624008D01*
X608620Y624085D01*
X608630Y624162D01*
X608635Y624240D01*
X608637Y624318D01*
X608637Y625136D01*
X608635Y625214D01*
X608630Y625292D01*
X608620Y625369D01*
X608607Y625446D01*
X608591Y625522D01*
X608571Y625597D01*
X608547Y625671D01*
X608520Y625744D01*
X608489Y625816D01*
X608455Y625886D01*
X608418Y625955D01*
X608377Y626021D01*
X608333Y626086D01*
X608287Y626148D01*
X608237Y626208D01*
X608185Y626266D01*
X608130Y626321D01*
X608072Y626373D01*
X608012Y626423D01*
X607950Y626469D01*
X607885Y626513D01*
X607819Y626554D01*
X607750Y626591D01*
X607680Y626625D01*
X607608Y626656D01*
X607535Y626683D01*
X607461Y626707D01*
X607386Y626727D01*
X607310Y626743D01*
X607233Y626756D01*
X607156Y626766D01*
X607078Y626771D01*
X607000Y626773D01*
X604545Y626773D01*
X604545Y630047D01*
X608637Y630047D01*
D13*
X529900Y51600D02*
X529897Y51358D01*
X529888Y51117D01*
X529874Y50876D01*
X529853Y50635D01*
X529827Y50395D01*
X529795Y50155D01*
X529757Y49916D01*
X529714Y49679D01*
X529664Y49442D01*
X529609Y49207D01*
X529549Y48973D01*
X529482Y48741D01*
X529411Y48510D01*
X529333Y48281D01*
X529250Y48054D01*
X529162Y47829D01*
X529068Y47606D01*
X528969Y47386D01*
X528864Y47168D01*
X528755Y46953D01*
X528640Y46740D01*
X528520Y46530D01*
X528395Y46324D01*
X528265Y46120D01*
X528130Y45919D01*
X527990Y45722D01*
X527846Y45528D01*
X527697Y45338D01*
X527543Y45152D01*
X527385Y44969D01*
X527223Y44790D01*
X527056Y44615D01*
X526885Y44444D01*
X526710Y44277D01*
X526531Y44115D01*
X526348Y43957D01*
X526162Y43803D01*
X525972Y43654D01*
X525778Y43510D01*
X525581Y43370D01*
X525380Y43235D01*
X525176Y43105D01*
X524970Y42980D01*
X524760Y42860D01*
X524547Y42745D01*
X524332Y42636D01*
X524114Y42531D01*
X523894Y42432D01*
X523671Y42338D01*
X523446Y42250D01*
X523219Y42167D01*
X522990Y42089D01*
X522759Y42018D01*
X522527Y41951D01*
X522293Y41891D01*
X522058Y41836D01*
X521821Y41786D01*
X521584Y41743D01*
X521345Y41705D01*
X521105Y41673D01*
X520865Y41647D01*
X520624Y41626D01*
X520383Y41612D01*
X520142Y41603D01*
X519900Y41600D01*
X419900Y41600D01*
X419658Y41603D01*
X419417Y41612D01*
X419176Y41626D01*
X418935Y41647D01*
X418695Y41673D01*
X418455Y41705D01*
X418216Y41743D01*
X417979Y41786D01*
X417742Y41836D01*
X417507Y41891D01*
X417273Y41951D01*
X417041Y42018D01*
X416810Y42089D01*
X416581Y42167D01*
X416354Y42250D01*
X416129Y42338D01*
X415906Y42432D01*
X415686Y42531D01*
X415468Y42636D01*
X415253Y42745D01*
X415040Y42860D01*
X414830Y42980D01*
X414624Y43105D01*
X414420Y43235D01*
X414219Y43370D01*
X414022Y43510D01*
X413828Y43654D01*
X413638Y43803D01*
X413452Y43957D01*
X413269Y44115D01*
X413090Y44277D01*
X412915Y44444D01*
X412744Y44615D01*
X412577Y44790D01*
X412415Y44969D01*
X412257Y45152D01*
X412103Y45338D01*
X411954Y45528D01*
X411810Y45722D01*
X411670Y45919D01*
X411535Y46120D01*
X411405Y46324D01*
X411280Y46530D01*
X411160Y46740D01*
X411045Y46953D01*
X410936Y47168D01*
X410831Y47386D01*
X410732Y47606D01*
X410638Y47829D01*
X410550Y48054D01*
X410467Y48281D01*
X410389Y48510D01*
X410318Y48741D01*
X410251Y48973D01*
X410191Y49207D01*
X410136Y49442D01*
X410086Y49679D01*
X410043Y49916D01*
X410005Y50155D01*
X409973Y50395D01*
X409947Y50635D01*
X409926Y50876D01*
X409912Y51117D01*
X409903Y51358D01*
X409900Y51600D01*
X409900Y151600D02*
X409903Y151842D01*
X409912Y152083D01*
X409926Y152324D01*
X409947Y152565D01*
X409973Y152805D01*
X410005Y153045D01*
X410043Y153284D01*
X410086Y153521D01*
X410136Y153758D01*
X410191Y153993D01*
X410251Y154227D01*
X410318Y154459D01*
X410389Y154690D01*
X410467Y154919D01*
X410550Y155146D01*
X410638Y155371D01*
X410732Y155594D01*
X410831Y155814D01*
X410936Y156032D01*
X411045Y156247D01*
X411160Y156460D01*
X411280Y156670D01*
X411405Y156876D01*
X411535Y157080D01*
X411670Y157281D01*
X411810Y157478D01*
X411954Y157672D01*
X412103Y157862D01*
X412257Y158048D01*
X412415Y158231D01*
X412577Y158410D01*
X412744Y158585D01*
X412915Y158756D01*
X413090Y158923D01*
X413269Y159085D01*
X413452Y159243D01*
X413638Y159397D01*
X413828Y159546D01*
X414022Y159690D01*
X414219Y159830D01*
X414420Y159965D01*
X414624Y160095D01*
X414830Y160220D01*
X415040Y160340D01*
X415253Y160455D01*
X415468Y160564D01*
X415686Y160669D01*
X415906Y160768D01*
X416129Y160862D01*
X416354Y160950D01*
X416581Y161033D01*
X416810Y161111D01*
X417041Y161182D01*
X417273Y161249D01*
X417507Y161309D01*
X417742Y161364D01*
X417979Y161414D01*
X418216Y161457D01*
X418455Y161495D01*
X418695Y161527D01*
X418935Y161553D01*
X419176Y161574D01*
X419417Y161588D01*
X419658Y161597D01*
X419900Y161600D01*
X519900Y161600D01*
X520142Y161597D01*
X520383Y161588D01*
X520624Y161574D01*
X520865Y161553D01*
X521105Y161527D01*
X521345Y161495D01*
X521584Y161457D01*
X521821Y161414D01*
X522058Y161364D01*
X522293Y161309D01*
X522527Y161249D01*
X522759Y161182D01*
X522990Y161111D01*
X523219Y161033D01*
X523446Y160950D01*
X523671Y160862D01*
X523894Y160768D01*
X524114Y160669D01*
X524332Y160564D01*
X524547Y160455D01*
X524760Y160340D01*
X524970Y160220D01*
X525176Y160095D01*
X525380Y159965D01*
X525581Y159830D01*
X525778Y159690D01*
X525972Y159546D01*
X526162Y159397D01*
X526348Y159243D01*
X526531Y159085D01*
X526710Y158923D01*
X526885Y158756D01*
X527056Y158585D01*
X527223Y158410D01*
X527385Y158231D01*
X527543Y158048D01*
X527697Y157862D01*
X527846Y157672D01*
X527990Y157478D01*
X528130Y157281D01*
X528265Y157080D01*
X528395Y156876D01*
X528520Y156670D01*
X528640Y156460D01*
X528755Y156247D01*
X528864Y156032D01*
X528969Y155814D01*
X529068Y155594D01*
X529162Y155371D01*
X529250Y155146D01*
X529333Y154919D01*
X529411Y154690D01*
X529482Y154459D01*
X529549Y154227D01*
X529609Y153993D01*
X529664Y153758D01*
X529714Y153521D01*
X529757Y153284D01*
X529795Y153045D01*
X529827Y152805D01*
X529853Y152565D01*
X529874Y152324D01*
X529888Y152083D01*
X529897Y151842D01*
X529900Y151600D01*
X434545Y101600D02*
X434556Y102468D01*
X434588Y103335D01*
X434641Y104201D01*
X434715Y105065D01*
X434811Y105928D01*
X434928Y106788D01*
X435066Y107644D01*
X435224Y108497D01*
X435404Y109346D01*
X435605Y110191D01*
X435826Y111030D01*
X436067Y111863D01*
X436329Y112690D01*
X436612Y113511D01*
X436914Y114324D01*
X437236Y115130D01*
X437578Y115927D01*
X437939Y116716D01*
X438320Y117496D01*
X438720Y118266D01*
X439138Y119026D01*
X439575Y119776D01*
X440030Y120515D01*
X440503Y121242D01*
X440994Y121958D01*
X441503Y122661D01*
X442028Y123352D01*
X442570Y124029D01*
X443129Y124693D01*
X443704Y125343D01*
X444294Y125979D01*
X444900Y126600D01*
X445521Y127206D01*
X446157Y127796D01*
X446807Y128371D01*
X447471Y128930D01*
X448148Y129472D01*
X448839Y129997D01*
X449542Y130506D01*
X450258Y130997D01*
X450985Y131470D01*
X451724Y131925D01*
X452474Y132362D01*
X453234Y132780D01*
X454004Y133180D01*
X454784Y133561D01*
X455573Y133922D01*
X456370Y134264D01*
X457176Y134586D01*
X457989Y134888D01*
X458810Y135171D01*
X459637Y135433D01*
X460470Y135674D01*
X461309Y135895D01*
X462154Y136096D01*
X463003Y136276D01*
X463856Y136434D01*
X464712Y136572D01*
X465572Y136689D01*
X466435Y136785D01*
X467299Y136859D01*
X468165Y136912D01*
X469032Y136944D01*
X469900Y136955D01*
X470768Y136944D01*
X471635Y136912D01*
X472501Y136859D01*
X473365Y136785D01*
X474228Y136689D01*
X475088Y136572D01*
X475944Y136434D01*
X476797Y136276D01*
X477646Y136096D01*
X478491Y135895D01*
X479330Y135674D01*
X480163Y135433D01*
X480990Y135171D01*
X481811Y134888D01*
X482624Y134586D01*
X483430Y134264D01*
X484227Y133922D01*
X485016Y133561D01*
X485796Y133180D01*
X486566Y132780D01*
X487326Y132362D01*
X488076Y131925D01*
X488815Y131470D01*
X489542Y130997D01*
X490258Y130506D01*
X490961Y129997D01*
X491652Y129472D01*
X492329Y128930D01*
X492993Y128371D01*
X493643Y127796D01*
X494279Y127206D01*
X494900Y126600D01*
X495506Y125979D01*
X496096Y125343D01*
X496671Y124693D01*
X497230Y124029D01*
X497772Y123352D01*
X498297Y122661D01*
X498806Y121958D01*
X499297Y121242D01*
X499770Y120515D01*
X500225Y119776D01*
X500662Y119026D01*
X501080Y118266D01*
X501480Y117496D01*
X501861Y116716D01*
X502222Y115927D01*
X502564Y115130D01*
X502886Y114324D01*
X503188Y113511D01*
X503471Y112690D01*
X503733Y111863D01*
X503974Y111030D01*
X504195Y110191D01*
X504396Y109346D01*
X504576Y108497D01*
X504734Y107644D01*
X504872Y106788D01*
X504989Y105928D01*
X505085Y105065D01*
X505159Y104201D01*
X505212Y103335D01*
X505244Y102468D01*
X505255Y101600D01*
X505244Y100732D01*
X505212Y99865D01*
X505159Y98999D01*
X505085Y98135D01*
X504989Y97272D01*
X504872Y96412D01*
X504734Y95556D01*
X504576Y94703D01*
X504396Y93854D01*
X504195Y93009D01*
X503974Y92170D01*
X503733Y91337D01*
X503471Y90510D01*
X503188Y89689D01*
X502886Y88876D01*
X502564Y88070D01*
X502222Y87273D01*
X501861Y86484D01*
X501480Y85704D01*
X501080Y84934D01*
X500662Y84174D01*
X500225Y83424D01*
X499770Y82685D01*
X499297Y81958D01*
X498806Y81242D01*
X498297Y80539D01*
X497772Y79848D01*
X497230Y79171D01*
X496671Y78507D01*
X496096Y77857D01*
X495506Y77221D01*
X494900Y76600D01*
X494279Y75994D01*
X493643Y75404D01*
X492993Y74829D01*
X492329Y74270D01*
X491652Y73728D01*
X490961Y73203D01*
X490258Y72694D01*
X489542Y72203D01*
X488815Y71730D01*
X488076Y71275D01*
X487326Y70838D01*
X486566Y70420D01*
X485796Y70020D01*
X485016Y69639D01*
X484227Y69278D01*
X483430Y68936D01*
X482624Y68614D01*
X481811Y68312D01*
X480990Y68029D01*
X480163Y67767D01*
X479330Y67526D01*
X478491Y67305D01*
X477646Y67104D01*
X476797Y66924D01*
X475944Y66766D01*
X475088Y66628D01*
X474228Y66511D01*
X473365Y66415D01*
X472501Y66341D01*
X471635Y66288D01*
X470768Y66256D01*
X469900Y66245D01*
X469032Y66256D01*
X468165Y66288D01*
X467299Y66341D01*
X466435Y66415D01*
X465572Y66511D01*
X464712Y66628D01*
X463856Y66766D01*
X463003Y66924D01*
X462154Y67104D01*
X461309Y67305D01*
X460470Y67526D01*
X459637Y67767D01*
X458810Y68029D01*
X457989Y68312D01*
X457176Y68614D01*
X456370Y68936D01*
X455573Y69278D01*
X454784Y69639D01*
X454004Y70020D01*
X453234Y70420D01*
X452474Y70838D01*
X451724Y71275D01*
X450985Y71730D01*
X450258Y72203D01*
X449542Y72694D01*
X448839Y73203D01*
X448148Y73728D01*
X447471Y74270D01*
X446807Y74829D01*
X446157Y75404D01*
X445521Y75994D01*
X444900Y76600D01*
X444294Y77221D01*
X443704Y77857D01*
X443129Y78507D01*
X442570Y79171D01*
X442028Y79848D01*
X441503Y80539D01*
X440994Y81242D01*
X440503Y81958D01*
X440030Y82685D01*
X439575Y83424D01*
X439138Y84174D01*
X438720Y84934D01*
X438320Y85704D01*
X437939Y86484D01*
X437578Y87273D01*
X437236Y88070D01*
X436914Y88876D01*
X436612Y89689D01*
X436329Y90510D01*
X436067Y91337D01*
X435826Y92170D01*
X435605Y93009D01*
X435404Y93854D01*
X435224Y94703D01*
X435066Y95556D01*
X434928Y96412D01*
X434811Y97272D01*
X434715Y98135D01*
X434641Y98999D01*
X434588Y99865D01*
X434556Y100732D01*
X434545Y101600D01*
X449900Y121600D02*
X489900Y121600D01*
X489900Y81600D01*
X449900Y81600D01*
X449900Y121600D01*
X409900Y139100D02*
X409900Y151600D01*
X409900Y114100D02*
X409900Y89100D01*
X409900Y64100D02*
X409900Y51600D01*
X529900Y139100D02*
X529900Y151600D01*
X529900Y114100D02*
X529900Y89100D01*
X529900Y64100D02*
X529900Y51600D01*
D11*
X423503Y165608D02*
X423602Y165610D01*
X423702Y165616D01*
X423801Y165625D01*
X423899Y165638D01*
X423997Y165655D01*
X424095Y165676D01*
X424191Y165701D01*
X424286Y165729D01*
X424380Y165761D01*
X424473Y165796D01*
X424565Y165835D01*
X424655Y165878D01*
X424743Y165923D01*
X424830Y165973D01*
X424914Y166025D01*
X424997Y166081D01*
X425077Y166139D01*
X425155Y166201D01*
X425230Y166266D01*
X425303Y166334D01*
X425373Y166404D01*
X425441Y166477D01*
X425506Y166552D01*
X425568Y166630D01*
X425626Y166710D01*
X425682Y166793D01*
X425734Y166877D01*
X425784Y166964D01*
X425829Y167052D01*
X425872Y167142D01*
X425911Y167234D01*
X425946Y167327D01*
X425978Y167421D01*
X426006Y167516D01*
X426031Y167612D01*
X426052Y167710D01*
X426069Y167808D01*
X426082Y167906D01*
X426091Y168005D01*
X426097Y168105D01*
X426099Y168204D01*
X423503Y165608D02*
X423359Y165610D01*
X423214Y165616D01*
X423070Y165625D01*
X422927Y165638D01*
X422783Y165655D01*
X422640Y165676D01*
X422498Y165701D01*
X422357Y165729D01*
X422216Y165761D01*
X422076Y165797D01*
X421937Y165836D01*
X421799Y165879D01*
X421663Y165926D01*
X421527Y165976D01*
X421393Y166030D01*
X421261Y166087D01*
X421130Y166148D01*
X421001Y166212D01*
X420873Y166280D01*
X420747Y166350D01*
X420623Y166425D01*
X420502Y166502D01*
X420382Y166583D01*
X420264Y166666D01*
X420149Y166753D01*
X420036Y166843D01*
X419925Y166936D01*
X419817Y167031D01*
X419711Y167130D01*
X419608Y167231D01*
X419933Y174696D02*
X419935Y174795D01*
X419941Y174895D01*
X419950Y174994D01*
X419963Y175092D01*
X419980Y175190D01*
X420001Y175288D01*
X420026Y175384D01*
X420054Y175479D01*
X420086Y175573D01*
X420121Y175666D01*
X420160Y175758D01*
X420203Y175848D01*
X420248Y175936D01*
X420298Y176023D01*
X420350Y176107D01*
X420406Y176190D01*
X420464Y176270D01*
X420526Y176348D01*
X420591Y176423D01*
X420659Y176496D01*
X420729Y176566D01*
X420802Y176634D01*
X420877Y176699D01*
X420955Y176761D01*
X421035Y176819D01*
X421118Y176875D01*
X421202Y176927D01*
X421289Y176977D01*
X421377Y177022D01*
X421467Y177065D01*
X421559Y177104D01*
X421652Y177139D01*
X421746Y177171D01*
X421841Y177199D01*
X421938Y177224D01*
X422035Y177245D01*
X422133Y177262D01*
X422231Y177275D01*
X422330Y177284D01*
X422430Y177290D01*
X422529Y177292D01*
X422665Y177290D01*
X422801Y177284D01*
X422937Y177275D01*
X423073Y177262D01*
X423208Y177244D01*
X423342Y177224D01*
X423476Y177199D01*
X423610Y177171D01*
X423742Y177138D01*
X423873Y177103D01*
X424004Y177063D01*
X424133Y177020D01*
X424261Y176974D01*
X424387Y176923D01*
X424513Y176870D01*
X424636Y176812D01*
X424758Y176752D01*
X424878Y176688D01*
X424997Y176620D01*
X425113Y176550D01*
X425227Y176476D01*
X425340Y176399D01*
X425450Y176318D01*
X421231Y172424D02*
X421145Y172477D01*
X421061Y172534D01*
X420979Y172593D01*
X420899Y172656D01*
X420822Y172722D01*
X420747Y172790D01*
X420675Y172862D01*
X420606Y172936D01*
X420540Y173013D01*
X420477Y173092D01*
X420417Y173174D01*
X420360Y173258D01*
X420306Y173344D01*
X420256Y173432D01*
X420209Y173522D01*
X420165Y173613D01*
X420126Y173707D01*
X420089Y173801D01*
X420057Y173897D01*
X420028Y173995D01*
X420003Y174093D01*
X419982Y174192D01*
X419964Y174292D01*
X419951Y174392D01*
X419941Y174493D01*
X419935Y174595D01*
X419933Y174696D01*
X424801Y170476D02*
X424887Y170423D01*
X424971Y170366D01*
X425053Y170307D01*
X425133Y170244D01*
X425210Y170178D01*
X425285Y170110D01*
X425357Y170038D01*
X425426Y169964D01*
X425492Y169887D01*
X425555Y169808D01*
X425615Y169726D01*
X425672Y169642D01*
X425726Y169556D01*
X425776Y169468D01*
X425823Y169378D01*
X425867Y169287D01*
X425906Y169193D01*
X425943Y169099D01*
X425975Y169003D01*
X426004Y168905D01*
X426029Y168807D01*
X426050Y168708D01*
X426068Y168608D01*
X426081Y168508D01*
X426091Y168407D01*
X426097Y168305D01*
X426099Y168204D01*
X424801Y170476D02*
X421231Y172424D01*
X430234Y177292D02*
X432830Y165608D01*
X435427Y173397D01*
X438023Y165608D01*
X440619Y177292D01*
X445135Y174696D02*
X448381Y177292D01*
X448381Y165608D01*
X451626Y165608D02*
X445135Y165608D01*
D13*
X1015200Y41600D02*
X1015442Y41603D01*
X1015683Y41612D01*
X1015924Y41626D01*
X1016165Y41647D01*
X1016405Y41673D01*
X1016645Y41705D01*
X1016884Y41743D01*
X1017121Y41786D01*
X1017358Y41836D01*
X1017593Y41891D01*
X1017827Y41951D01*
X1018059Y42018D01*
X1018290Y42089D01*
X1018519Y42167D01*
X1018746Y42250D01*
X1018971Y42338D01*
X1019194Y42432D01*
X1019414Y42531D01*
X1019632Y42636D01*
X1019847Y42745D01*
X1020060Y42860D01*
X1020270Y42980D01*
X1020476Y43105D01*
X1020680Y43235D01*
X1020881Y43370D01*
X1021078Y43510D01*
X1021272Y43654D01*
X1021462Y43803D01*
X1021648Y43957D01*
X1021831Y44115D01*
X1022010Y44277D01*
X1022185Y44444D01*
X1022356Y44615D01*
X1022523Y44790D01*
X1022685Y44969D01*
X1022843Y45152D01*
X1022997Y45338D01*
X1023146Y45528D01*
X1023290Y45722D01*
X1023430Y45919D01*
X1023565Y46120D01*
X1023695Y46324D01*
X1023820Y46530D01*
X1023940Y46740D01*
X1024055Y46953D01*
X1024164Y47168D01*
X1024269Y47386D01*
X1024368Y47606D01*
X1024462Y47829D01*
X1024550Y48054D01*
X1024633Y48281D01*
X1024711Y48510D01*
X1024782Y48741D01*
X1024849Y48973D01*
X1024909Y49207D01*
X1024964Y49442D01*
X1025014Y49679D01*
X1025057Y49916D01*
X1025095Y50155D01*
X1025127Y50395D01*
X1025153Y50635D01*
X1025174Y50876D01*
X1025188Y51117D01*
X1025197Y51358D01*
X1025200Y51600D01*
X1015200Y41600D02*
X915200Y41600D01*
X914958Y41603D01*
X914717Y41612D01*
X914476Y41626D01*
X914235Y41647D01*
X913995Y41673D01*
X913755Y41705D01*
X913516Y41743D01*
X913279Y41786D01*
X913042Y41836D01*
X912807Y41891D01*
X912573Y41951D01*
X912341Y42018D01*
X912110Y42089D01*
X911881Y42167D01*
X911654Y42250D01*
X911429Y42338D01*
X911206Y42432D01*
X910986Y42531D01*
X910768Y42636D01*
X910553Y42745D01*
X910340Y42860D01*
X910130Y42980D01*
X909924Y43105D01*
X909720Y43235D01*
X909519Y43370D01*
X909322Y43510D01*
X909128Y43654D01*
X908938Y43803D01*
X908752Y43957D01*
X908569Y44115D01*
X908390Y44277D01*
X908215Y44444D01*
X908044Y44615D01*
X907877Y44790D01*
X907715Y44969D01*
X907557Y45152D01*
X907403Y45338D01*
X907254Y45528D01*
X907110Y45722D01*
X906970Y45919D01*
X906835Y46120D01*
X906705Y46324D01*
X906580Y46530D01*
X906460Y46740D01*
X906345Y46953D01*
X906236Y47168D01*
X906131Y47386D01*
X906032Y47606D01*
X905938Y47829D01*
X905850Y48054D01*
X905767Y48281D01*
X905689Y48510D01*
X905618Y48741D01*
X905551Y48973D01*
X905491Y49207D01*
X905436Y49442D01*
X905386Y49679D01*
X905343Y49916D01*
X905305Y50155D01*
X905273Y50395D01*
X905247Y50635D01*
X905226Y50876D01*
X905212Y51117D01*
X905203Y51358D01*
X905200Y51600D01*
X905200Y151600D02*
X905203Y151842D01*
X905212Y152083D01*
X905226Y152324D01*
X905247Y152565D01*
X905273Y152805D01*
X905305Y153045D01*
X905343Y153284D01*
X905386Y153521D01*
X905436Y153758D01*
X905491Y153993D01*
X905551Y154227D01*
X905618Y154459D01*
X905689Y154690D01*
X905767Y154919D01*
X905850Y155146D01*
X905938Y155371D01*
X906032Y155594D01*
X906131Y155814D01*
X906236Y156032D01*
X906345Y156247D01*
X906460Y156460D01*
X906580Y156670D01*
X906705Y156876D01*
X906835Y157080D01*
X906970Y157281D01*
X907110Y157478D01*
X907254Y157672D01*
X907403Y157862D01*
X907557Y158048D01*
X907715Y158231D01*
X907877Y158410D01*
X908044Y158585D01*
X908215Y158756D01*
X908390Y158923D01*
X908569Y159085D01*
X908752Y159243D01*
X908938Y159397D01*
X909128Y159546D01*
X909322Y159690D01*
X909519Y159830D01*
X909720Y159965D01*
X909924Y160095D01*
X910130Y160220D01*
X910340Y160340D01*
X910553Y160455D01*
X910768Y160564D01*
X910986Y160669D01*
X911206Y160768D01*
X911429Y160862D01*
X911654Y160950D01*
X911881Y161033D01*
X912110Y161111D01*
X912341Y161182D01*
X912573Y161249D01*
X912807Y161309D01*
X913042Y161364D01*
X913279Y161414D01*
X913516Y161457D01*
X913755Y161495D01*
X913995Y161527D01*
X914235Y161553D01*
X914476Y161574D01*
X914717Y161588D01*
X914958Y161597D01*
X915200Y161600D01*
X1015200Y161600D01*
X1015442Y161597D01*
X1015683Y161588D01*
X1015924Y161574D01*
X1016165Y161553D01*
X1016405Y161527D01*
X1016645Y161495D01*
X1016884Y161457D01*
X1017121Y161414D01*
X1017358Y161364D01*
X1017593Y161309D01*
X1017827Y161249D01*
X1018059Y161182D01*
X1018290Y161111D01*
X1018519Y161033D01*
X1018746Y160950D01*
X1018971Y160862D01*
X1019194Y160768D01*
X1019414Y160669D01*
X1019632Y160564D01*
X1019847Y160455D01*
X1020060Y160340D01*
X1020270Y160220D01*
X1020476Y160095D01*
X1020680Y159965D01*
X1020881Y159830D01*
X1021078Y159690D01*
X1021272Y159546D01*
X1021462Y159397D01*
X1021648Y159243D01*
X1021831Y159085D01*
X1022010Y158923D01*
X1022185Y158756D01*
X1022356Y158585D01*
X1022523Y158410D01*
X1022685Y158231D01*
X1022843Y158048D01*
X1022997Y157862D01*
X1023146Y157672D01*
X1023290Y157478D01*
X1023430Y157281D01*
X1023565Y157080D01*
X1023695Y156876D01*
X1023820Y156670D01*
X1023940Y156460D01*
X1024055Y156247D01*
X1024164Y156032D01*
X1024269Y155814D01*
X1024368Y155594D01*
X1024462Y155371D01*
X1024550Y155146D01*
X1024633Y154919D01*
X1024711Y154690D01*
X1024782Y154459D01*
X1024849Y154227D01*
X1024909Y153993D01*
X1024964Y153758D01*
X1025014Y153521D01*
X1025057Y153284D01*
X1025095Y153045D01*
X1025127Y152805D01*
X1025153Y152565D01*
X1025174Y152324D01*
X1025188Y152083D01*
X1025197Y151842D01*
X1025200Y151600D01*
X929845Y101600D02*
X929856Y102468D01*
X929888Y103335D01*
X929941Y104201D01*
X930015Y105065D01*
X930111Y105928D01*
X930228Y106788D01*
X930366Y107644D01*
X930524Y108497D01*
X930704Y109346D01*
X930905Y110191D01*
X931126Y111030D01*
X931367Y111863D01*
X931629Y112690D01*
X931912Y113511D01*
X932214Y114324D01*
X932536Y115130D01*
X932878Y115927D01*
X933239Y116716D01*
X933620Y117496D01*
X934020Y118266D01*
X934438Y119026D01*
X934875Y119776D01*
X935330Y120515D01*
X935803Y121242D01*
X936294Y121958D01*
X936803Y122661D01*
X937328Y123352D01*
X937870Y124029D01*
X938429Y124693D01*
X939004Y125343D01*
X939594Y125979D01*
X940200Y126600D01*
X940821Y127206D01*
X941457Y127796D01*
X942107Y128371D01*
X942771Y128930D01*
X943448Y129472D01*
X944139Y129997D01*
X944842Y130506D01*
X945558Y130997D01*
X946285Y131470D01*
X947024Y131925D01*
X947774Y132362D01*
X948534Y132780D01*
X949304Y133180D01*
X950084Y133561D01*
X950873Y133922D01*
X951670Y134264D01*
X952476Y134586D01*
X953289Y134888D01*
X954110Y135171D01*
X954937Y135433D01*
X955770Y135674D01*
X956609Y135895D01*
X957454Y136096D01*
X958303Y136276D01*
X959156Y136434D01*
X960012Y136572D01*
X960872Y136689D01*
X961735Y136785D01*
X962599Y136859D01*
X963465Y136912D01*
X964332Y136944D01*
X965200Y136955D01*
X966068Y136944D01*
X966935Y136912D01*
X967801Y136859D01*
X968665Y136785D01*
X969528Y136689D01*
X970388Y136572D01*
X971244Y136434D01*
X972097Y136276D01*
X972946Y136096D01*
X973791Y135895D01*
X974630Y135674D01*
X975463Y135433D01*
X976290Y135171D01*
X977111Y134888D01*
X977924Y134586D01*
X978730Y134264D01*
X979527Y133922D01*
X980316Y133561D01*
X981096Y133180D01*
X981866Y132780D01*
X982626Y132362D01*
X983376Y131925D01*
X984115Y131470D01*
X984842Y130997D01*
X985558Y130506D01*
X986261Y129997D01*
X986952Y129472D01*
X987629Y128930D01*
X988293Y128371D01*
X988943Y127796D01*
X989579Y127206D01*
X990200Y126600D01*
X990806Y125979D01*
X991396Y125343D01*
X991971Y124693D01*
X992530Y124029D01*
X993072Y123352D01*
X993597Y122661D01*
X994106Y121958D01*
X994597Y121242D01*
X995070Y120515D01*
X995525Y119776D01*
X995962Y119026D01*
X996380Y118266D01*
X996780Y117496D01*
X997161Y116716D01*
X997522Y115927D01*
X997864Y115130D01*
X998186Y114324D01*
X998488Y113511D01*
X998771Y112690D01*
X999033Y111863D01*
X999274Y111030D01*
X999495Y110191D01*
X999696Y109346D01*
X999876Y108497D01*
X1000034Y107644D01*
X1000172Y106788D01*
X1000289Y105928D01*
X1000385Y105065D01*
X1000459Y104201D01*
X1000512Y103335D01*
X1000544Y102468D01*
X1000555Y101600D01*
X1000544Y100732D01*
X1000512Y99865D01*
X1000459Y98999D01*
X1000385Y98135D01*
X1000289Y97272D01*
X1000172Y96412D01*
X1000034Y95556D01*
X999876Y94703D01*
X999696Y93854D01*
X999495Y93009D01*
X999274Y92170D01*
X999033Y91337D01*
X998771Y90510D01*
X998488Y89689D01*
X998186Y88876D01*
X997864Y88070D01*
X997522Y87273D01*
X997161Y86484D01*
X996780Y85704D01*
X996380Y84934D01*
X995962Y84174D01*
X995525Y83424D01*
X995070Y82685D01*
X994597Y81958D01*
X994106Y81242D01*
X993597Y80539D01*
X993072Y79848D01*
X992530Y79171D01*
X991971Y78507D01*
X991396Y77857D01*
X990806Y77221D01*
X990200Y76600D01*
X989579Y75994D01*
X988943Y75404D01*
X988293Y74829D01*
X987629Y74270D01*
X986952Y73728D01*
X986261Y73203D01*
X985558Y72694D01*
X984842Y72203D01*
X984115Y71730D01*
X983376Y71275D01*
X982626Y70838D01*
X981866Y70420D01*
X981096Y70020D01*
X980316Y69639D01*
X979527Y69278D01*
X978730Y68936D01*
X977924Y68614D01*
X977111Y68312D01*
X976290Y68029D01*
X975463Y67767D01*
X974630Y67526D01*
X973791Y67305D01*
X972946Y67104D01*
X972097Y66924D01*
X971244Y66766D01*
X970388Y66628D01*
X969528Y66511D01*
X968665Y66415D01*
X967801Y66341D01*
X966935Y66288D01*
X966068Y66256D01*
X965200Y66245D01*
X964332Y66256D01*
X963465Y66288D01*
X962599Y66341D01*
X961735Y66415D01*
X960872Y66511D01*
X960012Y66628D01*
X959156Y66766D01*
X958303Y66924D01*
X957454Y67104D01*
X956609Y67305D01*
X955770Y67526D01*
X954937Y67767D01*
X954110Y68029D01*
X953289Y68312D01*
X952476Y68614D01*
X951670Y68936D01*
X950873Y69278D01*
X950084Y69639D01*
X949304Y70020D01*
X948534Y70420D01*
X947774Y70838D01*
X947024Y71275D01*
X946285Y71730D01*
X945558Y72203D01*
X944842Y72694D01*
X944139Y73203D01*
X943448Y73728D01*
X942771Y74270D01*
X942107Y74829D01*
X941457Y75404D01*
X940821Y75994D01*
X940200Y76600D01*
X939594Y77221D01*
X939004Y77857D01*
X938429Y78507D01*
X937870Y79171D01*
X937328Y79848D01*
X936803Y80539D01*
X936294Y81242D01*
X935803Y81958D01*
X935330Y82685D01*
X934875Y83424D01*
X934438Y84174D01*
X934020Y84934D01*
X933620Y85704D01*
X933239Y86484D01*
X932878Y87273D01*
X932536Y88070D01*
X932214Y88876D01*
X931912Y89689D01*
X931629Y90510D01*
X931367Y91337D01*
X931126Y92170D01*
X930905Y93009D01*
X930704Y93854D01*
X930524Y94703D01*
X930366Y95556D01*
X930228Y96412D01*
X930111Y97272D01*
X930015Y98135D01*
X929941Y98999D01*
X929888Y99865D01*
X929856Y100732D01*
X929845Y101600D01*
X945200Y121600D02*
X985200Y121600D01*
X985200Y81600D01*
X945200Y81600D01*
X945200Y121600D01*
X905200Y139100D02*
X905200Y151600D01*
X905200Y114100D02*
X905200Y89100D01*
X905200Y64100D02*
X905200Y51600D01*
X1025200Y139100D02*
X1025200Y151600D01*
X1025200Y114100D02*
X1025200Y89100D01*
X1025200Y64100D02*
X1025200Y51600D01*
D11*
X918803Y165608D02*
X918902Y165610D01*
X919002Y165616D01*
X919101Y165625D01*
X919199Y165638D01*
X919297Y165655D01*
X919395Y165676D01*
X919491Y165701D01*
X919586Y165729D01*
X919680Y165761D01*
X919773Y165796D01*
X919865Y165835D01*
X919955Y165878D01*
X920043Y165923D01*
X920130Y165973D01*
X920214Y166025D01*
X920297Y166081D01*
X920377Y166139D01*
X920455Y166201D01*
X920530Y166266D01*
X920603Y166334D01*
X920673Y166404D01*
X920741Y166477D01*
X920806Y166552D01*
X920868Y166630D01*
X920926Y166710D01*
X920982Y166793D01*
X921034Y166877D01*
X921084Y166964D01*
X921129Y167052D01*
X921172Y167142D01*
X921211Y167234D01*
X921246Y167327D01*
X921278Y167421D01*
X921306Y167516D01*
X921331Y167612D01*
X921352Y167710D01*
X921369Y167808D01*
X921382Y167906D01*
X921391Y168005D01*
X921397Y168105D01*
X921399Y168204D01*
X918803Y165608D02*
X918659Y165610D01*
X918514Y165616D01*
X918370Y165625D01*
X918227Y165638D01*
X918083Y165655D01*
X917940Y165676D01*
X917798Y165701D01*
X917657Y165729D01*
X917516Y165761D01*
X917376Y165797D01*
X917237Y165836D01*
X917099Y165879D01*
X916963Y165926D01*
X916827Y165976D01*
X916693Y166030D01*
X916561Y166087D01*
X916430Y166148D01*
X916301Y166212D01*
X916173Y166280D01*
X916047Y166350D01*
X915923Y166425D01*
X915802Y166502D01*
X915682Y166583D01*
X915564Y166666D01*
X915449Y166753D01*
X915336Y166843D01*
X915225Y166936D01*
X915117Y167031D01*
X915011Y167130D01*
X914908Y167231D01*
X915233Y174696D02*
X915235Y174795D01*
X915241Y174895D01*
X915250Y174994D01*
X915263Y175092D01*
X915280Y175190D01*
X915301Y175288D01*
X915326Y175384D01*
X915354Y175479D01*
X915386Y175573D01*
X915421Y175666D01*
X915460Y175758D01*
X915503Y175848D01*
X915548Y175936D01*
X915598Y176023D01*
X915650Y176107D01*
X915706Y176190D01*
X915764Y176270D01*
X915826Y176348D01*
X915891Y176423D01*
X915959Y176496D01*
X916029Y176566D01*
X916102Y176634D01*
X916177Y176699D01*
X916255Y176761D01*
X916335Y176819D01*
X916418Y176875D01*
X916502Y176927D01*
X916589Y176977D01*
X916677Y177022D01*
X916767Y177065D01*
X916859Y177104D01*
X916952Y177139D01*
X917046Y177171D01*
X917141Y177199D01*
X917238Y177224D01*
X917335Y177245D01*
X917433Y177262D01*
X917531Y177275D01*
X917630Y177284D01*
X917730Y177290D01*
X917829Y177292D01*
X917965Y177290D01*
X918101Y177284D01*
X918237Y177275D01*
X918373Y177262D01*
X918508Y177244D01*
X918642Y177224D01*
X918776Y177199D01*
X918910Y177171D01*
X919042Y177138D01*
X919173Y177103D01*
X919304Y177063D01*
X919433Y177020D01*
X919561Y176974D01*
X919687Y176923D01*
X919813Y176870D01*
X919936Y176812D01*
X920058Y176752D01*
X920178Y176688D01*
X920297Y176620D01*
X920413Y176550D01*
X920527Y176476D01*
X920640Y176399D01*
X920750Y176318D01*
X916531Y172424D02*
X916445Y172477D01*
X916361Y172534D01*
X916279Y172593D01*
X916199Y172656D01*
X916122Y172722D01*
X916047Y172790D01*
X915975Y172862D01*
X915906Y172936D01*
X915840Y173013D01*
X915777Y173092D01*
X915717Y173174D01*
X915660Y173258D01*
X915606Y173344D01*
X915556Y173432D01*
X915509Y173522D01*
X915465Y173613D01*
X915426Y173707D01*
X915389Y173801D01*
X915357Y173897D01*
X915328Y173995D01*
X915303Y174093D01*
X915282Y174192D01*
X915264Y174292D01*
X915251Y174392D01*
X915241Y174493D01*
X915235Y174595D01*
X915233Y174696D01*
X920101Y170476D02*
X920187Y170423D01*
X920271Y170366D01*
X920353Y170307D01*
X920433Y170244D01*
X920510Y170178D01*
X920585Y170110D01*
X920657Y170038D01*
X920726Y169964D01*
X920792Y169887D01*
X920855Y169808D01*
X920915Y169726D01*
X920972Y169642D01*
X921026Y169556D01*
X921076Y169468D01*
X921123Y169378D01*
X921167Y169287D01*
X921206Y169193D01*
X921243Y169099D01*
X921275Y169003D01*
X921304Y168905D01*
X921329Y168807D01*
X921350Y168708D01*
X921368Y168608D01*
X921381Y168508D01*
X921391Y168407D01*
X921397Y168305D01*
X921399Y168204D01*
X920101Y170476D02*
X916531Y172424D01*
X925534Y177292D02*
X928130Y165608D01*
X930727Y173397D01*
X933323Y165608D01*
X935919Y177292D01*
X944005Y177292D02*
X944112Y177290D01*
X944218Y177284D01*
X944324Y177274D01*
X944430Y177261D01*
X944536Y177243D01*
X944640Y177222D01*
X944744Y177197D01*
X944847Y177168D01*
X944948Y177136D01*
X945048Y177099D01*
X945147Y177059D01*
X945245Y177016D01*
X945341Y176969D01*
X945435Y176918D01*
X945527Y176864D01*
X945617Y176807D01*
X945705Y176747D01*
X945790Y176683D01*
X945873Y176616D01*
X945954Y176546D01*
X946032Y176474D01*
X946108Y176398D01*
X946180Y176320D01*
X946250Y176239D01*
X946317Y176156D01*
X946381Y176071D01*
X946441Y175983D01*
X946498Y175893D01*
X946552Y175801D01*
X946603Y175707D01*
X946650Y175611D01*
X946693Y175513D01*
X946733Y175414D01*
X946770Y175314D01*
X946802Y175213D01*
X946831Y175110D01*
X946856Y175006D01*
X946877Y174902D01*
X946895Y174796D01*
X946908Y174690D01*
X946918Y174584D01*
X946924Y174478D01*
X946926Y174371D01*
X944005Y177292D02*
X943884Y177290D01*
X943763Y177284D01*
X943643Y177274D01*
X943522Y177261D01*
X943403Y177243D01*
X943283Y177222D01*
X943165Y177197D01*
X943048Y177168D01*
X942931Y177135D01*
X942816Y177099D01*
X942702Y177058D01*
X942589Y177015D01*
X942477Y176967D01*
X942368Y176916D01*
X942260Y176861D01*
X942153Y176803D01*
X942049Y176742D01*
X941947Y176677D01*
X941847Y176609D01*
X941749Y176538D01*
X941653Y176464D01*
X941560Y176387D01*
X941470Y176306D01*
X941382Y176223D01*
X941297Y176137D01*
X941214Y176048D01*
X941135Y175957D01*
X941058Y175863D01*
X940985Y175767D01*
X940915Y175669D01*
X940848Y175568D01*
X940784Y175465D01*
X940724Y175360D01*
X940667Y175253D01*
X940613Y175145D01*
X940563Y175035D01*
X940517Y174923D01*
X940474Y174810D01*
X940435Y174695D01*
X945953Y172099D02*
X946032Y172176D01*
X946108Y172257D01*
X946181Y172340D01*
X946251Y172425D01*
X946318Y172513D01*
X946382Y172603D01*
X946442Y172695D01*
X946499Y172790D01*
X946553Y172886D01*
X946604Y172984D01*
X946651Y173084D01*
X946695Y173186D01*
X946735Y173289D01*
X946771Y173393D01*
X946803Y173499D01*
X946832Y173605D01*
X946857Y173713D01*
X946879Y173821D01*
X946896Y173931D01*
X946910Y174040D01*
X946919Y174150D01*
X946925Y174261D01*
X946927Y174371D01*
X945952Y172099D02*
X940435Y165608D01*
X946926Y165608D01*
M02*
