G04 EAGLE Gerber RS-274X export*
G75*
%MOMM*%
%FSLAX34Y34*%
%LPD*%
%INSoldermask Top*%
%IPPOS*%
%AMOC8*
5,1,8,0,0,1.08239X$1,22.5*%
G01*
%ADD10R,0.952400X0.952400*%
%ADD11C,0.609600*%
%ADD12C,1.168400*%
%ADD13R,1.828800X1.828800*%
%ADD14C,1.828800*%
%ADD15C,4.168400*%
%ADD16R,1.440400X1.440400*%
%ADD17C,1.440400*%
%ADD18C,3.372400*%
%ADD19C,4.597400*%
%ADD20C,1.552400*%
%ADD21C,2.652400*%
%ADD22R,1.102359X1.183641*%
%ADD23C,2.112400*%
%ADD24R,1.676400X1.676400*%
%ADD25P,1.814519X8X112.500000*%


D10*
X957700Y609600D03*
X972700Y609600D03*
X957700Y457200D03*
X972700Y457200D03*
X957700Y304800D03*
X972700Y304800D03*
D11*
X144780Y254000D02*
X144782Y254187D01*
X144789Y254374D01*
X144801Y254561D01*
X144817Y254747D01*
X144837Y254933D01*
X144862Y255118D01*
X144892Y255303D01*
X144926Y255487D01*
X144965Y255670D01*
X145008Y255852D01*
X145056Y256032D01*
X145108Y256212D01*
X145165Y256390D01*
X145225Y256567D01*
X145291Y256742D01*
X145360Y256916D01*
X145434Y257088D01*
X145512Y257258D01*
X145594Y257426D01*
X145680Y257592D01*
X145770Y257756D01*
X145864Y257917D01*
X145962Y258077D01*
X146064Y258233D01*
X146170Y258388D01*
X146280Y258539D01*
X146393Y258688D01*
X146510Y258834D01*
X146630Y258977D01*
X146754Y259117D01*
X146881Y259254D01*
X147012Y259388D01*
X147146Y259519D01*
X147283Y259646D01*
X147423Y259770D01*
X147566Y259890D01*
X147712Y260007D01*
X147861Y260120D01*
X148012Y260230D01*
X148167Y260336D01*
X148323Y260438D01*
X148483Y260536D01*
X148644Y260630D01*
X148808Y260720D01*
X148974Y260806D01*
X149142Y260888D01*
X149312Y260966D01*
X149484Y261040D01*
X149658Y261109D01*
X149833Y261175D01*
X150010Y261235D01*
X150188Y261292D01*
X150368Y261344D01*
X150548Y261392D01*
X150730Y261435D01*
X150913Y261474D01*
X151097Y261508D01*
X151282Y261538D01*
X151467Y261563D01*
X151653Y261583D01*
X151839Y261599D01*
X152026Y261611D01*
X152213Y261618D01*
X152400Y261620D01*
X152587Y261618D01*
X152774Y261611D01*
X152961Y261599D01*
X153147Y261583D01*
X153333Y261563D01*
X153518Y261538D01*
X153703Y261508D01*
X153887Y261474D01*
X154070Y261435D01*
X154252Y261392D01*
X154432Y261344D01*
X154612Y261292D01*
X154790Y261235D01*
X154967Y261175D01*
X155142Y261109D01*
X155316Y261040D01*
X155488Y260966D01*
X155658Y260888D01*
X155826Y260806D01*
X155992Y260720D01*
X156156Y260630D01*
X156317Y260536D01*
X156477Y260438D01*
X156633Y260336D01*
X156788Y260230D01*
X156939Y260120D01*
X157088Y260007D01*
X157234Y259890D01*
X157377Y259770D01*
X157517Y259646D01*
X157654Y259519D01*
X157788Y259388D01*
X157919Y259254D01*
X158046Y259117D01*
X158170Y258977D01*
X158290Y258834D01*
X158407Y258688D01*
X158520Y258539D01*
X158630Y258388D01*
X158736Y258233D01*
X158838Y258077D01*
X158936Y257917D01*
X159030Y257756D01*
X159120Y257592D01*
X159206Y257426D01*
X159288Y257258D01*
X159366Y257088D01*
X159440Y256916D01*
X159509Y256742D01*
X159575Y256567D01*
X159635Y256390D01*
X159692Y256212D01*
X159744Y256032D01*
X159792Y255852D01*
X159835Y255670D01*
X159874Y255487D01*
X159908Y255303D01*
X159938Y255118D01*
X159963Y254933D01*
X159983Y254747D01*
X159999Y254561D01*
X160011Y254374D01*
X160018Y254187D01*
X160020Y254000D01*
X160018Y253813D01*
X160011Y253626D01*
X159999Y253439D01*
X159983Y253253D01*
X159963Y253067D01*
X159938Y252882D01*
X159908Y252697D01*
X159874Y252513D01*
X159835Y252330D01*
X159792Y252148D01*
X159744Y251968D01*
X159692Y251788D01*
X159635Y251610D01*
X159575Y251433D01*
X159509Y251258D01*
X159440Y251084D01*
X159366Y250912D01*
X159288Y250742D01*
X159206Y250574D01*
X159120Y250408D01*
X159030Y250244D01*
X158936Y250083D01*
X158838Y249923D01*
X158736Y249767D01*
X158630Y249612D01*
X158520Y249461D01*
X158407Y249312D01*
X158290Y249166D01*
X158170Y249023D01*
X158046Y248883D01*
X157919Y248746D01*
X157788Y248612D01*
X157654Y248481D01*
X157517Y248354D01*
X157377Y248230D01*
X157234Y248110D01*
X157088Y247993D01*
X156939Y247880D01*
X156788Y247770D01*
X156633Y247664D01*
X156477Y247562D01*
X156317Y247464D01*
X156156Y247370D01*
X155992Y247280D01*
X155826Y247194D01*
X155658Y247112D01*
X155488Y247034D01*
X155316Y246960D01*
X155142Y246891D01*
X154967Y246825D01*
X154790Y246765D01*
X154612Y246708D01*
X154432Y246656D01*
X154252Y246608D01*
X154070Y246565D01*
X153887Y246526D01*
X153703Y246492D01*
X153518Y246462D01*
X153333Y246437D01*
X153147Y246417D01*
X152961Y246401D01*
X152774Y246389D01*
X152587Y246382D01*
X152400Y246380D01*
X152213Y246382D01*
X152026Y246389D01*
X151839Y246401D01*
X151653Y246417D01*
X151467Y246437D01*
X151282Y246462D01*
X151097Y246492D01*
X150913Y246526D01*
X150730Y246565D01*
X150548Y246608D01*
X150368Y246656D01*
X150188Y246708D01*
X150010Y246765D01*
X149833Y246825D01*
X149658Y246891D01*
X149484Y246960D01*
X149312Y247034D01*
X149142Y247112D01*
X148974Y247194D01*
X148808Y247280D01*
X148644Y247370D01*
X148483Y247464D01*
X148323Y247562D01*
X148167Y247664D01*
X148012Y247770D01*
X147861Y247880D01*
X147712Y247993D01*
X147566Y248110D01*
X147423Y248230D01*
X147283Y248354D01*
X147146Y248481D01*
X147012Y248612D01*
X146881Y248746D01*
X146754Y248883D01*
X146630Y249023D01*
X146510Y249166D01*
X146393Y249312D01*
X146280Y249461D01*
X146170Y249612D01*
X146064Y249767D01*
X145962Y249923D01*
X145864Y250083D01*
X145770Y250244D01*
X145680Y250408D01*
X145594Y250574D01*
X145512Y250742D01*
X145434Y250912D01*
X145360Y251084D01*
X145291Y251258D01*
X145225Y251433D01*
X145165Y251610D01*
X145108Y251788D01*
X145056Y251968D01*
X145008Y252148D01*
X144965Y252330D01*
X144926Y252513D01*
X144892Y252697D01*
X144862Y252882D01*
X144837Y253067D01*
X144817Y253253D01*
X144801Y253439D01*
X144789Y253626D01*
X144782Y253813D01*
X144780Y254000D01*
D12*
X152400Y254000D03*
D11*
X957580Y711200D02*
X957582Y711387D01*
X957589Y711574D01*
X957601Y711761D01*
X957617Y711947D01*
X957637Y712133D01*
X957662Y712318D01*
X957692Y712503D01*
X957726Y712687D01*
X957765Y712870D01*
X957808Y713052D01*
X957856Y713232D01*
X957908Y713412D01*
X957965Y713590D01*
X958025Y713767D01*
X958091Y713942D01*
X958160Y714116D01*
X958234Y714288D01*
X958312Y714458D01*
X958394Y714626D01*
X958480Y714792D01*
X958570Y714956D01*
X958664Y715117D01*
X958762Y715277D01*
X958864Y715433D01*
X958970Y715588D01*
X959080Y715739D01*
X959193Y715888D01*
X959310Y716034D01*
X959430Y716177D01*
X959554Y716317D01*
X959681Y716454D01*
X959812Y716588D01*
X959946Y716719D01*
X960083Y716846D01*
X960223Y716970D01*
X960366Y717090D01*
X960512Y717207D01*
X960661Y717320D01*
X960812Y717430D01*
X960967Y717536D01*
X961123Y717638D01*
X961283Y717736D01*
X961444Y717830D01*
X961608Y717920D01*
X961774Y718006D01*
X961942Y718088D01*
X962112Y718166D01*
X962284Y718240D01*
X962458Y718309D01*
X962633Y718375D01*
X962810Y718435D01*
X962988Y718492D01*
X963168Y718544D01*
X963348Y718592D01*
X963530Y718635D01*
X963713Y718674D01*
X963897Y718708D01*
X964082Y718738D01*
X964267Y718763D01*
X964453Y718783D01*
X964639Y718799D01*
X964826Y718811D01*
X965013Y718818D01*
X965200Y718820D01*
X965387Y718818D01*
X965574Y718811D01*
X965761Y718799D01*
X965947Y718783D01*
X966133Y718763D01*
X966318Y718738D01*
X966503Y718708D01*
X966687Y718674D01*
X966870Y718635D01*
X967052Y718592D01*
X967232Y718544D01*
X967412Y718492D01*
X967590Y718435D01*
X967767Y718375D01*
X967942Y718309D01*
X968116Y718240D01*
X968288Y718166D01*
X968458Y718088D01*
X968626Y718006D01*
X968792Y717920D01*
X968956Y717830D01*
X969117Y717736D01*
X969277Y717638D01*
X969433Y717536D01*
X969588Y717430D01*
X969739Y717320D01*
X969888Y717207D01*
X970034Y717090D01*
X970177Y716970D01*
X970317Y716846D01*
X970454Y716719D01*
X970588Y716588D01*
X970719Y716454D01*
X970846Y716317D01*
X970970Y716177D01*
X971090Y716034D01*
X971207Y715888D01*
X971320Y715739D01*
X971430Y715588D01*
X971536Y715433D01*
X971638Y715277D01*
X971736Y715117D01*
X971830Y714956D01*
X971920Y714792D01*
X972006Y714626D01*
X972088Y714458D01*
X972166Y714288D01*
X972240Y714116D01*
X972309Y713942D01*
X972375Y713767D01*
X972435Y713590D01*
X972492Y713412D01*
X972544Y713232D01*
X972592Y713052D01*
X972635Y712870D01*
X972674Y712687D01*
X972708Y712503D01*
X972738Y712318D01*
X972763Y712133D01*
X972783Y711947D01*
X972799Y711761D01*
X972811Y711574D01*
X972818Y711387D01*
X972820Y711200D01*
X972818Y711013D01*
X972811Y710826D01*
X972799Y710639D01*
X972783Y710453D01*
X972763Y710267D01*
X972738Y710082D01*
X972708Y709897D01*
X972674Y709713D01*
X972635Y709530D01*
X972592Y709348D01*
X972544Y709168D01*
X972492Y708988D01*
X972435Y708810D01*
X972375Y708633D01*
X972309Y708458D01*
X972240Y708284D01*
X972166Y708112D01*
X972088Y707942D01*
X972006Y707774D01*
X971920Y707608D01*
X971830Y707444D01*
X971736Y707283D01*
X971638Y707123D01*
X971536Y706967D01*
X971430Y706812D01*
X971320Y706661D01*
X971207Y706512D01*
X971090Y706366D01*
X970970Y706223D01*
X970846Y706083D01*
X970719Y705946D01*
X970588Y705812D01*
X970454Y705681D01*
X970317Y705554D01*
X970177Y705430D01*
X970034Y705310D01*
X969888Y705193D01*
X969739Y705080D01*
X969588Y704970D01*
X969433Y704864D01*
X969277Y704762D01*
X969117Y704664D01*
X968956Y704570D01*
X968792Y704480D01*
X968626Y704394D01*
X968458Y704312D01*
X968288Y704234D01*
X968116Y704160D01*
X967942Y704091D01*
X967767Y704025D01*
X967590Y703965D01*
X967412Y703908D01*
X967232Y703856D01*
X967052Y703808D01*
X966870Y703765D01*
X966687Y703726D01*
X966503Y703692D01*
X966318Y703662D01*
X966133Y703637D01*
X965947Y703617D01*
X965761Y703601D01*
X965574Y703589D01*
X965387Y703582D01*
X965200Y703580D01*
X965013Y703582D01*
X964826Y703589D01*
X964639Y703601D01*
X964453Y703617D01*
X964267Y703637D01*
X964082Y703662D01*
X963897Y703692D01*
X963713Y703726D01*
X963530Y703765D01*
X963348Y703808D01*
X963168Y703856D01*
X962988Y703908D01*
X962810Y703965D01*
X962633Y704025D01*
X962458Y704091D01*
X962284Y704160D01*
X962112Y704234D01*
X961942Y704312D01*
X961774Y704394D01*
X961608Y704480D01*
X961444Y704570D01*
X961283Y704664D01*
X961123Y704762D01*
X960967Y704864D01*
X960812Y704970D01*
X960661Y705080D01*
X960512Y705193D01*
X960366Y705310D01*
X960223Y705430D01*
X960083Y705554D01*
X959946Y705681D01*
X959812Y705812D01*
X959681Y705946D01*
X959554Y706083D01*
X959430Y706223D01*
X959310Y706366D01*
X959193Y706512D01*
X959080Y706661D01*
X958970Y706812D01*
X958864Y706967D01*
X958762Y707123D01*
X958664Y707283D01*
X958570Y707444D01*
X958480Y707608D01*
X958394Y707774D01*
X958312Y707942D01*
X958234Y708112D01*
X958160Y708284D01*
X958091Y708458D01*
X958025Y708633D01*
X957965Y708810D01*
X957908Y708988D01*
X957856Y709168D01*
X957808Y709348D01*
X957765Y709530D01*
X957726Y709713D01*
X957692Y709897D01*
X957662Y710082D01*
X957637Y710267D01*
X957617Y710453D01*
X957601Y710639D01*
X957589Y710826D01*
X957582Y711013D01*
X957580Y711200D01*
D12*
X965200Y711200D03*
D11*
X957580Y254000D02*
X957582Y254187D01*
X957589Y254374D01*
X957601Y254561D01*
X957617Y254747D01*
X957637Y254933D01*
X957662Y255118D01*
X957692Y255303D01*
X957726Y255487D01*
X957765Y255670D01*
X957808Y255852D01*
X957856Y256032D01*
X957908Y256212D01*
X957965Y256390D01*
X958025Y256567D01*
X958091Y256742D01*
X958160Y256916D01*
X958234Y257088D01*
X958312Y257258D01*
X958394Y257426D01*
X958480Y257592D01*
X958570Y257756D01*
X958664Y257917D01*
X958762Y258077D01*
X958864Y258233D01*
X958970Y258388D01*
X959080Y258539D01*
X959193Y258688D01*
X959310Y258834D01*
X959430Y258977D01*
X959554Y259117D01*
X959681Y259254D01*
X959812Y259388D01*
X959946Y259519D01*
X960083Y259646D01*
X960223Y259770D01*
X960366Y259890D01*
X960512Y260007D01*
X960661Y260120D01*
X960812Y260230D01*
X960967Y260336D01*
X961123Y260438D01*
X961283Y260536D01*
X961444Y260630D01*
X961608Y260720D01*
X961774Y260806D01*
X961942Y260888D01*
X962112Y260966D01*
X962284Y261040D01*
X962458Y261109D01*
X962633Y261175D01*
X962810Y261235D01*
X962988Y261292D01*
X963168Y261344D01*
X963348Y261392D01*
X963530Y261435D01*
X963713Y261474D01*
X963897Y261508D01*
X964082Y261538D01*
X964267Y261563D01*
X964453Y261583D01*
X964639Y261599D01*
X964826Y261611D01*
X965013Y261618D01*
X965200Y261620D01*
X965387Y261618D01*
X965574Y261611D01*
X965761Y261599D01*
X965947Y261583D01*
X966133Y261563D01*
X966318Y261538D01*
X966503Y261508D01*
X966687Y261474D01*
X966870Y261435D01*
X967052Y261392D01*
X967232Y261344D01*
X967412Y261292D01*
X967590Y261235D01*
X967767Y261175D01*
X967942Y261109D01*
X968116Y261040D01*
X968288Y260966D01*
X968458Y260888D01*
X968626Y260806D01*
X968792Y260720D01*
X968956Y260630D01*
X969117Y260536D01*
X969277Y260438D01*
X969433Y260336D01*
X969588Y260230D01*
X969739Y260120D01*
X969888Y260007D01*
X970034Y259890D01*
X970177Y259770D01*
X970317Y259646D01*
X970454Y259519D01*
X970588Y259388D01*
X970719Y259254D01*
X970846Y259117D01*
X970970Y258977D01*
X971090Y258834D01*
X971207Y258688D01*
X971320Y258539D01*
X971430Y258388D01*
X971536Y258233D01*
X971638Y258077D01*
X971736Y257917D01*
X971830Y257756D01*
X971920Y257592D01*
X972006Y257426D01*
X972088Y257258D01*
X972166Y257088D01*
X972240Y256916D01*
X972309Y256742D01*
X972375Y256567D01*
X972435Y256390D01*
X972492Y256212D01*
X972544Y256032D01*
X972592Y255852D01*
X972635Y255670D01*
X972674Y255487D01*
X972708Y255303D01*
X972738Y255118D01*
X972763Y254933D01*
X972783Y254747D01*
X972799Y254561D01*
X972811Y254374D01*
X972818Y254187D01*
X972820Y254000D01*
X972818Y253813D01*
X972811Y253626D01*
X972799Y253439D01*
X972783Y253253D01*
X972763Y253067D01*
X972738Y252882D01*
X972708Y252697D01*
X972674Y252513D01*
X972635Y252330D01*
X972592Y252148D01*
X972544Y251968D01*
X972492Y251788D01*
X972435Y251610D01*
X972375Y251433D01*
X972309Y251258D01*
X972240Y251084D01*
X972166Y250912D01*
X972088Y250742D01*
X972006Y250574D01*
X971920Y250408D01*
X971830Y250244D01*
X971736Y250083D01*
X971638Y249923D01*
X971536Y249767D01*
X971430Y249612D01*
X971320Y249461D01*
X971207Y249312D01*
X971090Y249166D01*
X970970Y249023D01*
X970846Y248883D01*
X970719Y248746D01*
X970588Y248612D01*
X970454Y248481D01*
X970317Y248354D01*
X970177Y248230D01*
X970034Y248110D01*
X969888Y247993D01*
X969739Y247880D01*
X969588Y247770D01*
X969433Y247664D01*
X969277Y247562D01*
X969117Y247464D01*
X968956Y247370D01*
X968792Y247280D01*
X968626Y247194D01*
X968458Y247112D01*
X968288Y247034D01*
X968116Y246960D01*
X967942Y246891D01*
X967767Y246825D01*
X967590Y246765D01*
X967412Y246708D01*
X967232Y246656D01*
X967052Y246608D01*
X966870Y246565D01*
X966687Y246526D01*
X966503Y246492D01*
X966318Y246462D01*
X966133Y246437D01*
X965947Y246417D01*
X965761Y246401D01*
X965574Y246389D01*
X965387Y246382D01*
X965200Y246380D01*
X965013Y246382D01*
X964826Y246389D01*
X964639Y246401D01*
X964453Y246417D01*
X964267Y246437D01*
X964082Y246462D01*
X963897Y246492D01*
X963713Y246526D01*
X963530Y246565D01*
X963348Y246608D01*
X963168Y246656D01*
X962988Y246708D01*
X962810Y246765D01*
X962633Y246825D01*
X962458Y246891D01*
X962284Y246960D01*
X962112Y247034D01*
X961942Y247112D01*
X961774Y247194D01*
X961608Y247280D01*
X961444Y247370D01*
X961283Y247464D01*
X961123Y247562D01*
X960967Y247664D01*
X960812Y247770D01*
X960661Y247880D01*
X960512Y247993D01*
X960366Y248110D01*
X960223Y248230D01*
X960083Y248354D01*
X959946Y248481D01*
X959812Y248612D01*
X959681Y248746D01*
X959554Y248883D01*
X959430Y249023D01*
X959310Y249166D01*
X959193Y249312D01*
X959080Y249461D01*
X958970Y249612D01*
X958864Y249767D01*
X958762Y249923D01*
X958664Y250083D01*
X958570Y250244D01*
X958480Y250408D01*
X958394Y250574D01*
X958312Y250742D01*
X958234Y250912D01*
X958160Y251084D01*
X958091Y251258D01*
X958025Y251433D01*
X957965Y251610D01*
X957908Y251788D01*
X957856Y251968D01*
X957808Y252148D01*
X957765Y252330D01*
X957726Y252513D01*
X957692Y252697D01*
X957662Y252882D01*
X957637Y253067D01*
X957617Y253253D01*
X957601Y253439D01*
X957589Y253626D01*
X957582Y253813D01*
X957580Y254000D01*
D12*
X965200Y254000D03*
D13*
X88900Y203200D03*
D14*
X88900Y228600D03*
X88900Y254000D03*
X88900Y279400D03*
X88900Y304800D03*
X88900Y330200D03*
X88900Y355600D03*
X88900Y381000D03*
X88900Y406400D03*
X88900Y431800D03*
X88900Y457200D03*
X88900Y482600D03*
X88900Y508000D03*
X88900Y533400D03*
X88900Y558800D03*
X88900Y584200D03*
X88900Y609600D03*
X88900Y635000D03*
X88900Y660400D03*
X88900Y685800D03*
D13*
X850900Y203200D03*
D14*
X850900Y228600D03*
X850900Y254000D03*
X850900Y279400D03*
X850900Y304800D03*
X850900Y330200D03*
X850900Y355600D03*
X850900Y381000D03*
X850900Y406400D03*
X850900Y431800D03*
X850900Y457200D03*
X850900Y482600D03*
X850900Y508000D03*
X850900Y533400D03*
X850900Y558800D03*
X850900Y584200D03*
X850900Y609600D03*
X850900Y635000D03*
X850900Y660400D03*
X850900Y685800D03*
D15*
X850900Y158750D03*
X850900Y730250D03*
X88900Y158750D03*
X88900Y730250D03*
D16*
X660400Y508000D03*
D17*
X660400Y483000D03*
X660400Y463000D03*
X660400Y438000D03*
D18*
X687500Y538700D03*
X687500Y407300D03*
D19*
X1028700Y774700D03*
X1028700Y38100D03*
X38100Y774700D03*
X38100Y38100D03*
D20*
X254000Y76600D03*
X254000Y101600D03*
X254000Y126600D03*
D21*
X184000Y51600D03*
X184000Y151600D03*
D20*
X787400Y76600D03*
X787400Y101600D03*
X787400Y126600D03*
D21*
X717400Y51600D03*
X717400Y151600D03*
D22*
X360299Y101600D03*
X376301Y101600D03*
X855599Y101600D03*
X871601Y101600D03*
X601599Y609600D03*
X617601Y609600D03*
D23*
X532400Y126600D03*
X532400Y76600D03*
X407400Y76600D03*
X407400Y126600D03*
X1027700Y126600D03*
X1027700Y76600D03*
X902700Y76600D03*
X902700Y126600D03*
D24*
X238500Y262300D03*
D25*
X263900Y262300D03*
X238500Y287700D03*
X263900Y287700D03*
X238500Y313100D03*
X263900Y313100D03*
X238500Y338500D03*
X263900Y338500D03*
X238500Y363900D03*
X263900Y363900D03*
X238500Y389300D03*
X263900Y389300D03*
X238500Y414700D03*
X263900Y414700D03*
X238500Y440100D03*
X263900Y440100D03*
X238500Y465500D03*
X263900Y465500D03*
X238500Y490900D03*
X263900Y490900D03*
X238500Y516300D03*
X263900Y516300D03*
X238500Y541700D03*
X263900Y541700D03*
X238500Y567100D03*
X263900Y567100D03*
X238500Y592500D03*
X263900Y592500D03*
X238500Y617900D03*
X263900Y617900D03*
X238500Y643300D03*
X263900Y643300D03*
X238500Y668700D03*
X263900Y668700D03*
X238500Y694100D03*
X263900Y694100D03*
D24*
X492500Y262300D03*
D25*
X517900Y262300D03*
X492500Y287700D03*
X517900Y287700D03*
X492500Y313100D03*
X517900Y313100D03*
X492500Y338500D03*
X517900Y338500D03*
X492500Y363900D03*
X517900Y363900D03*
X492500Y389300D03*
X517900Y389300D03*
X492500Y414700D03*
X517900Y414700D03*
X492500Y440100D03*
X517900Y440100D03*
X492500Y465500D03*
X517900Y465500D03*
X492500Y490900D03*
X517900Y490900D03*
X492500Y516300D03*
X517900Y516300D03*
X492500Y541700D03*
X517900Y541700D03*
X492500Y567100D03*
X517900Y567100D03*
X492500Y592500D03*
X517900Y592500D03*
X492500Y617900D03*
X517900Y617900D03*
X492500Y643300D03*
X517900Y643300D03*
X492500Y668700D03*
X517900Y668700D03*
X492500Y694100D03*
X517900Y694100D03*
M02*
